<svg width="75" height="73" viewBox="0 0 75 73" fill="none" xmlns="http://www.w3.org/2000/svg">
<path opacity="0.2" d="M33.2719 0L5.24561 28.1975L4 29.4507H45.7281V72.0603L75 42.6096V0H33.2719Z" fill="#015696"/>
<path d="M35.8752 65.0547L54.6051 46.3248L55.4375 45.4924H27.5508V17.1895L7.98855 36.7518V65.0547H35.8752Z" fill="#DEF1FF"/>
<path d="M48.75 52.9954V50.9775C48.1097 51.1713 47.4567 51.3457 46.8125 51.5016V53.4934C47.4402 53.3481 48.0912 53.1834 48.75 52.9954Z" fill="#015696"/>
<path d="M58.2979 35.9756C57.9046 36.0212 48.623 37.1381 45.3941 40.3631C43.7473 42.01 42.6545 45.2253 41.9696 48.0385V35.9621C42.3261 35.9204 50.5779 34.9294 53.4619 32.0454C56.3459 29.1615 57.3369 20.9048 57.3785 20.5522L57.521 19.3364L56.3052 19.4788C55.9555 19.5195 47.6978 20.5095 44.8129 23.3955C43.5031 24.7042 42.5848 27.1174 41.9696 29.4017V19.4643C43.229 19.3005 48.3043 18.5333 50.2776 16.558C52.4089 14.4268 53.1354 8.66464 53.211 8.01461L53.3534 6.79883L52.1415 6.94123C51.4915 7.0168 45.7313 7.74239 43.5981 9.87558C42.1798 11.2929 41.3874 14.3066 40.9902 16.3662C40.594 14.3086 39.8006 11.2948 38.3833 9.87558C36.252 7.74433 30.489 7.0168 29.8389 6.94123L28.6193 6.7998L28.7607 8.01558C28.8363 8.66561 29.5619 14.4268 31.696 16.559C33.6829 18.5469 38.8125 19.3112 40.0321 19.4652V29.5063C39.414 27.1949 38.4908 24.7255 37.1607 23.3955C34.2758 20.5095 26.0201 19.5205 25.6685 19.4788L24.4527 19.3364L24.5941 20.5522C24.6348 20.9029 25.6258 29.1595 28.5108 32.0454C31.3957 34.9313 39.6514 35.9204 40.005 35.9621L40.0321 35.9689V48.1596C39.354 45.3183 38.2486 42.0323 36.5785 40.3631C33.3477 37.1314 24.0681 36.0212 23.6748 35.9756L22.459 35.8332L22.6014 37.05C22.6469 37.4433 23.7639 46.7249 26.9879 49.9528C30.2119 53.1806 39.4983 54.2947 39.8916 54.3402L40.0321 54.3567V62.1251H28.4071V64.0626H53.5946V62.1251H41.9696V54.3528L42.081 54.3402C42.2118 54.3247 43.3326 54.1881 44.8759 53.8995V51.928C44.2355 52.054 43.633 52.1596 43.105 52.2429C43.5835 49.1797 44.7887 43.7082 46.764 41.7329C48.7392 39.7576 54.2117 38.5535 57.2749 38.073C56.7963 41.1352 55.5912 46.6067 53.615 48.583C52.7575 49.3364 51.7642 49.9193 50.6884 50.3005V52.3727C52.2723 51.8706 53.7352 51.046 54.9848 49.9508C58.2136 46.7229 59.3267 37.4414 59.3722 37.048L59.5137 35.8313L58.2979 35.9756ZM46.1827 24.7653C47.878 23.07 52.5542 22.0169 55.2783 21.579C54.8414 24.3032 53.7903 28.9774 52.0921 30.6756C50.3939 32.3738 45.7206 33.424 42.9965 33.8609C43.4344 31.1367 44.4884 26.4615 46.1827 24.7653ZM44.964 11.2454C46.0858 10.1236 49.1161 9.39508 51.1001 9.05214C50.7571 11.0371 50.0286 14.0683 48.9078 15.1892C47.787 16.31 44.7557 17.0395 42.7717 17.3824C43.1147 15.3984 43.8432 12.3672 44.964 11.2454ZM33.0658 15.1892C31.944 14.0683 31.2155 11.0371 30.8726 9.05214C32.8566 9.39508 35.8878 10.1236 37.0096 11.2454C38.1314 12.3672 38.859 15.3994 39.2019 17.3824C37.2227 17.0405 34.1896 16.3129 33.0658 15.1892ZM29.8806 30.6756C28.1853 28.9793 27.1332 24.3032 26.6953 21.579C29.4195 22.016 34.0927 23.067 35.7909 24.7653C37.4891 26.4635 38.5393 31.1367 38.9771 33.8618C36.254 33.4249 31.5788 32.3738 29.8806 30.6756ZM28.3577 48.583C26.3853 46.6096 25.1792 41.1362 24.6987 38.073C27.7619 38.5574 33.2354 39.7596 35.2087 41.7329C37.182 43.7063 38.3852 49.1797 38.8696 52.2439C35.8055 51.7595 30.334 50.5582 28.3577 48.583Z" fill="#015696"/>
</svg>
