<svg width="75" height="73" viewBox="0 0 75 73" fill="none" xmlns="http://www.w3.org/2000/svg">
<path opacity="0.2" d="M33.2719 0L5.24561 28.1975L4 29.4507H45.7281V72.0603L75 42.6096V0H33.2719Z" fill="#015696"/>
<path d="M35.8752 65.0547L54.6051 46.3248L55.4375 45.4924H27.5508V17.1895L7.98855 36.7518V65.0547H35.8752Z" fill="#DEF1FF"/>
<path d="M64.75 63.5623H19.25C18.8125 63.5623 18.375 63.2123 18.375 62.6873V49.2998C18.375 45.7123 20.475 42.4748 23.8 40.9873C27.125 39.4998 30.45 38.4498 33.6875 37.7498C34.0375 37.6623 34.475 37.8373 34.65 38.1873L42 53.7623L49.35 38.2748C49.525 37.9248 49.875 37.7498 50.3125 37.8373C53.55 38.5373 56.875 39.5873 60.2 41.0748C63.525 42.5623 65.625 45.7998 65.625 49.3873V62.7748C65.625 63.2123 65.1875 63.5623 64.75 63.5623ZM20.0375 61.8998H63.875V49.2998C63.875 46.4123 62.125 43.6998 59.4125 42.4748C56.4375 41.1623 53.4625 40.1123 50.575 39.4998L42.7 55.9498C42.525 56.2123 42.2625 56.3873 41.9125 56.3873C41.5625 56.3873 41.3 56.2123 41.125 55.9498L33.25 39.4998C30.3625 40.1123 27.3 41.1623 24.4125 42.4748C21.7 43.6998 19.95 46.3248 19.95 49.2998V61.8998H20.0375Z" fill="#015696"/>
<path d="M43.9253 42.8248H39.9878C39.6378 42.8248 39.2878 42.5623 39.2003 42.2123L38.3253 38.5373C38.2378 38.2748 38.3253 38.0123 38.5003 37.8373C38.6753 37.6623 38.9378 37.4873 39.2003 37.4873H44.8878C45.1503 37.4873 45.4128 37.5748 45.5878 37.8373C45.7628 38.0123 45.7628 38.2748 45.7628 38.5373L44.8878 42.2123C44.7128 42.5623 44.3628 42.8248 43.9253 42.8248ZM40.6878 41.1623H43.3128L43.8378 39.1498H40.2503L40.6878 41.1623Z" fill="#015696"/>
<path d="M44.9754 50.2624C44.5379 50.2624 44.1879 49.9124 44.1004 49.4749L43.1379 42.1249C43.0504 41.6874 43.4004 41.2499 43.8379 41.1624C44.2754 41.0749 44.7129 41.4249 44.8004 41.8624L45.8504 49.2124V49.2999C45.8504 49.8249 45.5004 50.2624 44.9754 50.2624ZM39.0254 50.2624C38.5879 50.2624 38.1504 49.9124 38.1504 49.3874V49.2999L39.2004 41.9499C39.2879 41.5124 39.7254 41.1624 40.1629 41.2499C40.6004 41.3374 40.9504 41.7749 40.8629 42.2124L39.8129 49.5624C39.8129 49.9124 39.4629 50.2624 39.0254 50.2624ZM56.3504 63.5624C55.9129 63.5624 55.4754 63.2124 55.4754 62.6874V52.6249C55.4754 52.1874 55.8254 51.7499 56.3504 51.7499C56.7879 51.7499 57.2254 52.0999 57.2254 52.6249V62.7749C57.2254 63.2124 56.7879 63.5624 56.3504 63.5624ZM27.6504 63.5624C27.2129 63.5624 26.7754 63.2124 26.7754 62.6874V52.6249C26.7754 52.1874 27.1254 51.7499 27.6504 51.7499C28.0879 51.7499 28.5254 52.0999 28.5254 52.6249V62.7749C28.4379 63.2124 28.0879 63.5624 27.6504 63.5624Z" fill="#015696"/>
<path d="M42 35.9126C36.225 35.9126 30.625 28.1251 30.625 20.0751C30.625 12.9876 35.0875 8.3501 42 8.3501C48.9125 8.3501 53.375 12.9001 53.375 20.0751C53.375 28.1251 47.775 35.9126 42 35.9126ZM42 10.1001C37.275 10.1001 32.2875 12.7251 32.2875 20.0751C32.2875 27.0751 37.1875 34.2501 42 34.2501C46.8125 34.2501 51.7125 27.0751 51.7125 20.0751C51.7125 12.7251 46.725 10.1001 42 10.1001Z" fill="#015696"/>
<path d="M45.2377 19.55C43.7502 19.55 42.4377 19.2875 41.3002 18.675C40.1627 18.15 39.3752 17.3625 38.8502 16.8375C37.3627 18.5 34.6502 19.725 31.4127 19.2875C30.9752 19.2 30.6252 18.85 30.7127 18.325C30.8002 17.8875 31.2377 17.5375 31.6752 17.625C35.0002 18.0625 37.4502 16.4 38.1502 15C38.3252 14.7375 38.5877 14.5625 38.9377 14.5625C39.2877 14.5625 39.5502 14.7375 39.7252 15.0875C39.8127 15.35 42.5252 20.6 51.8877 16.225C52.3252 16.05 52.7627 16.225 53.0252 16.6625C53.2002 17.1 53.0252 17.5375 52.5877 17.8C49.8752 18.9375 47.4252 19.55 45.2377 19.55Z" fill="#015696"/>
</svg>
