<svg width="20" height="20" viewBox="0 0 20 20" fill="none" xmlns="http://www.w3.org/2000/svg">
<path d="M6.47593 2.03282L7.37309 1.74614C8.21377 1.47752 9.11194 1.91164 9.47202 2.76059L10.1884 4.45005C10.5007 5.18626 10.3274 6.05202 9.7601 6.59045L8.18153 8.08879C8.27893 8.98499 8.58019 9.86749 9.08527 10.7363C9.59044 11.6051 10.2213 12.3257 10.9779 12.8983L12.8739 12.2661C13.5925 12.0264 14.3752 12.3018 14.816 12.9495L15.8429 14.4582C16.3554 15.2111 16.2633 16.2497 15.6274 16.8881L14.9459 17.5722C14.2677 18.2531 13.2989 18.5001 12.4028 18.2206C10.287 17.5606 8.34177 15.6012 6.56695 12.3426C4.78956 9.07907 4.16227 6.31023 4.68508 4.03607C4.90508 3.07913 5.58634 2.31707 6.47593 2.03282Z" fill="white"/>
</svg>
