<svg width="26" height="30" viewBox="0 0 26 30" fill="none" xmlns="http://www.w3.org/2000/svg">
<path d="M18.371 0.834801C18.9076 0.868361 19.3215 1.32824 19.3072 1.87485V3.34095C23.5696 3.75447 25.75 6.11025 25.75 10.3456V22.0619C25.75 26.7735 23.0645 29.1668 17.7797 29.1668H8.22029C2.93551 29.1668 0.25 26.7735 0.25 22.0619V10.3456C0.25 7.52622 1.21087 5.50877 3.18188 4.33088L3.32014 4.25209C3.60586 4.11873 3.94098 4.13095 4.21952 4.29266C4.54449 4.48132 4.73639 4.84091 4.7149 5.22089C4.6934 5.60087 4.46221 5.93569 4.11812 6.08519C2.81232 6.86209 2.19638 8.21541 2.19638 10.3456V10.7216H20.1696C20.707 10.7216 21.1428 11.1648 21.1428 11.7115C21.1428 12.2582 20.707 12.7014 20.1696 12.7014H2.19638V22.0619C2.19638 25.6582 3.94565 27.1494 8.22029 27.1744H17.7797C21.9928 27.1744 23.7913 25.6457 23.7913 22.0494V10.3331C23.7913 7.20042 22.4239 5.6842 19.3072 5.32081V6.27315C19.2354 6.78075 18.7985 7.15132 18.2946 7.13198C17.7908 7.11264 17.3826 6.70963 17.3485 6.19796V1.78714L17.3666 1.63045C17.4067 1.42512 17.5101 1.23653 17.6639 1.09333C17.8561 0.91433 18.1108 0.821202 18.371 0.834801ZM18.9316 20.9459L19.0884 20.956C19.3574 20.9897 19.6097 21.1131 19.8044 21.3092C20.0381 21.5446 20.1696 21.8652 20.1696 22.1997C20.1696 22.8918 19.618 23.4528 18.9377 23.4528C18.2573 23.4528 17.7058 22.8918 17.7058 22.1997C17.7058 21.5077 18.2573 20.9467 18.9377 20.9467L18.9316 20.9459ZM13.0246 20.9467L13.1792 20.9564C13.7866 21.0337 14.2565 21.5609 14.2565 22.1997C14.2565 22.8918 13.705 23.4528 13.0246 23.4528C12.3443 23.4528 11.7928 22.8918 11.7928 22.1997C11.7928 21.5077 12.3443 20.9467 13.0246 20.9467ZM7.118 20.9459L7.27466 20.956C7.54364 20.9897 7.7959 21.1131 7.99064 21.3092C8.22434 21.5446 8.3558 21.8652 8.3558 22.1997C8.3558 22.8918 7.80426 23.4528 7.12391 23.4528C6.44356 23.4528 5.89203 22.8918 5.89203 22.1997C5.89203 21.5077 6.44356 20.9467 7.12391 20.9467L7.118 20.9459ZM18.9316 15.8714L19.0884 15.8811C19.3574 15.9148 19.6097 16.0381 19.8044 16.2343C20.0381 16.4696 20.1696 16.7903 20.1696 17.1248C20.1696 17.8168 19.618 18.3779 18.9377 18.3779C18.2573 18.3779 17.7058 17.8168 17.7058 17.1248C17.7058 16.4327 18.2573 15.8717 18.9377 15.8717L18.9316 15.8714ZM13.0246 15.8717L13.1792 15.8815C13.7866 15.9588 14.2565 16.486 14.2565 17.1248C14.2565 17.8168 13.705 18.3779 13.0246 18.3779C12.3443 18.3779 11.7928 17.8168 11.7928 17.1248C11.7928 16.4327 12.3443 15.8717 13.0246 15.8717ZM7.118 15.8714L7.27466 15.8811C7.54364 15.9148 7.7959 16.0381 7.99064 16.2343C8.22434 16.4696 8.3558 16.7903 8.3558 17.1248C8.3558 17.8168 7.80426 18.3779 7.12391 18.3779C6.44356 18.3779 5.89203 17.8168 5.89203 17.1248C5.89203 16.4327 6.44356 15.8717 7.12391 15.8717L7.118 15.8714ZM7.6721 0.984297C8.17381 0.984297 8.59544 1.3677 8.65145 1.87485V3.24071H14.2196C14.757 3.24071 15.1928 3.68391 15.1928 4.23063C15.1928 4.77736 14.757 5.22056 14.2196 5.22056H8.62681V6.21049C8.62683 6.47522 8.52261 6.72894 8.33743 6.91495C8.15225 7.10096 7.90154 7.20377 7.6413 7.20042L7.499 7.18621C7.03533 7.10472 6.68646 6.69064 6.69267 6.19796V1.87485L6.72018 1.72668C6.83389 1.29485 7.22056 0.984297 7.6721 0.984297Z" fill="#015696"/>
</svg>
