<svg width="668" height="812" viewBox="0 0 668 812" fill="none" xmlns="http://www.w3.org/2000/svg">
<g opacity="0.34">
<line x1="-2" y1="55.5" x2="668" y2="55.5" stroke="white"/>
<line x1="-2" y1="155.5" x2="668" y2="155.5" stroke="white"/>
<line x1="-2" y1="255.5" x2="668" y2="255.5" stroke="white"/>
<line x1="-2" y1="355.5" x2="668" y2="355.5" stroke="white"/>
<line x1="-2" y1="455.5" x2="668" y2="455.5" stroke="white"/>
<line x1="-2" y1="555.5" x2="668" y2="555.5" stroke="white"/>
<line x1="-2" y1="655.5" x2="668" y2="655.5" stroke="white"/>
<line x1="-2" y1="755.5" x2="668" y2="755.5" stroke="white"/>
<line x1="82.5" y1="2.26935e-08" x2="82.5" y2="812" stroke="white"/>
<line x1="182.5" y1="2.26935e-08" x2="182.5" y2="812" stroke="white"/>
<line x1="282.5" y1="2.26935e-08" x2="282.5" y2="812" stroke="white"/>
<line x1="382.5" y1="2.26935e-08" x2="382.5" y2="812" stroke="white"/>
<line x1="482.5" y1="2.26935e-08" x2="482.5" y2="812" stroke="white"/>
<line x1="582.5" y1="2.26935e-08" x2="582.5" y2="812" stroke="white"/>
</g>
</svg>
