<svg width="75" height="73" viewBox="0 0 75 73" fill="none" xmlns="http://www.w3.org/2000/svg">
<path opacity="0.2" d="M33.2719 0L5.24561 28.1975L4 29.4507H45.7281V72.0603L75 42.6096V0H33.2719Z" fill="#015696"/>
<path d="M35.8755 65.0547L54.6053 46.3248L55.4377 45.4924H27.5511V17.1895L7.9888 36.7518V65.0547H35.8755Z" fill="#DEF1FF"/>
<path d="M48.75 52.9954V50.9775C48.1097 51.1713 47.4567 51.3457 46.8125 51.5016V53.4934C47.4402 53.3481 48.0912 53.1834 48.75 52.9954Z" fill="#015696"/>
<path d="M58.2969 35.9756C57.9036 36.0212 48.622 37.1381 45.3932 40.3631C43.7463 42.01 42.6535 45.2253 41.9686 48.0385V35.9621C42.3251 35.9204 50.5769 34.9294 53.4609 32.0454C56.3449 29.1615 57.3359 20.9048 57.3776 20.5522L57.52 19.3364L56.3042 19.4788C55.9545 19.5195 47.6969 20.5095 44.8119 23.3955C43.5022 24.7042 42.5838 27.1174 41.9686 29.4017V19.4643C43.228 19.3005 48.3033 18.5333 50.2766 16.558C52.4079 14.4268 53.1344 8.66464 53.21 8.01461L53.3524 6.79883L52.1405 6.94123C51.4905 7.0168 45.7303 7.74239 43.5971 9.87558C42.1789 11.2929 41.3864 14.3066 40.9892 16.3662C40.593 14.3086 39.7996 11.2948 38.3823 9.87558C36.2511 7.74433 30.488 7.0168 29.8379 6.94123L28.6183 6.7998L28.7597 8.01558C28.8353 8.66561 29.5609 14.4268 31.695 16.559C33.6819 18.5469 38.8115 19.3112 40.0311 19.4652V29.5063C39.4131 27.1949 38.4899 24.7255 37.1598 23.3955C34.2748 20.5095 26.0191 19.5205 25.6675 19.4788L24.4517 19.3364L24.5931 20.5522C24.6338 20.9029 25.6249 29.1595 28.5098 32.0454C31.3947 34.9313 39.6504 35.9204 40.004 35.9621L40.0311 35.9689V48.1596C39.353 45.3183 38.2477 42.0323 36.5775 40.3631C33.3468 37.1314 24.0671 36.0212 23.6738 35.9756L22.458 35.8332L22.6004 37.05C22.6459 37.4433 23.7629 46.7249 26.9869 49.9528C30.2109 53.1806 39.4974 54.2947 39.8907 54.3402L40.0311 54.3567V62.1251H28.4061V64.0626H53.5936V62.1251H41.9686V54.3528L42.08 54.3402C42.2108 54.3247 43.3317 54.1881 44.8749 53.8995V51.928C44.2345 52.054 43.632 52.1596 43.104 52.2429C43.5826 49.1797 44.7877 43.7082 46.763 41.7329C48.7383 39.7576 54.2107 38.5535 57.2739 38.073C56.7953 41.1352 55.5902 46.6067 53.614 48.583C52.7565 49.3364 51.7633 49.9193 50.6874 50.3005V52.3727C52.2713 51.8706 53.7342 51.046 54.9838 49.9508C58.2126 46.7229 59.3257 37.4414 59.3713 37.048L59.5127 35.8313L58.2969 35.9756ZM46.1817 24.7653C47.877 23.07 52.5532 22.0169 55.2773 21.579C54.8404 24.3032 53.7893 28.9774 52.0911 30.6756C50.3929 32.3738 45.7196 33.424 42.9955 33.8609C43.4334 31.1367 44.4874 26.4615 46.1817 24.7653ZM44.963 11.2454C46.0849 10.1236 49.1151 9.39508 51.0991 9.05214C50.7562 11.0371 50.0277 14.0683 48.9068 15.1892C47.786 16.31 44.7548 17.0395 42.7708 17.3824C43.1137 15.3984 43.8422 12.3672 44.963 11.2454ZM33.0649 15.1892C31.943 14.0683 31.2145 11.0371 30.8716 9.05214C32.8556 9.39508 35.8868 10.1236 37.0086 11.2454C38.1304 12.3672 38.858 15.3994 39.2009 17.3824C37.2218 17.0405 34.1886 16.3129 33.0649 15.1892ZM29.8796 30.6756C28.1843 28.9793 27.1322 24.3032 26.6944 21.579C29.4185 22.016 34.0917 23.067 35.7899 24.7653C37.4882 26.4635 38.5383 31.1367 38.9762 33.8618C36.253 33.4249 31.5778 32.3738 29.8796 30.6756ZM28.3567 48.583C26.3844 46.6096 25.1783 41.1362 24.6978 38.073C27.7609 38.5574 33.2344 39.7596 35.2077 41.7329C37.1811 43.7063 38.3843 49.1797 38.8686 52.2439C35.8045 51.7595 30.333 50.5582 28.3567 48.583Z" fill="#015696"/>
</svg>
