<svg width="28" height="28" viewBox="0 0 28 28" fill="none" xmlns="http://www.w3.org/2000/svg">
<path d="M25.9587 9.14103V13.061C25.9587 13.1384 25.928 13.2126 25.8733 13.2673C25.8186 13.322 25.7444 13.3527 25.6671 13.3527H24.4712C24.3939 13.3527 24.3197 13.322 24.265 13.2673C24.2103 13.2126 24.1796 13.1384 24.1796 13.061V11.8885L22.9954 13.0727C23.84 14.194 24.2966 15.5597 24.2962 16.9635C24.2962 17.1619 24.2846 17.3602 24.2729 17.5527C24.2828 17.5888 24.2868 17.6262 24.2846 17.6635C24.1639 18.8795 23.7005 20.0363 22.9482 20.9992C22.1959 21.9621 21.1857 22.6917 20.035 23.1029C18.8843 23.5142 17.6405 23.5903 16.4483 23.3223C15.2561 23.0544 14.1644 22.4534 13.3004 21.5894C12.2226 20.5053 11.5617 19.076 11.4337 17.5527C11.4279 17.4885 11.4221 17.4244 11.4221 17.3602C12.0925 17.0494 12.7105 16.6362 13.2537 16.1352C13.2019 16.4082 13.1765 16.6856 13.1779 16.9635C13.1771 17.7323 13.3661 18.4893 13.7279 19.1675C14.0898 19.8458 14.6134 20.4243 15.2523 20.8517C15.8912 21.2791 16.6258 21.5423 17.3908 21.618C18.1558 21.6936 18.9276 21.5793 19.6379 21.2852C20.3481 20.9911 20.9748 20.5263 21.4625 19.9321C21.9501 19.3378 22.2836 18.6324 22.4334 17.8784C22.5831 17.1244 22.5445 16.3451 22.321 15.6096C22.0975 14.8741 21.696 14.2051 21.1521 13.6619C20.824 13.3385 20.453 13.0617 20.0496 12.8394H20.0437C19.6424 12.6249 19.2121 12.4697 18.7662 12.3785C18.4645 12.32 18.1578 12.2907 17.8504 12.291C16.9259 12.294 16.0228 12.57 15.2546 13.0844C15 13.2521 14.7635 13.4456 14.5487 13.6619C14.4416 13.7671 14.3403 13.8781 14.2454 13.9944C14.086 14.19 13.9436 14.3988 13.8196 14.6185C13.8079 14.6244 13.8021 14.6302 13.8079 14.636C13.4389 15.1664 12.9903 15.6366 12.4779 16.0302C12.1507 16.2819 11.8035 16.5062 11.4396 16.701C11.4337 16.7069 11.4279 16.7069 11.4221 16.7127C11.3998 16.7249 11.3764 16.7347 11.3521 16.7419C10.74 17.0489 10.0819 17.2538 9.40372 17.3485C9.39688 17.3532 9.38861 17.3552 9.38039 17.3544V18.6902H10.6754C10.7527 18.6902 10.8269 18.7209 10.8816 18.7756C10.9363 18.8303 10.9671 18.9045 10.9671 18.9819V20.1777C10.9671 20.2551 10.9363 20.3292 10.8816 20.3839C10.8269 20.4386 10.7527 20.4694 10.6754 20.4694H9.38039V21.7819C9.37919 21.8588 9.34807 21.9323 9.29363 21.9868C9.23919 22.0412 9.1657 22.0723 9.08872 22.0735H7.89289C7.81553 22.0735 7.74135 22.0428 7.68665 21.9881C7.63195 21.9334 7.60122 21.8592 7.60122 21.7819V20.4694H6.31205C6.2347 20.4694 6.16051 20.4386 6.10582 20.3839C6.05112 20.3292 6.02039 20.2551 6.02039 20.1777V18.9819C6.02039 18.9045 6.05112 18.8303 6.10582 18.7756C6.16051 18.7209 6.2347 18.6902 6.31205 18.6902H7.60122V17.3544C6.05703 17.1462 4.64136 16.3832 3.61842 15.2078C2.59547 14.0324 2.03516 12.525 2.04206 10.9669C2.04488 9.62958 2.46047 8.32578 3.23205 7.23353C3.82686 6.39216 4.61555 5.70641 5.5314 5.23427C6.44725 4.76213 7.46334 4.51749 8.49372 4.52103C8.82182 4.52194 9.14939 4.54729 9.47372 4.59687C10.4481 4.74136 11.3759 5.10933 12.1845 5.67198C12.993 6.23464 13.6605 6.97673 14.1346 7.8402V7.84603C14.5592 8.61269 14.8213 9.45861 14.9046 10.331V10.3602C14.9104 10.4302 14.9221 10.5002 14.9221 10.5702C14.6532 10.6904 14.3938 10.8308 14.1462 10.9902C13.7661 11.2221 13.4104 11.4918 13.0846 11.7952C13.2169 11.0546 13.1682 10.293 12.9427 9.57532C12.7172 8.8576 12.3215 8.20505 11.7894 7.67327C11.2572 7.14149 10.6044 6.74625 9.88653 6.52122C9.16866 6.2962 8.40703 6.24806 7.66654 6.38092C6.92606 6.51377 6.22867 6.82368 5.63381 7.28424C5.03894 7.74479 4.56424 8.34233 4.25016 9.02594C3.93608 9.70955 3.79192 10.459 3.82998 11.2103C3.86803 11.9617 4.08717 12.6927 4.46872 13.341C5.07625 14.36 6.04434 15.1137 7.18122 15.4527C7.35018 15.5005 7.52153 15.5395 7.69455 15.5694C8.51289 15.7125 9.35463 15.6338 10.1322 15.3415C10.9098 15.0491 11.5949 14.5537 12.1162 13.9069C12.1221 13.901 12.1221 13.901 12.1221 13.8952C12.1804 13.8252 12.2387 13.7494 12.2912 13.6735C12.2971 13.6677 12.2971 13.6619 12.3087 13.656C12.321 13.631 12.4884 13.3918 12.5012 13.3527C12.5012 13.3527 12.5047 13.3486 12.5071 13.3469C12.9472 12.6971 13.5028 12.1336 14.1462 11.6844C14.3 11.5746 14.4597 11.4734 14.6246 11.381C14.9782 11.1698 15.3537 10.9977 15.7446 10.8677C16.7448 10.5246 17.8139 10.4319 18.8583 10.5977C19.9027 10.7634 20.8905 11.1826 21.7354 11.8185L22.9196 10.6285H21.7471C21.6697 10.6285 21.5955 10.5978 21.5408 10.5431C21.4861 10.4884 21.4554 10.4142 21.4554 10.3369V9.14103C21.4554 9.06368 21.4861 8.98949 21.5408 8.93479C21.5955 8.8801 21.6697 8.84937 21.7471 8.84937H25.6671C25.7444 8.84937 25.8186 8.8801 25.8733 8.93479C25.928 8.98949 25.9587 9.06368 25.9587 9.14103Z" fill="#70A9ED"/>
</svg>
