<svg width="28" height="28" viewBox="0 0 28 28" fill="none" xmlns="http://www.w3.org/2000/svg">
<path d="M22.4825 18C22.3342 18.0001 22.1896 17.9521 22.0697 17.8628C21.9497 17.7735 21.8604 17.6475 21.8148 17.503C21.7691 17.3585 21.7694 17.2028 21.8155 17.0585C21.8617 16.9141 21.9514 16.7885 22.0717 16.6996L26.8882 13.1359C27.039 13.0244 27.2269 12.9788 27.4105 13.0092C27.5941 13.0396 27.7584 13.1434 27.8673 13.2978C27.9762 13.4523 28.0207 13.6447 27.991 13.8327C27.9614 14.0208 27.86 14.1891 27.7092 14.3006L22.8926 17.8643C22.7732 17.9525 22.6297 18 22.4825 18ZM7.5154 17.9993C7.36808 17.9991 7.22458 17.9513 7.10525 17.8629L2.2908 14.3006C2.14 14.1891 2.03862 14.0208 2.00897 13.8327C1.97932 13.6447 2.02383 13.4523 2.1327 13.2978C2.24157 13.1434 2.40588 13.0396 2.5895 13.0092C2.77311 12.9788 2.96098 13.0244 3.11178 13.1359L7.92694 16.6989C8.04728 16.7878 8.13697 16.9135 8.18311 17.0579C8.22925 17.2024 8.22946 17.3581 8.18371 17.5026C8.13796 17.6472 8.04861 17.7732 7.92851 17.8624C7.80842 17.9517 7.66378 17.9996 7.5154 17.9993Z" fill="#70A9ED"/>
<path d="M27.1588 14C27.0318 14.0001 26.9073 13.9641 26.7988 13.8961C26.6902 13.828 26.6019 13.7305 26.5433 13.6141L14.9998 7.5201L3.45634 13.6141C3.37446 13.7766 3.23542 13.9005 3.06782 13.9602C2.90022 14.02 2.7168 14.0112 2.55531 13.9356L2.4056 13.864C2.28707 13.8082 2.18617 13.719 2.11446 13.6066C2.04275 13.4943 2.00315 13.3634 2.00018 13.2288C1.99721 13.0943 2.03101 12.9617 2.09769 12.8461C2.16437 12.7305 2.26124 12.6366 2.37719 12.5753L14.6845 6.07893C14.782 6.02706 14.8901 6 14.9998 6C15.1095 6 15.2177 6.02706 15.3152 6.07893L27.6225 12.576C27.7385 12.6373 27.8354 12.7311 27.9021 12.8466C27.9689 12.9622 28.0027 13.0948 27.9998 13.2293C27.9969 13.3639 27.9574 13.4948 27.8858 13.6072C27.8141 13.7196 27.7133 13.8088 27.5948 13.8647L27.4451 13.9363C27.3551 13.9783 27.2575 14.0001 27.1588 14Z" fill="#70A9ED"/>
<path d="M22.4148 24C22.2318 24 22.0564 23.9249 21.927 23.7913C21.7976 23.6576 21.725 23.4764 21.725 23.2875V14.9839C21.725 14.6213 21.4987 14.3142 21.2311 14.3142H8.87347C8.60583 14.3142 8.37958 14.6213 8.37958 14.9839V23.2875C8.37958 23.4764 8.30691 23.6576 8.17755 23.7913C8.04819 23.9249 7.87274 24 7.68979 24C7.50685 24 7.3314 23.9249 7.20204 23.7913C7.07267 23.6576 7 23.4764 7 23.2875V14.9839C7 13.829 7.84086 12.8892 8.87347 12.8892H21.2311C22.2658 12.8892 23.1046 13.829 23.1046 14.9839V23.2875C23.1046 23.4764 23.0319 23.6576 22.9025 23.7913C22.7732 23.9249 22.5977 24 22.4148 24ZM27.3102 20.0837C27.1273 20.0837 26.9518 20.0086 26.8225 19.875C26.6931 19.7414 26.6204 19.5601 26.6204 19.3712V13.7125C26.6204 13.5235 26.6931 13.3423 26.8225 13.2086C26.9518 13.075 27.1273 13 27.3102 13C27.4932 13 27.6686 13.075 27.798 13.2086C27.9273 13.3423 28 13.5235 28 13.7125V19.3712C28 19.5601 27.9273 19.7414 27.798 19.875C27.6686 20.0086 27.4932 20.0837 27.3102 20.0837Z" fill="#70A9ED"/>
<path d="M15 26C13.0034 26 11.1193 25.8184 9.69592 25.4892C8.44052 25.1987 7 24.7097 7 23.5C7 22.2903 8.43983 21.8013 9.69592 21.5108C11.1193 21.1816 13.0034 21 15 21C16.9966 21 18.8807 21.1816 20.3041 21.5108C21.5595 21.8013 23 22.2903 23 23.5C23 24.7097 21.5602 25.1987 20.3041 25.4892C18.88 25.8184 16.9959 26 15 26ZM8.68392 23.4984C9.53754 23.889 11.7007 24.3861 15 24.3861C18.2993 24.3861 20.4618 23.8906 21.3154 23.4984C20.4618 23.1086 18.2986 22.6107 15 22.6107C11.7014 22.6107 9.53685 23.1078 8.68324 23.5L8.68392 23.4984Z" fill="#70A9ED"/>
</svg>
