<svg width="76" height="76" viewBox="0 0 76 76" fill="none" xmlns="http://www.w3.org/2000/svg">
<rect width="76" height="76" rx="38" fill="#D6D7FF"/>
<path d="M30.2433 44.9736C30.8944 44.9736 31.5189 44.715 31.9793 44.2545C32.4397 43.7941 32.6984 43.1697 32.6984 42.5186C32.7064 42.4369 32.7064 42.3547 32.6984 42.273L37.2648 37.7066H37.6412H38.0177L40.6528 40.3417C40.6528 40.3417 40.6528 40.4236 40.6528 40.4727C40.6528 41.1238 40.9114 41.7482 41.3718 42.2087C41.8322 42.6691 42.4567 42.9277 43.1078 42.9277C43.7589 42.9277 44.3834 42.6691 44.8438 42.2087C45.3042 41.7482 45.5629 41.1238 45.5629 40.4727V40.3417L51.5205 34.335C52.006 34.335 52.4807 34.191 52.8844 33.9213C53.2882 33.6515 53.6028 33.2681 53.7887 32.8195C53.9745 32.3709 54.0231 31.8773 53.9284 31.401C53.8336 30.9248 53.5998 30.4873 53.2565 30.144C52.9131 29.8006 52.4757 29.5668 51.9994 29.4721C51.5232 29.3774 51.0296 29.426 50.581 29.6118C50.1324 29.7976 49.7489 30.1123 49.4792 30.516C49.2094 30.9198 49.0654 31.3944 49.0654 31.88C49.0574 31.9616 49.0574 32.0438 49.0654 32.1255L43.1569 38.034H42.8951L40.0636 35.1534C40.0636 34.5023 39.8049 33.8778 39.3445 33.4174C38.8841 32.957 38.2596 32.6983 37.6085 32.6983C36.9574 32.6983 36.3329 32.957 35.8725 33.4174C35.4121 33.8778 35.1534 34.5023 35.1534 35.1534L30.2433 40.0635C29.5922 40.0635 28.9678 40.3222 28.5073 40.7826C28.0469 41.243 27.7883 41.8674 27.7883 42.5186C27.7883 43.1697 28.0469 43.7941 28.5073 44.2545C28.9678 44.715 29.5922 44.9736 30.2433 44.9736ZM52.3388 51.5204H24.5149V23.6965C24.5149 23.2624 24.3424 22.8461 24.0355 22.5391C23.7285 22.2322 23.3122 22.0598 22.8782 22.0598C22.4441 22.0598 22.0278 22.2322 21.7208 22.5391C21.4139 22.8461 21.2415 23.2624 21.2415 23.6965V53.1571C21.2415 53.5912 21.4139 54.0075 21.7208 54.3145C22.0278 54.6214 22.4441 54.7938 22.8782 54.7938H52.3388C52.7729 54.7938 53.1892 54.6214 53.4962 54.3145C53.8031 54.0075 53.9755 53.5912 53.9755 53.1571C53.9755 52.723 53.8031 52.3067 53.4962 51.9998C53.1892 51.6929 52.7729 51.5204 52.3388 51.5204Z" fill="#9A9DF2"/>
</svg>
