<svg width="76" height="76" viewBox="0 0 76 76" fill="none" xmlns="http://www.w3.org/2000/svg">
<rect width="76" height="76" rx="38" fill="#D6EAF4"/>
<g clip-path="url(#clip0_2003_8366)">
<path d="M37.0032 15.3708V18.4546C32.2205 18.8056 27.7235 20.8648 24.3331 24.2563C20.9426 27.6478 18.8848 32.1455 18.5352 36.9283H15.3708V39.8103H18.5352C18.8867 44.5919 20.9453 49.0879 24.3355 52.4781C27.7257 55.8683 32.2217 57.9269 37.0032 58.2783V61.4831H39.8853V58.2755C44.6669 57.924 49.1628 55.8654 52.553 52.4752C55.9433 49.085 58.0018 44.5891 58.3533 39.8075H61.4831V36.9254H58.3533C58.0031 32.1431 55.945 27.6462 52.5546 24.2552C49.1642 20.8643 44.6675 18.8055 39.8853 18.4546V15.3708H37.0032ZM37.0032 21.3308V24.1638C33.733 24.5006 30.6785 25.9532 28.3533 28.2773C26.0281 30.6015 24.5742 33.6553 24.2359 36.9254H21.4173C21.7511 32.9029 23.5002 29.1289 26.3538 26.2742C29.2075 23.4195 32.9808 21.6661 37.0032 21.3308ZM39.8853 21.3308C43.9077 21.6661 47.6811 23.4166 50.5347 26.2713C53.3883 29.126 55.1375 32.9 55.4712 36.9226H52.6469C52.3092 33.6535 50.8562 30.6004 48.532 28.2767C46.2079 25.9531 43.1544 24.5007 39.8853 24.1638V21.3308ZM37.0032 27.1179V29.9394C35.2604 30.2411 33.6536 31.0744 32.4029 32.3251C31.1522 33.5757 30.3189 35.1826 30.0172 36.9254H27.1928C27.5039 34.4322 28.6376 32.114 30.4144 30.3376C32.1913 28.5612 34.5099 27.4282 37.0032 27.1179ZM39.8853 27.1179C42.3779 27.4284 44.6957 28.5617 46.4717 30.3381C48.2476 32.1146 49.3801 34.4327 49.6899 36.9254H46.8713C46.5696 35.1826 45.7363 33.5757 44.4856 32.3251C43.235 31.0744 41.6281 30.2411 39.8853 29.9394V27.1179ZM37.8102 32.7379H39.0783C41.8739 33.0462 44.0325 35.3317 44.119 38.1906V38.5394C44.0864 39.8269 43.6149 41.0646 42.7825 42.0475C41.9502 43.0303 40.8069 43.6991 39.5423 43.9432H37.3462C36.2709 43.7363 35.2789 43.2214 34.491 42.461C33.703 41.7007 33.153 40.7277 32.9079 39.6605V37.0667C33.1729 35.9249 33.7872 34.8941 34.6653 34.1177C35.5434 33.3414 36.6417 32.858 37.8073 32.735L37.8102 32.7379ZM38.4443 35.4988C36.8764 35.4988 35.5738 36.7986 35.5738 38.3664C35.5738 39.9314 36.8764 41.2369 38.4443 41.2369C40.0092 41.2369 41.309 39.9314 41.309 38.3664C41.309 36.7986 40.0121 35.4988 38.4443 35.4988ZM38.427 38.352H38.4443C38.4356 38.352 38.4558 38.3809 38.4558 38.352C38.4558 38.352 38.4356 38.3809 38.4443 38.3809C38.4529 38.3809 38.427 38.352 38.427 38.352ZM21.4173 39.8075H24.2359C24.5758 43.0766 26.0304 46.1293 28.3553 48.4526C30.6802 50.7759 33.7338 52.2284 37.0032 52.5662V55.3905C32.9826 55.0557 29.2107 53.3068 26.3573 50.4544C23.5039 47.6021 21.7536 43.828 21.4173 39.8075ZM27.1928 39.8075H30.0172C30.3202 41.5494 31.154 43.1552 32.4045 44.4052C33.655 45.6552 35.2612 46.4883 37.0032 46.7906V49.615C34.5109 49.3034 32.1935 48.1703 30.4169 46.3948C28.6403 44.6193 27.5059 42.2996 27.1928 39.8075ZM46.8713 39.8075H49.6899C49.3788 42.3 48.2459 44.6177 46.4703 46.3944C44.6947 48.171 42.3776 49.3053 39.8853 49.6179V46.7935C41.6278 46.491 43.2342 45.6575 44.4847 44.4069C45.7353 43.1564 46.5688 41.5499 46.8713 39.8075ZM52.6469 39.8075H55.4712C55.1362 43.829 53.3865 47.6016 50.5329 50.4551C47.6794 53.3087 43.9068 55.0584 39.8853 55.3934V52.569C43.1545 52.231 46.2077 50.7779 48.5317 48.4539C50.8557 46.1299 52.3088 43.0767 52.6469 39.8075Z" fill="#87C1DE"/>
</g>
<defs>
<clipPath id="clip0_2003_8366">
<rect width="46.1124" height="46.1124" fill="white" transform="translate(15.3708 15.3708)"/>
</clipPath>
</defs>
</svg>
