<svg width="20" height="20" viewBox="0 0 20 20" fill="none" xmlns="http://www.w3.org/2000/svg">
<path d="M11.0219 5H12.0219C12.287 5.00034 12.5411 5.10581 12.7286 5.29327C12.916 5.48073 13.0215 5.73489 13.0219 6V7C13.0219 7.26521 13.1272 7.51957 13.3148 7.7071C13.5023 7.89464 13.7566 8 14.0219 8C14.2871 8 14.5414 7.89464 14.729 7.7071C14.9165 7.51957 15.0219 7.26521 15.0219 7V6C15.021 5.20461 14.7046 4.44206 14.1422 3.87964C13.5798 3.31722 12.8172 3.00087 12.0219 3H11.0219C10.7566 3 10.5023 3.10535 10.3148 3.29289C10.1272 3.48043 10.0219 3.73478 10.0219 4C10.0219 4.26521 10.1272 4.51957 10.3148 4.7071C10.5023 4.89464 10.7566 5 11.0219 5ZM7.02186 14H6.02186C5.75675 13.9997 5.50259 13.8942 5.31513 13.7067C5.12767 13.5193 5.0222 13.2651 5.02186 13V12C5.02186 11.7348 4.9165 11.4804 4.72897 11.2929C4.54143 11.1054 4.28708 11 4.02186 11C3.75664 11 3.50229 11.1054 3.31475 11.2929C3.12722 11.4804 3.02186 11.7348 3.02186 12V13C3.02273 13.7954 3.33908 14.5579 3.9015 15.1204C4.46392 15.6828 5.22648 15.9991 6.02186 16H7.02186C7.28708 16 7.54143 15.8946 7.72897 15.7071C7.9165 15.5196 8.02186 15.2652 8.02186 15C8.02186 14.7348 7.9165 14.4804 7.72897 14.2929C7.54143 14.1054 7.28708 14 7.02186 14ZM18.0219 13C18.2871 13 18.5414 12.8946 18.729 12.7071C18.9165 12.5196 19.0219 12.2652 19.0219 12C19.0219 11.7348 18.9165 11.4804 18.729 11.2929C18.5414 11.1054 18.2871 11 18.0219 11H15.0219V10.5C15.0219 10.2348 14.9165 9.98043 14.729 9.79289C14.5414 9.60535 14.2871 9.5 14.0219 9.5C13.7566 9.5 13.5023 9.60535 13.3148 9.79289C13.1272 9.98043 13.0219 10.2348 13.0219 10.5V11H10.0219C9.75664 11 9.50229 11.1054 9.31475 11.2929C9.12722 11.4804 9.02186 11.7348 9.02186 12C9.02186 12.2652 9.12722 12.5196 9.31475 12.7071C9.50229 12.8946 9.75664 13 10.0219 13H15.2061C14.9799 13.9191 14.5623 14.78 13.9806 15.5267C13.7426 15.2181 13.532 14.8893 13.3514 14.5439C13.2916 14.4271 13.2092 14.3232 13.1092 14.2382C13.0092 14.1532 12.8934 14.0887 12.7684 14.0484C12.6434 14.0082 12.5118 13.9929 12.3809 14.0035C12.2501 14.0142 12.1226 14.0505 12.0058 14.1104C11.8889 14.1702 11.785 14.2526 11.7 14.3526C11.615 14.4526 11.5505 14.5684 11.5103 14.6934C11.4289 14.9458 11.4512 15.2201 11.5722 15.456C11.8415 15.9765 12.1628 16.4684 12.5313 16.924C11.8057 17.4508 10.9807 17.8247 10.1063 18.023C9.84765 18.0801 9.6222 18.2374 9.47941 18.4605C9.33663 18.6836 9.28817 18.9542 9.34468 19.213C9.4012 19.4717 9.55806 19.6975 9.78085 19.8408C10.0036 19.984 10.2742 20.0331 10.5331 19.9771C11.7877 19.6996 12.9647 19.1456 13.9781 18.3555C14.9999 19.146 16.1847 19.6997 17.4466 19.9766C17.5749 20.0049 17.7074 20.0076 17.8367 19.9847C17.966 19.9617 18.0896 19.9135 18.2002 19.8428C18.3109 19.7722 18.4066 19.6804 18.4818 19.5727C18.557 19.465 18.6102 19.3436 18.6385 19.2154C18.6668 19.0871 18.6695 18.9546 18.6466 18.8253C18.6236 18.696 18.5754 18.5725 18.5048 18.4618C18.4341 18.3511 18.3423 18.2554 18.2346 18.1802C18.127 18.105 18.0055 18.0518 17.8773 18.0235C16.9971 17.8278 16.1652 17.4571 15.4312 16.9334C16.3559 15.7952 16.9792 14.4425 17.2436 13H18.0219ZM6.05162 9.24268C6.11664 9.49929 6.28074 9.71965 6.50796 9.85547C6.73517 9.9913 7.00697 10.0315 7.26378 9.96726C7.52058 9.90303 7.74145 9.7396 7.87796 9.51279C8.01448 9.28599 8.0555 9.01432 7.99205 8.75732L6.23472 1.72754C6.11129 1.23408 5.82646 0.796036 5.42551 0.483026C5.02456 0.170016 4.53049 0 4.02183 0C3.51317 0 3.0191 0.170016 2.61815 0.483026C2.2172 0.796036 1.93237 1.23408 1.80894 1.72754L0.0516196 8.75732C-0.0118327 9.01432 0.0291944 9.28599 0.165708 9.51279C0.302222 9.7396 0.523087 9.90303 0.779893 9.96726C1.0367 10.0315 1.3085 9.9913 1.53571 9.85547C1.76293 9.71965 1.92703 9.49929 1.99205 9.24268L2.55266 7H5.49101L6.05162 9.24268ZM3.05266 5L3.74937 2.21289C3.7703 2.15756 3.80758 2.10991 3.85625 2.07628C3.90492 2.04266 3.96267 2.02465 4.02183 2.02465C4.08099 2.02465 4.13874 2.04266 4.18741 2.07628C4.23608 2.10991 4.27336 2.15756 4.29429 2.21289L4.99101 5H3.05266Z" fill="#70A9ED"/>
</svg>
