<svg width="24" height="24" viewBox="0 0 24 24" fill="none" xmlns="http://www.w3.org/2000/svg">
<g clip-path="url(#clip0_247_562)">
<path d="M11.9911 -0.00292969C8.2711 -0.00292969 5.2411 3.02707 5.2411 6.74707C5.24031 6.82749 5.25247 6.90751 5.2771 6.98407C5.3401 9.35257 6.3661 11.4241 7.5721 13.3441C8.8201 15.3286 10.2646 17.1886 11.1916 19.0876C11.2525 19.2127 11.3471 19.3184 11.4647 19.3928C11.5823 19.4673 11.7183 19.5075 11.8575 19.5091C11.9966 19.5106 12.1335 19.4734 12.2527 19.4016C12.372 19.3299 12.4689 19.2263 12.5326 19.1026C13.5076 17.2051 15.0256 15.3421 16.3366 13.3591C17.6461 11.3761 18.7651 9.23407 18.7651 6.75907C18.7665 6.66377 18.7497 6.56908 18.7156 6.48007C18.5701 2.88757 15.6196 -0.00292969 11.9911 -0.00292969ZM11.9911 1.49707C14.9011 1.49707 17.2411 3.83857 17.2411 6.74707C17.2403 6.80095 17.2453 6.85476 17.2561 6.90757C17.2111 8.86957 16.3051 10.6876 15.0856 12.5326C14.0536 14.0941 12.8866 15.7066 11.8801 17.3821C10.9246 15.7141 9.8236 14.1046 8.8441 12.5476C7.6546 10.6531 6.7651 8.79007 6.7651 6.75757C6.76491 6.7138 6.7609 6.67014 6.7531 6.62707C6.77983 5.25617 7.34365 3.95055 8.32326 2.99115C9.30286 2.03174 10.6199 1.49524 11.9911 1.49707ZM11.9911 4.50007C10.7581 4.50007 9.7411 5.51707 9.7411 6.75007C9.7411 7.98307 10.7581 9.00007 11.9911 9.00007C13.2256 9.00007 14.2411 7.98307 14.2411 6.75007C14.2411 5.51707 13.2256 4.50007 11.9911 4.50007ZM11.9911 6.00007C12.4141 6.00007 12.7411 6.32707 12.7411 6.75007C12.7411 7.17307 12.4141 7.50007 11.9911 7.50007C11.8922 7.50148 11.7941 7.48305 11.7024 7.44586C11.6108 7.40867 11.5275 7.35348 11.4576 7.28355C11.3877 7.21362 11.3325 7.13038 11.2953 7.03875C11.2581 6.94711 11.2397 6.84895 11.2411 6.75007C11.2411 6.32707 11.5681 6.00007 11.9911 6.00007ZM18.1261 13.8406C17.9513 13.841 17.7822 13.9024 17.6479 14.0143C17.5136 14.1261 17.4226 14.2814 17.3906 14.4532C17.3586 14.625 17.3876 14.8026 17.4726 14.9553C17.5576 15.108 17.6932 15.2262 17.8561 15.2896C19.3516 15.8956 20.3131 16.6891 20.7271 17.4196C21.1426 18.1501 21.1321 18.7816 20.5906 19.5586C19.5031 21.1126 16.0366 22.4896 12.0796 22.5061C8.1211 22.5211 4.6066 21.1816 3.4576 19.6231C2.8831 18.8431 2.8546 18.2086 3.2401 17.4811C3.6271 16.7551 4.5526 15.9541 6.0241 15.3361C6.11915 15.301 6.20612 15.2471 6.27976 15.1775C6.3534 15.1079 6.41218 15.0242 6.45256 14.9313C6.49293 14.8383 6.51406 14.7382 6.51468 14.6369C6.51529 14.5356 6.49537 14.4352 6.45613 14.3418C6.41688 14.2484 6.35912 14.1639 6.28633 14.0935C6.21354 14.023 6.12723 13.968 6.03261 13.9318C5.93798 13.8957 5.83701 13.879 5.73578 13.8829C5.63454 13.8868 5.53515 13.9112 5.4436 13.9546C3.7636 14.6596 2.5381 15.6076 1.9156 16.7791C1.2931 17.9491 1.4011 19.3621 2.2501 20.5141C3.9481 22.8151 7.8166 24.0241 12.0886 24.0061C16.3591 23.9881 20.1916 22.7506 21.8206 20.4211C22.6351 19.2556 22.6906 17.8366 22.0306 16.6786C21.3736 15.5206 20.1211 14.5876 18.4186 13.8991C18.3261 13.8597 18.2266 13.8393 18.1261 13.8391V13.8406Z" fill="#70A9ED"/>
</g>
<defs>
<clipPath id="clip0_247_562">
<rect width="24" height="24" fill="white"/>
</clipPath>
</defs>
</svg>
