<?xml version="1.0" encoding="UTF-8" standalone="no"?>
<!-- Created with Inkscape (http://www.inkscape.org/) -->

<svg
   width="37.272377mm"
   height="11.798299mm"
   viewBox="0 0 37.272377 11.798299"
   version="1.1"
   id="svg1"
   inkscape:version="1.3.2 (1:1.3.2+202311252150+091e20ef0f)"
   sodipodi:docname="mce_lot_writing.svg"
   xmlns:inkscape="http://www.inkscape.org/namespaces/inkscape"
   xmlns:sodipodi="http://sodipodi.sourceforge.net/DTD/sodipodi-0.dtd"
   xmlns="http://www.w3.org/2000/svg"
   xmlns:svg="http://www.w3.org/2000/svg">
  <sodipodi:namedview
     id="namedview1"
     pagecolor="#ffffff"
     bordercolor="#000000"
     borderopacity="0.25"
     inkscape:showpageshadow="2"
     inkscape:pageopacity="0.0"
     inkscape:pagecheckerboard="0"
     inkscape:deskcolor="#d1d1d1"
     inkscape:document-units="mm"
     inkscape:zoom="1.7033109"
     inkscape:cx="396.58057"
     inkscape:cy="561.25984"
     inkscape:window-width="3840"
     inkscape:window-height="2111"
     inkscape:window-x="0"
     inkscape:window-y="25"
     inkscape:window-maximized="1"
     inkscape:current-layer="layer1" />
  <defs
     id="defs1" />
  <g
     inkscape:label="Layer 1"
     inkscape:groupmode="layer"
     id="layer1"
     transform="translate(-30.162499,-46.037501)">
    <g
       id="g1">
      <path
         fill="#025695"
         d="m 46.438079,46.113435 h 0.699029 v 3.327929 h -0.774964 v -2.08227 l -0.979488,1.198033 h -0.152135 l -0.988748,-1.202796 v 2.087033 h -0.774965 v -3.327929 h 0.698765 l 1.136385,1.416844 z m 2.947458,0.979488 h 0.808303 l -1.464205,3.366029 h -0.794014 l 0.456406,-1.050661 -0.912812,-2.315368 h 0.803539 l 0.270933,0.741627 0.256646,0.765439 0.275696,-0.765439 z m 3.775869,2.424641 c -0.358246,0 -0.673629,-0.07302 -0.94615,-0.21881 A 1.5591896,1.5591896 0 0 1 51.587665,48.68545 c -0.145786,-0.262996 -0.218546,-0.565679 -0.218546,-0.90805 0,-0.342371 0.07435,-0.645054 0.223308,-0.90805 a 1.5504583,1.5504583 0 0 1 0.632354,-0.613304 c 0.269346,-0.145521 0.576792,-0.218546 0.922338,-0.218546 0.491331,0 0.912812,0.172508 1.264708,0.518054 l -0.480219,0.480219 c -0.21246,-0.202936 -0.467518,-0.304271 -0.765439,-0.304271 -0.199761,0 -0.377296,0.04445 -0.532607,0.133085 a 0.90090625,0.90090625 0 0 0 -0.356393,0.366184 c -0.08255,0.158485 -0.123825,0.340783 -0.123825,0.546629 0,0.20611 0.04127,0.388408 0.123825,0.546893 a 0.93318542,0.93318542 0 0 0 0.356393,0.370682 c 0.155311,0.08573 0.332846,0.128323 0.532607,0.128323 0.158485,0 0.310621,-0.02858 0.456406,-0.08546 a 1.0951104,1.0951104 0 0 0 0.380206,-0.247121 l 0.456406,0.50853 c -0.357981,0.345545 -0.790574,0.518318 -1.297781,0.518317 z m 4.062148,-2.424641 v 2.348441 h -0.646642 l -0.04736,-0.280458 c -0.19976,0.21881 -0.459581,0.328083 -0.779727,0.328083 -0.21881,0 -0.413808,-0.0508 -0.584994,-0.152135 A 1.0863792,1.0863792 0 0 1 54.770337,48.90426 c -0.09499,-0.18706 -0.14261,-0.399521 -0.14261,-0.637117 0,-0.237595 0.04762,-0.448468 0.14261,-0.632354 0.09499,-0.18706 0.226748,-0.331258 0.394494,-0.432593 0.171186,-0.104511 0.366184,-0.156898 0.584994,-0.156898 0.158485,0 0.304271,0.02857 0.437356,0.08546 0.133086,0.05398 0.247121,0.13335 0.342371,0.23786 l 0.04736,-0.275695 z m -1.298046,1.768475 c 0.164836,0 0.299773,-0.05398 0.404284,-0.161396 0.10451,-0.111125 0.156898,-0.255323 0.156898,-0.432859 0,-0.17727 -0.05239,-0.320145 -0.156898,-0.427831 -0.104511,-0.111125 -0.239448,-0.166687 -0.404284,-0.166687 -0.164571,0 -0.299508,0.05556 -0.404018,0.166687 -0.101336,0.110861 -0.152136,0.253471 -0.152136,0.427831 0,0.174361 0.0508,0.316971 0.152136,0.427832 0.10451,0.111125 0.239447,0.166687 0.404018,0.166687 z m 3.193786,-1.820863 c 0.107685,0 0.215635,0.02064 0.323321,0.06191 0.107685,0.03783 0.201083,0.09498 0.280458,0.171185 l -0.313796,0.546629 a 0.89905417,0.89905417 0 0 0 -0.185473,-0.09022 0.56620833,0.56620833 0 0 0 -0.18071,-0.02857 c -0.158486,0 -0.283634,0.05054 -0.375444,0.152136 -0.09208,0.101335 -0.137848,0.250296 -0.137848,0.446881 v 1.140883 h -0.74639 v -2.348441 h 0.65114 l 0.05715,0.294745 c 0.152135,-0.23151 0.361421,-0.347132 0.627592,-0.347132 z m 1.926696,0 c 0.256645,0 0.478631,0.04921 0.665427,0.147373 a 0.98954167,0.98954167 0 0 1 0.428095,0.408781 c 0.101336,0.174625 0.152136,0.378884 0.152136,0.613304 0,0.0762 -0.0079,0.169598 -0.02381,0.280459 h -1.725877 c 0.02222,0.12065 0.08705,0.21881 0.194998,0.29501 0.107686,0.07276 0.245534,0.109273 0.413544,0.109273 a 1.1350625,1.1350625 0 0 0 0.342371,-0.05239 0.87047917,0.87047917 0 0 0 0.285221,-0.147373 l 0.389731,0.418306 a 1.3790083,1.3790083 0 0 1 -0.475456,0.285485 1.6634354,1.6634354 0 0 1 -0.579967,0.09975 c -0.272521,0 -0.508529,-0.04921 -0.70829,-0.147373 a 1.095375,1.095375 0 0 1 -0.461168,-0.427831 c -0.107686,-0.183885 -0.161661,-0.401108 -0.161661,-0.651404 0,-0.240771 0.05239,-0.455083 0.156898,-0.641879 a 1.1070167,1.1070167 0 0 1 0.446881,-0.432594 c 0.190236,-0.10451 0.410369,-0.156898 0.66093,-0.156898 z m 0.02381,0.589492 c -0.149225,0 -0.271198,0.0381 -0.366183,0.114035 -0.09181,0.0762 -0.144198,0.182563 -0.156898,0.318559 h 1.036373 c -0.0095,-0.136261 -0.06006,-0.242359 -0.152136,-0.318559 -0.08863,-0.07594 -0.209021,-0.113771 -0.361156,-0.113771 z m 2.766483,-0.589492 c 0.256646,0 0.478632,0.04921 0.665692,0.147373 a 0.9921875,0.9921875 0 0 1 0.427831,0.408781 c 0.101336,0.174625 0.152136,0.378884 0.152136,0.613304 0,0.0762 -0.0079,0.169598 -0.02381,0.280459 h -1.725877 c 0.02223,0.12065 0.08731,0.21881 0.194998,0.29501 0.107685,0.07276 0.245533,0.109273 0.413544,0.109273 a 1.1350625,1.1350625 0 0 0 0.342371,-0.05239 0.86783333,0.86783333 0 0 0 0.28522,-0.147373 l 0.389996,0.418306 a 1.3837708,1.3837708 0 0 1 -0.475456,0.285485 1.6658167,1.6658167 0 0 1 -0.580231,0.09975 c -0.272521,0 -0.508529,-0.04921 -0.70829,-0.147373 a 1.095375,1.095375 0 0 1 -0.461169,-0.427831 c -0.107685,-0.183885 -0.16166,-0.401108 -0.16166,-0.651404 0,-0.240771 0.05239,-0.455083 0.156898,-0.641879 a 1.1070167,1.1070167 0 0 1 0.446881,-0.432594 c 0.190236,-0.10451 0.410634,-0.156898 0.660929,-0.156898 z m 0.02381,0.589492 c -0.148961,0 -0.271198,0.0381 -0.366183,0.114035 -0.09181,0.0762 -0.144198,0.182563 -0.156898,0.318559 h 1.036373 c -0.0095,-0.136261 -0.06006,-0.242359 -0.152136,-0.318559 -0.08863,-0.07594 -0.209021,-0.113771 -0.361156,-0.113771 z m 2.971006,-0.589492 a 0.89958333,0.89958333 0 0 1 0.323321,0.06191 c 0.107685,0.03783 0.201083,0.09498 0.280458,0.171185 l -0.313796,0.546629 a 0.89905417,0.89905417 0 0 0 -0.185472,-0.09022 0.56753125,0.56753125 0 0 0 -0.180711,-0.02857 c -0.158485,0 -0.283633,0.05054 -0.375444,0.152136 -0.09208,0.101335 -0.137848,0.250296 -0.137848,0.446881 v 1.140883 h -0.746654 v -2.348441 h 0.651404 l 0.05715,0.294745 c 0.152136,-0.23151 0.361157,-0.347132 0.627592,-0.347132 z"
         id="path2"
         style="stroke-width:0.264583" />
      <path
         fill="#102752"
         d="m 44.606898,55.313527 h 2.765954 v 0.988748 h -3.90525 v -5.015971 h 3.826404 v 0.981604 h -2.687108 v 1.017588 h 2.543704 v 0.945885 h -2.543704 z m 5.961856,-0.809625 1.189567,1.798373 h -1.289844 l -0.307975,-0.508794 -0.351102,-0.594783 -0.351102,0.594783 -0.322527,0.508794 h -1.268413 l 1.189567,-1.798638 -1.096433,-1.740958 h 1.268412 l 0.329671,0.537104 0.257969,0.487363 0.272256,-0.487363 0.329671,-0.537104 h 1.239573 l -1.08929,1.740958 z m 4.004469,-1.81319 c 0.329671,0 0.623358,0.07885 0.881327,0.236538 0.257969,0.152929 0.458787,0.370416 0.601927,0.652198 0.143404,0.277018 0.215106,0.594783 0.215106,0.953029 0,0.358246 -0.0717,0.678127 -0.215106,0.960173 a 1.6184562,1.6184562 0 0 1 -0.601927,0.651933 c -0.257969,0.152929 -0.551656,0.229394 -0.881327,0.229394 -0.439473,0 -0.804863,-0.138642 -1.096433,-0.415396 V 57.8358 h -1.125009 v -5.073386 h 0.974725 l 0.0717,0.415661 c 0.296069,-0.324909 0.687917,-0.487363 1.175015,-0.487363 z m -0.265113,2.737379 c 0.248444,0 0.45138,-0.08123 0.609071,-0.243416 0.157692,-0.167482 0.236538,-0.384704 0.236538,-0.652198 0,-0.267494 -0.07885,-0.4826 -0.236538,-0.645054 -0.157691,-0.167217 -0.360627,-0.250825 -0.609071,-0.250825 -0.248443,0 -0.451379,0.08361 -0.60907,0.250825 -0.15293,0.167216 -0.229394,0.382323 -0.229394,0.645054 0,0.262731 0.07646,0.477573 0.229394,0.644789 0.157691,0.167217 0.360627,0.250825 0.60907,0.250825 z m 4.455319,-2.744523 c 0.386821,0 0.721254,0.07408 1.003036,0.22225 0.282045,0.14314 0.496887,0.348721 0.645054,0.616215 0.152929,0.262731 0.229129,0.570971 0.229129,0.924454 0,0.114565 -0.01191,0.255588 -0.03572,0.422804 H 58.00381 c 0.03334,0.181505 0.131234,0.329407 0.293688,0.444236 0.162454,0.109802 0.370417,0.164835 0.623623,0.164835 0.176741,0 0.348721,-0.02646 0.515937,-0.07885 a 1.3123333,1.3123333 0 0 0 0.429948,-0.22225 l 0.587375,0.630502 c -0.200554,0.186532 -0.439473,0.329671 -0.716491,0.429948 a 2.5087792,2.5087792 0 0 1 -0.874184,0.150813 c -0.410898,0 -0.766762,-0.07408 -1.067594,-0.22225 -0.301095,-0.152929 -0.53287,-0.367771 -0.695325,-0.645054 -0.162189,-0.277019 -0.243416,-0.604309 -0.243416,-0.981604 0,-0.363009 0.07885,-0.685536 0.236273,-0.967317 a 1.6705792,1.6705792 0 0 1 0.673629,-0.652198 c 0.286808,-0.157692 0.618596,-0.236538 0.996156,-0.236538 z m 0.03572,0.888736 c -0.224367,0 -0.408517,0.05715 -0.551656,0.171979 -0.138642,0.114565 -0.217488,0.274638 -0.236538,0.479954 h 1.5621 c -0.01429,-0.205316 -0.09075,-0.365389 -0.229394,-0.479954 -0.133614,-0.114829 -0.315118,-0.171979 -0.544512,-0.171979 z m 4.628356,-0.888736 c 0.162454,0 0.324908,0.03122 0.487363,0.09313 a 1.1580812,1.1580812 0 0 1 0.422804,0.257969 l -0.473075,0.824177 a 1.3512271,1.3512271 0 0 0 -0.2794,-0.136261 0.8556625,0.8556625 0 0 0 -0.272256,-0.04286 c -0.238919,0 -0.427567,0.07646 -0.565944,0.229393 -0.138642,0.152665 -0.207963,0.377296 -0.207963,0.673365 v 1.719792 h -1.125008 v -3.539861 h 0.981604 l 0.08599,0.4445 c 0.229393,-0.348985 0.544777,-0.523346 0.945885,-0.523346 z m 3.976688,3.482711 c -0.277019,0.138377 -0.590021,0.207698 -0.938742,0.207698 -0.387085,0 -0.692679,-0.107421 -0.91731,-0.322527 -0.224367,-0.219604 -0.336815,-0.570707 -0.336815,-1.053042 v -1.340115 h -0.601927 v -0.895879 h 0.601927 v -0.881327 l 1.117865,-0.121708 v 1.003035 h 0.881591 v 0.895879 H 66.32919 v 1.33985 c 0,0.143405 0.03598,0.250825 0.107685,0.322528 0.07144,0.06694 0.169598,0.100277 0.293687,0.100277 0.138642,0 0.274638,-0.03334 0.408517,-0.100542 z"
         id="path3"
         style="stroke-width:0.264583" />
      <path
         fill="#015696"
         d="m 34.50352,56.563154 2.91544,-2.915444 0.12965,-0.129646 h -4.34102 v -4.405312 l -3.04509,3.04456 v 4.405577 h 4.34102 z"
         id="path4"
         style="stroke-width:0.264583" />
      <path
         fill="#121331"
         fill-rule="evenodd"
         d="m 33.841,49.001098 2.91545,-2.915709 h 4.341015 v 4.405842 l -3.045085,3.04509 V 49.444804 L 39.866358,47.18685 37.79255,49.130479 H 33.71162 L 33.841,49.000833 Z m 3.95155,0.129645 -2.20212,2.06375 -1.74943,-1.221581 1.74943,2.535767 2.46195,-3.063875 v -0.314325 h -0.25983 z"
         clip-rule="evenodd"
         id="path5"
         style="stroke-width:0.264583" />
      <path
         fill="#121331"
         fill-rule="evenodd"
         d="m 37.95369,53.425989 -1.79785,-1.797843 -0.16933,0.23442 1.96718,1.563688 z m -4.65111,0 1.79784,-1.797843 0.16933,0.23442 -1.96717,1.563688 z"
         clip-rule="evenodd"
         id="path6"
         style="stroke-width:0.264583" />
    </g>
  </g>
</svg>
