<svg width="75" height="73" viewBox="0 0 75 73" fill="none" xmlns="http://www.w3.org/2000/svg">
<path opacity="0.2" d="M33.2719 0L5.24561 28.1975L4 29.4507H45.7281V72.0603L75 42.6096V0H33.2719Z" fill="#015696"/>
<path d="M35.8755 65.0547L54.6053 46.3248L55.4377 45.4924H27.5511V17.1895L7.9888 36.7518V65.0547H35.8755Z" fill="#DEF1FF"/>
<path d="M64.75 63.5623H19.25C18.8125 63.5623 18.375 63.2123 18.375 62.6873V49.2998C18.375 45.7123 20.475 42.4748 23.8 40.9873C27.125 39.4998 30.45 38.4498 33.6875 37.7498C34.0375 37.6623 34.475 37.8373 34.65 38.1873L42 53.7623L49.35 38.2748C49.525 37.9248 49.875 37.7498 50.3125 37.8373C53.55 38.5373 56.875 39.5873 60.2 41.0748C63.525 42.5623 65.625 45.7998 65.625 49.3873V62.7748C65.625 63.2123 65.1875 63.5623 64.75 63.5623ZM20.0375 61.8998H63.875V49.2998C63.875 46.4123 62.125 43.6998 59.4125 42.4748C56.4375 41.1623 53.4625 40.1123 50.575 39.4998L42.7 55.9498C42.525 56.2123 42.2625 56.3873 41.9125 56.3873C41.5625 56.3873 41.3 56.2123 41.125 55.9498L33.25 39.4998C30.3625 40.1123 27.3 41.1623 24.4125 42.4748C21.7 43.6998 19.95 46.3248 19.95 49.2998V61.8998H20.0375Z" fill="#015696"/>
<path d="M43.9251 42.8248H39.9876C39.6376 42.8248 39.2876 42.5623 39.2001 42.2123L38.3251 38.5373C38.2376 38.2748 38.3251 38.0123 38.5001 37.8373C38.6751 37.6623 38.9376 37.4873 39.2001 37.4873H44.8876C45.1501 37.4873 45.4126 37.5748 45.5876 37.8373C45.7626 38.0123 45.7626 38.2748 45.7626 38.5373L44.8876 42.2123C44.7126 42.5623 44.3626 42.8248 43.9251 42.8248ZM40.6876 41.1623H43.3126L43.8376 39.1498H40.2501L40.6876 41.1623Z" fill="#015696"/>
<path d="M44.9749 50.2629C44.5374 50.2629 44.1874 49.9129 44.0999 49.4754L43.1374 42.1254C43.0499 41.6879 43.3999 41.2504 43.8374 41.1629C44.2749 41.0754 44.7124 41.4254 44.7999 41.8629L45.8499 49.2129V49.3004C45.8499 49.8254 45.4999 50.2629 44.9749 50.2629ZM39.0249 50.2629C38.5874 50.2629 38.1499 49.9129 38.1499 49.3879V49.3004L39.1999 41.9504C39.2874 41.5129 39.7249 41.1629 40.1624 41.2504C40.5999 41.3379 40.9499 41.7754 40.8624 42.2129L39.8124 49.5629C39.8124 49.9129 39.4624 50.2629 39.0249 50.2629ZM56.3499 63.5629C55.9124 63.5629 55.4749 63.2129 55.4749 62.6879V52.6254C55.4749 52.1879 55.8249 51.7504 56.3499 51.7504C56.7874 51.7504 57.2249 52.1004 57.2249 52.6254V62.7754C57.2249 63.2129 56.7874 63.5629 56.3499 63.5629ZM27.6499 63.5629C27.2124 63.5629 26.7749 63.2129 26.7749 62.6879V52.6254C26.7749 52.1879 27.1249 51.7504 27.6499 51.7504C28.0874 51.7504 28.5249 52.1004 28.5249 52.6254V62.7754C28.4374 63.2129 28.0874 63.5629 27.6499 63.5629Z" fill="#015696"/>
<path d="M42 35.9121C36.225 35.9121 30.625 28.1246 30.625 20.0746C30.625 12.9871 35.0875 8.34961 42 8.34961C48.9125 8.34961 53.375 12.8996 53.375 20.0746C53.375 28.1246 47.775 35.9121 42 35.9121ZM42 10.0996C37.275 10.0996 32.2875 12.7246 32.2875 20.0746C32.2875 27.0746 37.1875 34.2496 42 34.2496C46.8125 34.2496 51.7125 27.0746 51.7125 20.0746C51.7125 12.7246 46.725 10.0996 42 10.0996Z" fill="#015696"/>
<path d="M45.2375 19.55C43.75 19.55 42.4375 19.2875 41.3 18.675C40.1625 18.15 39.375 17.3625 38.85 16.8375C37.3625 18.5 34.65 19.725 31.4125 19.2875C30.975 19.2 30.625 18.85 30.7125 18.325C30.8 17.8875 31.2375 17.5375 31.675 17.625C35 18.0625 37.45 16.4 38.15 15C38.325 14.7375 38.5875 14.5625 38.9375 14.5625C39.2875 14.5625 39.55 14.7375 39.725 15.0875C39.8125 15.35 42.525 20.6 51.8875 16.225C52.325 16.05 52.7625 16.225 53.025 16.6625C53.2 17.1 53.025 17.5375 52.5875 17.8C49.875 18.9375 47.425 19.55 45.2375 19.55Z" fill="#015696"/>
</svg>
