<svg width="75" height="73" viewBox="0 0 75 73" fill="none" xmlns="http://www.w3.org/2000/svg">
<path opacity="0.2" d="M33.2719 0L5.24561 28.1975L4 29.4507H45.7281V72.0603L75 42.6096V0H33.2719Z" fill="#015696"/>
<path d="M35.8755 65.0547L54.6053 46.3248L55.4377 45.4924H27.5511V17.1895L7.9888 36.7518V65.0547H35.8755Z" fill="#DEF1FF"/>
<path d="M63.9609 21.8281L40.7578 13.2344C40.5859 13.1484 40.3281 13.1484 40.1562 13.2344L16.9531 21.8281C16.6953 21.9141 16.4375 22.2578 16.4375 22.6016C16.4375 22.9453 16.6953 23.2891 17.0391 23.375L25.0312 26.3828V31.1953C25.0312 31.3672 25.0312 31.4531 25.1172 31.625C25.2031 31.7109 25.6328 32.5703 26.75 33.6016C26.75 33.6875 26.6641 33.7734 26.6641 33.8594V33.9453C24.2578 34.375 22.3672 36.4375 22.3672 39.0156C22.3672 41.5937 24.2578 43.6562 26.6641 44.0859V44.3437C26.6641 44.4297 27.3516 48.7266 30.5312 52.1641C25.9766 54.3984 22.2812 58.1797 20.1328 62.8203C20.0469 63.0781 20.0469 63.4219 20.2187 63.6797C20.3906 63.9375 20.6484 64.1094 20.9062 64.1094H59.9219C60.1797 64.1094 60.5234 63.9375 60.6094 63.6797C60.6953 63.4219 60.7812 63.1641 60.6953 62.8203C58.5469 58.1797 54.8516 54.4844 50.2969 52.1641C53.3906 48.7266 54.1641 44.4297 54.1641 44.3437V44.0859C56.5703 43.6562 58.4609 41.5937 58.4609 39.0156C58.4609 36.4375 56.5703 34.375 54.1641 33.9453V33.8594C54.1641 33.7734 54.1641 33.6875 54.0781 33.6016C55.1953 32.5703 55.7109 31.7969 55.7109 31.625C55.7969 31.4531 55.7969 31.3672 55.7969 31.1953V26.3828L59.2344 25.0937V32.2266C58.2031 32.5703 57.5156 33.5156 57.5156 34.6328C57.5156 36.0937 58.6328 37.2109 60.0938 37.2109C61.5547 37.2109 62.6719 36.0937 62.6719 34.6328C62.6719 33.5156 61.9844 32.5703 60.9531 32.2266V24.4922L63.7891 23.4609C64.1328 23.375 64.3906 23.0312 64.3906 22.6875C64.3906 22.3438 64.3047 21.9141 63.9609 21.8281ZM60.2656 35.4922C59.75 35.4922 59.4062 35.1484 59.4062 34.6328C59.4062 34.1172 59.75 33.7734 60.2656 33.7734C60.7812 33.7734 61.125 34.1172 61.125 34.6328C61.125 35.1484 60.7812 35.4922 60.2656 35.4922ZM28.4688 34.8906C29.5 35.5781 30.7031 36.2656 32.25 36.7812C31.6484 37.5547 30.3594 38.5859 28.4688 38.8438V34.8906ZM24.1719 38.9297C24.1719 37.2969 25.2891 36.0078 26.75 35.5781V42.1953C25.2891 41.8516 24.1719 40.5625 24.1719 38.9297ZM31.9062 53.2812C33.2812 54.3984 35 55.3437 37.1484 55.7734L40.6719 62.1328H22.2812C24.5156 58.1797 27.8672 55.0859 31.9062 53.2812ZM39.3828 56.1172H41.6172L40.5 58.0078L39.3828 56.1172ZM58.6328 62.1328H42.7344L41.3594 59.7266L43.7656 55.7734C45.9141 55.3437 47.6328 54.3984 49.0078 53.2812C53.1328 55.0859 56.4844 58.1797 58.6328 62.1328ZM52.5312 44C52.3594 44.9453 50.5547 54.3984 40.5 54.3984C30.5312 54.3984 28.6406 44.9453 28.4688 44V40.5625C31.6484 40.2188 33.3672 38.2422 34.0547 37.2969C34.8281 37.4687 35.6016 37.6406 36.4609 37.8125C36.8906 38.5 39.4688 41.9375 43.7656 42.7109C44.3672 42.7969 44.9688 42.8828 45.5703 42.8828H45.6562V43.3125C45.6562 43.8281 46 44.1719 46.5156 44.1719C47.0312 44.1719 47.375 43.8281 47.375 43.3125V42.7109C49.0938 42.4531 50.8125 41.6797 52.5312 40.6484V44ZM52.5312 38.5C49.6094 40.6484 46.6875 41.5078 44.1094 40.9922C41.7031 40.5625 39.8984 39.1016 38.8672 37.9844C39.3828 37.9844 39.9844 38.0703 40.5 38.0703C46.3438 38.0703 50.125 36.5234 52.5312 34.8906V38.5ZM56.8281 38.9297C56.8281 40.5625 55.7109 41.8516 54.25 42.2812V35.6641C55.7109 36.0078 56.8281 37.2969 56.8281 38.9297ZM54.25 30.9375C53.5625 31.8828 50.0391 36.3516 40.5 36.3516C30.9609 36.3516 27.4375 31.8828 26.75 30.9375V26.9844L40.2422 31.9687C40.3281 31.9687 40.4141 32.0547 40.5 32.0547C40.5859 32.0547 40.6719 32.0547 40.7578 31.9687L54.25 26.9844V30.9375ZM40.5 30.25L19.7891 22.6016L40.5 14.9531L61.2109 22.6016L40.5 30.25Z" fill="#015696"/>
<path d="M34.4844 40.6484C33.9688 40.6484 33.625 40.9922 33.625 41.5078V43.2266C33.625 43.7422 33.9688 44.0859 34.4844 44.0859C35 44.0859 35.3438 43.7422 35.3438 43.2266V41.5078C35.3438 40.9922 35 40.6484 34.4844 40.6484ZM45.0547 48.4687C44.625 48.2969 44.1094 48.5547 43.9375 48.9844C43.9375 48.9844 43.25 50.9609 40.4141 50.9609C37.6641 50.9609 36.9766 49.0703 36.8906 48.9844C36.7187 48.5547 36.2891 48.2969 35.7734 48.4687C35.3438 48.6406 35.0859 49.0703 35.2578 49.5859C35.3437 49.7578 36.375 52.7656 40.3281 52.7656C44.2812 52.7656 45.3984 49.7578 45.3984 49.5859C45.7422 49.0703 45.4844 48.5547 45.0547 48.4687Z" fill="#015696"/>
</svg>
