<svg width="28" height="28" viewBox="0 0 28 28" fill="none" xmlns="http://www.w3.org/2000/svg">
<g clip-path="url(#clip0_2003_9127)">
<path d="M27.9999 13.5462C27.9992 12.5204 27.8786 11.498 27.6405 10.4991L27.6325 10.4674C26.8963 7.47748 25.153 4.81818 22.6842 2.91923C20.2155 1.02028 17.1656 -0.00736903 14.0274 0.00234128L14.0112 0.000362309H13.9729C10.8308 -0.0221055 7.77393 1.001 5.30218 2.90235C2.83043 4.8037 1.09009 7.47078 0.365763 10.4674L0.357688 10.4991C-0.216374 12.9286 -0.0976423 15.4661 0.700894 17.8339C0.823306 18.2004 1.02072 18.5386 1.28107 18.8278C1.54142 19.117 1.85922 19.3511 2.21504 19.5157C2.62404 19.7104 3.07264 19.8118 3.52729 19.8125C3.85453 19.8124 4.17964 19.761 4.49029 19.6602L5.68343 19.2565C6.3336 19.0473 6.89014 18.6245 7.25906 18.0596C7.62799 17.4947 7.78668 16.8223 7.70835 16.156L7.27227 12.5153C7.18193 11.8407 6.85861 11.2168 6.35613 10.7474C5.85365 10.2779 5.2023 9.99129 4.51048 9.93515L2.65717 9.80851C3.46307 7.52879 4.97184 5.55083 6.97479 4.14819C8.97775 2.74555 11.3759 1.98754 13.8376 1.97901H14.0112C16.5027 1.93963 18.9425 2.67662 20.9791 4.08375C23.0156 5.49087 24.5437 7.49544 25.3431 9.80851L23.4756 9.93712C22.7841 9.99585 22.1339 10.2849 21.6333 10.7561C21.1326 11.2273 20.8117 11.8523 20.7239 12.5272L20.2899 16.1679C20.2131 16.8311 20.3714 17.5001 20.7383 18.0625C21.1052 18.6249 21.6582 19.0465 22.3047 19.2565L23.5221 19.6681C23.7071 19.7155 23.8964 19.7453 24.0873 19.7571C23.1656 21.1827 21.9346 22.3916 20.482 23.2979C19.0294 24.2042 17.3908 24.7855 15.6828 25.0006C15.5102 24.7607 15.2821 24.5644 15.0172 24.4275C14.7522 24.2906 14.458 24.2171 14.1586 24.2131C13.8139 24.2083 13.4742 24.2941 13.1748 24.4614C12.8753 24.6287 12.6269 24.8715 12.4555 25.1646C12.284 25.4577 12.1957 25.7904 12.1996 26.1282C12.2036 26.466 12.2997 26.7967 12.478 27.0858C12.6563 27.375 12.9103 27.6121 13.2136 27.7726C13.5169 27.9331 13.8585 28.0112 14.203 27.9987C14.5475 27.9862 14.8823 27.8836 15.1726 27.7016C15.463 27.5195 15.6984 27.2646 15.8544 26.9634C18.4022 26.6623 20.813 25.6679 22.8137 24.0928C24.8143 22.5177 26.3249 20.4249 27.1742 18.0516C27.2065 17.9783 27.2691 17.9229 27.2953 17.8458C27.7681 16.4606 28.0061 15.0088 27.9999 13.5482V13.5462ZM4.35503 11.9039C4.58349 11.9226 4.79863 12.017 4.96491 12.1717C5.13119 12.3264 5.23866 12.5321 5.26957 12.7547L5.7016 16.3756C5.72632 16.5933 5.67349 16.8127 5.55208 16.9966C5.43067 17.1805 5.24813 17.3176 5.03538 17.3847L3.84829 17.7844C3.59805 17.8631 3.32662 17.8454 3.0892 17.735C2.97771 17.6841 2.87807 17.6112 2.79646 17.5211C2.71486 17.4309 2.65301 17.3252 2.61477 17.2106C2.02426 15.4532 1.86924 13.5833 2.16255 11.7555L4.35503 11.9039ZM24.907 17.735C24.6755 17.845 24.4099 17.8648 24.1641 17.7904L22.9527 17.3808C22.7435 17.3136 22.564 17.1782 22.4442 16.9971C22.3245 16.816 22.2717 16.6002 22.2946 16.3855L22.7286 12.7626C22.7574 12.5406 22.8625 12.3348 23.0265 12.1791C23.1905 12.0234 23.4037 11.927 23.6311 11.9059L25.8357 11.7555C26.1223 13.5313 25.9799 15.3482 25.4198 17.0602C25.4137 17.0741 25.4016 17.084 25.3976 17.0998C25.3612 17.2086 25.3047 17.3056 25.2643 17.4164C25.1773 17.5515 25.0545 17.6609 24.909 17.733L24.907 17.735ZM13.9991 8.37795C13.7357 8.3795 13.4821 8.28009 13.2925 8.10094C13.1966 8.00768 13.1204 7.89672 13.0684 7.77446C13.0164 7.65221 12.9897 7.52107 12.9897 7.38863C12.987 7.25892 13.0146 7.13033 13.0704 7.01268C13.1177 6.89136 13.1939 6.78283 13.2925 6.6961C13.4836 6.51939 13.7364 6.42096 13.9991 6.42096C14.2618 6.42096 14.5146 6.51939 14.7057 6.6961C14.8029 6.78429 14.8801 6.89151 14.9322 7.01081C14.9844 7.13012 15.0104 7.25884 15.0085 7.38863C15.0084 7.52106 14.9816 7.65216 14.9296 7.7744C14.8777 7.89664 14.8016 8.00761 14.7057 8.10094C14.5161 8.28009 14.2625 8.3795 13.9991 8.37795ZM10.668 6.6961C10.7652 6.78429 10.8424 6.89151 10.8945 7.01081C10.9467 7.13012 10.9727 7.25884 10.9708 7.38863C10.9707 7.52106 10.9439 7.65216 10.8919 7.7744C10.84 7.89664 10.7639 8.00761 10.668 8.10094C10.4784 8.28009 10.2248 8.3795 9.96139 8.37795C9.82884 8.38284 9.6971 8.35566 9.57781 8.29881C9.45666 8.25681 9.3464 8.18926 9.25479 8.10094C9.15884 8.00768 9.08267 7.89672 9.0307 7.77446C8.97872 7.65221 8.95196 7.52107 8.95196 7.38863C8.9501 7.25884 8.97609 7.13012 9.02826 7.01081C9.08043 6.89151 9.15761 6.78429 9.25479 6.6961C9.44588 6.51939 9.69867 6.42096 9.96139 6.42096C10.2241 6.42096 10.4769 6.51939 10.668 6.6961ZM17.3302 8.10094C17.2268 8.01031 17.1501 7.89415 17.1081 7.76457C17.0501 7.64766 17.0224 7.51854 17.0274 7.38863C17.0255 7.25884 17.0515 7.13012 17.1037 7.01081C17.1559 6.89151 17.233 6.78429 17.3302 6.6961C17.5189 6.51483 17.7726 6.4133 18.0368 6.4133C18.301 6.4133 18.5547 6.51483 18.7434 6.6961C18.8406 6.78429 18.9178 6.89151 18.9699 7.01081C19.0221 7.13012 19.0481 7.25884 19.0462 7.38863C19.0508 7.5185 19.023 7.6475 18.9655 7.76457C18.9234 7.8941 18.8467 8.01025 18.7434 8.10094C18.5528 8.27854 18.2998 8.37757 18.0368 8.37757C17.7738 8.37757 17.5208 8.27854 17.3302 8.10094Z" fill="#015696"/>
</g>
<defs>
<clipPath id="clip0_2003_9127">
<rect width="28" height="28" fill="white"/>
</clipPath>
</defs>
</svg>
