<svg width="24" height="24" viewBox="0 0 24 24" fill="none" xmlns="http://www.w3.org/2000/svg">
<path d="M14.0219 7H15.0219C15.287 7.00034 15.5411 7.10581 15.7286 7.29327C15.916 7.48073 16.0215 7.73489 16.0219 8V9C16.0219 9.26521 16.1272 9.51957 16.3148 9.7071C16.5023 9.89464 16.7566 10 17.0219 10C17.2871 10 17.5414 9.89464 17.729 9.7071C17.9165 9.51957 18.0219 9.26521 18.0219 9V8C18.021 7.20461 17.7046 6.44206 17.1422 5.87964C16.5798 5.31722 15.8172 5.00087 15.0219 5H14.0219C13.7566 5 13.5023 5.10535 13.3148 5.29289C13.1272 5.48043 13.0219 5.73478 13.0219 6C13.0219 6.26521 13.1272 6.51957 13.3148 6.7071C13.5023 6.89464 13.7566 7 14.0219 7ZM10.0219 16H9.02186C8.75675 15.9997 8.50259 15.8942 8.31513 15.7067C8.12767 15.5193 8.0222 15.2651 8.02186 15V14C8.02186 13.7348 7.9165 13.4804 7.72897 13.2929C7.54143 13.1054 7.28708 13 7.02186 13C6.75664 13 6.50229 13.1054 6.31475 13.2929C6.12722 13.4804 6.02186 13.7348 6.02186 14V15C6.02273 15.7954 6.33908 16.5579 6.9015 17.1204C7.46392 17.6828 8.22648 17.9991 9.02186 18H10.0219C10.2871 18 10.5414 17.8946 10.729 17.7071C10.9165 17.5196 11.0219 17.2652 11.0219 17C11.0219 16.7348 10.9165 16.4804 10.729 16.2929C10.5414 16.1054 10.2871 16 10.0219 16ZM21.0219 15C21.2871 15 21.5414 14.8946 21.729 14.7071C21.9165 14.5196 22.0219 14.2652 22.0219 14C22.0219 13.7348 21.9165 13.4804 21.729 13.2929C21.5414 13.1054 21.2871 13 21.0219 13H18.0219V12.5C18.0219 12.2348 17.9165 11.9804 17.729 11.7929C17.5414 11.6054 17.2871 11.5 17.0219 11.5C16.7566 11.5 16.5023 11.6054 16.3148 11.7929C16.1272 11.9804 16.0219 12.2348 16.0219 12.5V13H13.0219C12.7566 13 12.5023 13.1054 12.3148 13.2929C12.1272 13.4804 12.0219 13.7348 12.0219 14C12.0219 14.2652 12.1272 14.5196 12.3148 14.7071C12.5023 14.8946 12.7566 15 13.0219 15H18.2061C17.9799 15.9191 17.5623 16.78 16.9806 17.5267C16.7426 17.2181 16.532 16.8893 16.3514 16.5439C16.2916 16.4271 16.2092 16.3232 16.1092 16.2382C16.0092 16.1532 15.8934 16.0887 15.7684 16.0484C15.6434 16.0082 15.5118 15.9929 15.3809 16.0035C15.2501 16.0142 15.1226 16.0505 15.0058 16.1104C14.8889 16.1702 14.785 16.2526 14.7 16.3526C14.615 16.4526 14.5505 16.5684 14.5103 16.6934C14.4289 16.9458 14.4512 17.2201 14.5722 17.456C14.8415 17.9765 15.1628 18.4684 15.5313 18.924C14.8057 19.4508 13.9807 19.8247 13.1063 20.023C12.8477 20.0801 12.6222 20.2374 12.4794 20.4605C12.3366 20.6836 12.2882 20.9542 12.3447 21.213C12.4012 21.4717 12.5581 21.6975 12.7809 21.8408C13.0036 21.984 13.2742 22.0331 13.5331 21.9771C14.7877 21.6996 15.9647 21.1456 16.9781 20.3555C17.9999 21.146 19.1847 21.6997 20.4466 21.9766C20.5749 22.0049 20.7074 22.0076 20.8367 21.9847C20.966 21.9617 21.0896 21.9135 21.2002 21.8428C21.3109 21.7722 21.4066 21.6804 21.4818 21.5727C21.557 21.465 21.6102 21.3436 21.6385 21.2154C21.6668 21.0871 21.6695 20.9546 21.6466 20.8253C21.6236 20.696 21.5754 20.5725 21.5048 20.4618C21.4341 20.3511 21.3423 20.2554 21.2346 20.1802C21.127 20.105 21.0055 20.0518 20.8773 20.0235C19.9971 19.8278 19.1652 19.4571 18.4312 18.9334C19.3559 17.7952 19.9792 16.4425 20.2436 15H21.0219ZM9.05162 11.2427C9.11664 11.4993 9.28074 11.7197 9.50796 11.8555C9.73517 11.9913 10.007 12.0315 10.2638 11.9673C10.5206 11.903 10.7414 11.7396 10.878 11.5128C11.0145 11.286 11.0555 11.0143 10.9921 10.7573L9.23472 3.72754C9.11129 3.23408 8.82646 2.79604 8.42551 2.48303C8.02456 2.17002 7.53049 2 7.02183 2C6.51317 2 6.0191 2.17002 5.61815 2.48303C5.2172 2.79604 4.93237 3.23408 4.80894 3.72754L3.05162 10.7573C2.98817 11.0143 3.02919 11.286 3.16571 11.5128C3.30222 11.7396 3.52309 11.903 3.77989 11.9673C4.0367 12.0315 4.3085 11.9913 4.53571 11.8555C4.76293 11.7197 4.92703 11.4993 4.99205 11.2427L5.55266 9H8.49101L9.05162 11.2427ZM6.05266 7L6.74937 4.21289C6.7703 4.15756 6.80758 4.10991 6.85625 4.07628C6.90492 4.04266 6.96267 4.02465 7.02183 4.02465C7.08099 4.02465 7.13874 4.04266 7.18741 4.07628C7.23608 4.10991 7.27336 4.15756 7.29429 4.21289L7.99101 7H6.05266Z" fill="#70A9ED"/>
</svg>
