<svg width="28" height="28" viewBox="0 0 28 28" fill="none" xmlns="http://www.w3.org/2000/svg">
<path d="M24.2104 20.2496C23.7111 20.9719 23.1177 21.6652 22.4396 22.3104C21.7708 22.9459 21.0173 23.5141 20.2072 23.9859C19.3972 24.4578 18.5212 24.8333 17.617 25.0933C16.7127 25.3533 15.752 25.4881 14.763 25.4881C13.2653 25.4881 11.8242 25.2378 10.4772 24.7563C9.13972 24.2748 7.9529 23.5526 6.94506 22.5993C5.93721 21.6556 4.9011 20.1052 4.28885 18.6511C3.74254 17.3607 3.5259 15.9741 3.5259 13.8844C3.5259 12.3822 3.86499 10.7067 4.44898 9.30074C5.01413 7.95259 5.79592 6.75852 6.79435 5.74741C7.77394 4.75556 8.96075 3.9563 10.3359 3.35926C11.5699 2.82963 13.0204 2.56963 14.7724 2.56963C16.1758 2.56963 17.5039 2.80074 18.719 3.2437C19.9246 3.68667 20.9702 4.32222 21.8367 5.13111C22.6562 5.89185 23.1554 6.80667 23.6923 8.03926C24.1633 9.11778 24.3328 10.0519 24.3328 11.4963C24.3328 12.6904 24.1256 13.817 23.7206 14.857C23.3155 15.8778 23.0141 16.4941 22.4019 17.2644C21.7802 18.0252 21.4035 18.4874 20.697 18.9111C19.887 19.3926 19.2559 19.6237 18.719 19.6237C18.3799 19.6237 18.1256 19.5563 17.9843 19.4311C17.843 19.3059 17.7582 19.1422 17.73 18.9111C17.6923 18.6415 17.7206 18.3044 17.8242 17.9096C17.9278 17.4859 18.0879 17.0815 18.2857 16.5904L21.8556 6.77778H20.179L19.595 8.36667C19.237 7.77926 18.7378 7.25926 18.0973 6.87407C17.1083 6.28667 16.2606 6.02667 15.1586 6.02667C13.887 6.02667 12.7096 6.3637 11.6546 7.02815C10.6185 7.68296 9.7237 8.53037 8.99843 9.56074C8.29199 10.5526 8.12245 11.0726 7.78336 12.103L7.72684 12.2667C7.33124 13.4607 7.13344 14.6356 7.13344 15.7526C7.13344 16.4941 7.26531 17.197 7.51962 17.8519C7.77394 18.5067 8.12245 19.0844 8.56515 19.5659C9.00785 20.057 9.54474 20.4422 10.157 20.7311C10.7692 21.02 11.4474 21.1644 12.1633 21.1644C12.9639 21.1644 13.7268 21.0296 14.6217 20.7119C15.2151 20.5 15.7425 20.1533 16.2606 19.6141C16.3548 19.9222 16.5149 20.1919 16.7598 20.4326C17.2308 20.9141 17.8619 21.1644 18.6342 21.1644C19.4443 21.1644 20.3108 20.8756 21.3658 20.2689C22.2983 19.7296 22.8446 19.1133 23.5604 18.237C24.3328 17.2933 24.719 16.5037 25.1523 15.377C25.6232 14.1733 25.8587 12.8733 25.8587 11.4963C25.8587 9.76296 25.6327 8.58815 25.0581 7.29778C24.4364 5.92074 23.8148 4.81333 22.7975 3.88889C21.7708 2.96444 20.5463 2.24222 19.1711 1.74148C17.8053 1.25037 16.3171 1 14.7724 1C12.8791 1 11.2684 1.28889 9.85557 1.8763C8.30141 2.52148 6.94505 3.41704 5.80534 4.53407C4.6562 5.67037 3.73312 7.02815 3.07378 8.56889C2.38618 10.1674 2 12.103 2 13.8748C2 16.2919 2.29199 17.977 2.97017 19.4985C3.7237 21.1644 4.94819 22.9074 6.10675 23.9281C7.29356 24.9778 8.65934 25.7674 10.1758 26.2585C11.6735 26.7496 13.2182 27 14.7724 27C15.8462 27 16.9199 26.8459 17.9749 26.557C19.0298 26.2585 20.0471 25.8444 20.9984 25.2956C21.9498 24.7563 22.8352 24.0919 23.6546 23.3119C24.4647 22.5319 25.4066 21.3089 25.7268 20.7215C25.8493 20.4904 25.9341 20.3074 26 20.163H24.2575L24.2104 20.2496ZM15.865 17.6978C15.4505 18.237 15.1397 18.6126 14.7535 18.8726C14.3391 19.1615 14.0094 19.3444 13.5856 19.4407C13.1523 19.5563 12.7096 19.6044 12.2951 19.6044C11.7677 19.6044 11.2779 19.5082 10.8446 19.3156C10.4019 19.123 10.0251 18.8533 9.70487 18.5067C9.38461 18.16 9.1303 17.7459 8.94192 17.2837C8.76295 16.8215 8.66876 16.3015 8.66876 15.743C8.66876 14.8281 8.8383 13.8459 9.16797 12.8252C9.20565 12.7096 9.24333 12.5941 9.27159 12.4978C9.53532 11.6696 9.67661 11.3904 10.1664 10.5719C10.7033 9.66667 11.4945 8.97333 12.3328 8.40518C13.1429 7.84667 14.0471 7.56741 15.0173 7.56741C15.4129 7.56741 15.8273 7.61556 16.2606 7.71185C16.5997 7.78889 16.7881 7.89482 17.1083 8.08741C17.1648 8.1163 17.2119 8.14519 17.2684 8.1837C17.6358 8.39556 17.9655 8.67482 18.248 9.02148C18.5024 9.32963 18.7002 9.73407 18.8414 10.2059L16.9011 15.7719C16.5997 16.5519 16.2512 17.197 15.865 17.6978Z" fill="#70A9ED"/>
</svg>
