<svg width="28" height="28" viewBox="0 0 28 28" fill="none" xmlns="http://www.w3.org/2000/svg">
<path d="M18.4232 2.33457C18.865 2.36221 19.206 2.74093 19.1942 3.19108V4.39846C22.7043 4.739 24.5 6.67906 24.5 10.167V19.8157C24.5 23.6958 22.2884 25.6668 17.9362 25.6668H10.0638C5.71159 25.6668 3.5 23.6958 3.5 19.8157V10.167C3.5 7.84515 4.2913 6.18372 5.91449 5.2137L6.02835 5.14881C6.26365 5.03898 6.53963 5.04904 6.76902 5.18222C7.03664 5.33759 7.19468 5.63372 7.17697 5.94664C7.15927 6.25957 6.96888 6.5353 6.68551 6.65842C5.61015 7.29822 5.1029 8.41272 5.1029 10.167V10.4766H19.9043C20.347 10.4766 20.7058 10.8416 20.7058 11.2918C20.7058 11.7421 20.347 12.1071 19.9043 12.1071H5.1029V19.8157C5.1029 22.7774 6.54348 24.0054 10.0638 24.026H17.9362C21.4058 24.026 22.887 22.7671 22.887 19.8054V10.1567C22.887 7.57685 21.7609 6.32819 19.1942 6.02893V6.81321C19.135 7.23123 18.7752 7.53641 18.3603 7.52048C17.9454 7.50455 17.6092 7.17267 17.5812 6.75129V3.11885L17.596 2.98981C17.629 2.82072 17.7142 2.66541 17.8408 2.54748C17.9991 2.40006 18.2089 2.32337 18.4232 2.33457ZM18.8848 18.8967L19.014 18.905C19.2355 18.9328 19.4433 19.0343 19.6036 19.1959C19.7961 19.3897 19.9043 19.6537 19.9043 19.9292C19.9043 20.4991 19.4501 20.9612 18.8899 20.9612C18.3296 20.9612 17.8754 20.4991 17.8754 19.9292C17.8754 19.3593 18.3296 18.8973 18.8899 18.8973L18.8848 18.8967ZM14.0203 18.8973L14.1475 18.9053C14.6478 18.969 15.0348 19.4031 15.0348 19.9292C15.0348 20.4991 14.5806 20.9612 14.0203 20.9612C13.46 20.9612 13.0058 20.4991 13.0058 19.9292C13.0058 19.3593 13.46 18.8973 14.0203 18.8973ZM9.156 18.8967L9.28502 18.905C9.50653 18.9328 9.71427 19.0343 9.87465 19.1959C10.0671 19.3897 10.1754 19.6537 10.1754 19.9292C10.1754 20.4991 9.72116 20.9612 9.16087 20.9612C8.60058 20.9612 8.14638 20.4991 8.14638 19.9292C8.14638 19.3593 8.60058 18.8973 9.16087 18.8973L9.156 18.8967ZM18.8848 14.7177L19.014 14.7256C19.2355 14.7534 19.4433 14.855 19.6036 15.0165C19.7961 15.2103 19.9043 15.4744 19.9043 15.7498C19.9043 16.3198 19.4501 16.7818 18.8899 16.7818C18.3296 16.7818 17.8754 16.3198 17.8754 15.7498C17.8754 15.1799 18.3296 14.7179 18.8899 14.7179L18.8848 14.7177ZM14.0203 14.7179L14.1475 14.7259C14.6478 14.7896 15.0348 15.2238 15.0348 15.7498C15.0348 16.3198 14.5806 16.7818 14.0203 16.7818C13.46 16.7818 13.0058 16.3198 13.0058 15.7498C13.0058 15.1799 13.46 14.7179 14.0203 14.7179ZM9.156 14.7177L9.28502 14.7256C9.50653 14.7534 9.71427 14.855 9.87465 15.0165C10.0671 15.2103 10.1754 15.4744 10.1754 15.7498C10.1754 16.3198 9.72116 16.7818 9.16087 16.7818C8.60058 16.7818 8.14638 16.3198 8.14638 15.7498C8.14638 15.1799 8.60058 14.7179 9.16087 14.7179L9.156 14.7177ZM9.61232 2.45768C10.0255 2.45768 10.3727 2.77343 10.4188 3.19108V4.3159H15.0043C15.447 4.3159 15.8058 4.6809 15.8058 5.13114C15.8058 5.58138 15.447 5.94638 15.0043 5.94638H10.3986V6.76161C10.3986 6.97963 10.3127 7.18856 10.1602 7.34175C10.0077 7.49494 9.80127 7.57961 9.58696 7.57685L9.46976 7.56514C9.08791 7.49803 8.80061 7.15703 8.80573 6.75129V3.19108L8.82838 3.06906C8.92202 2.71344 9.24046 2.45768 9.61232 2.45768Z" fill="#70A9ED"/>
</svg>
