<svg width="24" height="24" viewBox="0 0 24 24" fill="none" xmlns="http://www.w3.org/2000/svg">
<path d="M19.3146 4.68499C15.2743 0.644716 8.72478 0.644716 4.6845 4.68499C0.644228 8.72527 0.644228 15.2748 4.6845 19.3151C8.72478 23.3553 15.2743 23.3553 19.3146 19.3151C23.3548 15.2748 23.354 8.72527 19.3146 4.68499ZM16.3882 15.2185C16.5434 15.3737 16.6306 15.5842 16.6306 15.8036C16.6306 16.0231 16.5434 16.2335 16.3882 16.3887C16.233 16.5439 16.0226 16.6311 15.8031 16.6311C15.5837 16.6311 15.3732 16.5439 15.218 16.3887L11.9995 13.1702L8.78105 16.3887C8.70438 16.4658 8.61321 16.527 8.5128 16.5688C8.41238 16.6106 8.3047 16.6321 8.19595 16.6321C8.0872 16.6321 7.97952 16.6106 7.87911 16.5688C7.77869 16.527 7.68753 16.4658 7.61085 16.3887C7.53393 16.3119 7.4729 16.2207 7.43127 16.1203C7.38963 16.0199 7.3682 15.9123 7.3682 15.8036C7.3682 15.6949 7.38963 15.5873 7.43127 15.4869C7.4729 15.3865 7.53393 15.2953 7.61085 15.2185L10.8293 12L7.61085 8.78154C7.45567 8.62636 7.36849 8.4159 7.36849 8.19644C7.36849 7.97698 7.45567 7.76652 7.61085 7.61134C7.76603 7.45616 7.9765 7.36898 8.19595 7.36898C8.41541 7.36898 8.62588 7.45616 8.78105 7.61134L11.9995 10.8298L15.218 7.61134C15.2949 7.5345 15.3861 7.47355 15.4865 7.43197C15.5869 7.39038 15.6945 7.36898 15.8031 7.36898C15.9118 7.36898 16.0194 7.39038 16.1198 7.43197C16.2202 7.47355 16.3114 7.5345 16.3882 7.61134C16.4651 7.68817 16.526 7.77939 16.5676 7.87979C16.6092 7.98018 16.6306 8.08778 16.6306 8.19644C16.6306 8.3051 16.6092 8.4127 16.5676 8.5131C16.526 8.61349 16.4651 8.70471 16.3882 8.78154L13.1697 12L16.3882 15.2185Z" fill="#9B9B9B"/>
</svg>
