<svg width="16" height="16" viewBox="0 0 16 16" fill="none" xmlns="http://www.w3.org/2000/svg">
<g clip-path="url(#clip0_251_1540)">
<path d="M13.3558 0.469308C13.0608 0.174293 12.5908 0.174293 12.2958 0.469308L6.60082 6.16429C6.51082 6.24931 6.45082 6.35929 6.41082 6.47929L5.48082 9.5843C5.40081 9.84931 5.47582 10.1343 5.67082 10.3293C5.81081 10.4743 6.00581 10.5493 6.20082 10.5493C6.2708 10.5493 6.34581 10.5393 6.41582 10.5193L9.5208 9.5893C9.64082 9.54929 9.75081 9.48929 9.8358 9.3993L15.5308 3.70429C15.6708 3.56431 15.7508 3.37431 15.7508 3.1743C15.7508 2.97432 15.6708 2.78431 15.5308 2.6443L13.3558 0.469308Z" fill="#9B9B9B"/>
<path d="M15 7.25C14.5857 7.25 14.25 7.58594 14.25 8V13C14.25 13.6895 13.6892 14.25 13 14.25H3C2.31079 14.25 1.75 13.6895 1.75 13V3C1.75 2.31054 2.31079 1.75 3 1.75H8C8.4143 1.75 8.75 1.41406 8.75 1C8.75 0.58594 8.4143 0.25 8 0.25H3C1.48364 0.25 0.25 1.48389 0.25 3V13C0.25 14.5161 1.48364 15.75 3 15.75H13C14.5164 15.75 15.75 14.5161 15.75 13V8C15.75 7.58594 15.4143 7.25 15 7.25Z" fill="#9B9B9B"/>
</g>
<defs>
<clipPath id="clip0_251_1540">
<rect width="16" height="16" fill="white"/>
</clipPath>
</defs>
</svg>
