<svg width="28" height="28" viewBox="0 0 28 28" fill="none" xmlns="http://www.w3.org/2000/svg">
<path d="M25.9577 9.14103V13.061C25.9577 13.1384 25.927 13.2126 25.8723 13.2673C25.8176 13.322 25.7434 13.3527 25.6661 13.3527H24.4702C24.3929 13.3527 24.3187 13.322 24.264 13.2673C24.2093 13.2126 24.1786 13.1384 24.1786 13.061V11.8885L22.9944 13.0727C23.839 14.194 24.2956 15.5597 24.2952 16.9635C24.2952 17.1619 24.2836 17.3602 24.2719 17.5527C24.2819 17.5888 24.2858 17.6262 24.2836 17.6635C24.163 18.8795 23.6995 20.0363 22.9472 20.9992C22.1949 21.9621 21.1847 22.6917 20.034 23.1029C18.8833 23.5142 17.6395 23.5903 16.4473 23.3223C15.2551 23.0544 14.1635 22.4534 13.2994 21.5894C12.2217 20.5053 11.5607 19.076 11.4327 17.5527C11.4269 17.4885 11.4211 17.4244 11.4211 17.3602C12.0915 17.0494 12.7095 16.6362 13.2527 16.1352C13.201 16.4082 13.1756 16.6856 13.1769 16.9635C13.1762 17.7323 13.3651 18.4893 13.7269 19.1675C14.0888 19.8458 14.6124 20.4243 15.2513 20.8517C15.8903 21.2791 16.6248 21.5423 17.3898 21.618C18.1548 21.6936 18.9266 21.5793 19.6369 21.2852C20.3471 20.9911 20.9739 20.5263 21.4615 19.9321C21.9491 19.3378 22.2826 18.6324 22.4324 17.8784C22.5821 17.1244 22.5436 16.3451 22.3201 15.6096C22.0966 14.8741 21.695 14.2051 21.1511 13.6619C20.823 13.3385 20.452 13.0617 20.0486 12.8394H20.0427C19.6414 12.6249 19.2111 12.4697 18.7652 12.3785C18.4635 12.32 18.1568 12.2907 17.8494 12.291C16.9249 12.294 16.0218 12.57 15.2536 13.0844C14.999 13.2521 14.7625 13.4456 14.5477 13.6619C14.4406 13.7671 14.3394 13.8781 14.2444 13.9944C14.085 14.19 13.9426 14.3988 13.8186 14.6185C13.8069 14.6244 13.8011 14.6302 13.8069 14.636C13.4379 15.1664 12.9893 15.6366 12.4769 16.0302C12.1498 16.2819 11.8025 16.5062 11.4386 16.701C11.4327 16.7069 11.4269 16.7069 11.4211 16.7127C11.3988 16.7249 11.3754 16.7347 11.3511 16.7419C10.739 17.0489 10.0809 17.2538 9.40275 17.3485C9.3959 17.3532 9.38763 17.3552 9.37941 17.3544V18.6902H10.6744C10.7518 18.6902 10.826 18.7209 10.8807 18.7756C10.9353 18.8303 10.9661 18.9045 10.9661 18.9819V20.1777C10.9661 20.2551 10.9353 20.3292 10.8807 20.3839C10.826 20.4386 10.7518 20.4694 10.6744 20.4694H9.37941V21.7819C9.37821 21.8588 9.34709 21.9323 9.29265 21.9868C9.23821 22.0412 9.16472 22.0723 9.08774 22.0735H7.89191C7.81456 22.0735 7.74037 22.0428 7.68567 21.9881C7.63097 21.9334 7.60024 21.8592 7.60024 21.7819V20.4694H6.31108C6.23372 20.4694 6.15954 20.4386 6.10484 20.3839C6.05014 20.3292 6.01941 20.2551 6.01941 20.1777V18.9819C6.01941 18.9045 6.05014 18.8303 6.10484 18.7756C6.15954 18.7209 6.23372 18.6902 6.31108 18.6902H7.60024V17.3544C6.05605 17.1462 4.64038 16.3832 3.61744 15.2078C2.5945 14.0324 2.03419 12.525 2.04108 10.9669C2.0439 9.62958 2.45949 8.32578 3.23108 7.23353C3.82589 6.39216 4.61457 5.70641 5.53042 5.23427C6.44628 4.76213 7.46236 4.51749 8.49275 4.52103C8.82084 4.52194 9.14841 4.54729 9.47274 4.59687C10.4472 4.74136 11.3749 5.10933 12.1835 5.67198C12.9921 6.23464 13.6595 6.97673 14.1336 7.8402V7.84603C14.5582 8.61269 14.8203 9.45861 14.9036 10.331V10.3602C14.9094 10.4302 14.9211 10.5002 14.9211 10.5702C14.6522 10.6904 14.3928 10.8308 14.1452 10.9902C13.7651 11.2221 13.4094 11.4918 13.0836 11.7952C13.2159 11.0546 13.1673 10.293 12.9417 9.57532C12.7162 8.8576 12.3205 8.20505 11.7884 7.67327C11.2562 7.14149 10.6034 6.74625 9.88555 6.52122C9.16768 6.2962 8.40605 6.24806 7.66557 6.38092C6.92508 6.51377 6.22769 6.82368 5.63283 7.28424C5.03797 7.74479 4.56327 8.34233 4.24918 9.02594C3.9351 9.70955 3.79094 10.459 3.829 11.2103C3.86706 11.9617 4.0862 12.6927 4.46775 13.341C5.07528 14.36 6.04336 15.1137 7.18025 15.4527C7.34921 15.5005 7.52055 15.5395 7.69358 15.5694C8.51191 15.7125 9.35365 15.6338 10.1313 15.3415C10.9089 15.0491 11.5939 14.5537 12.1152 13.9069C12.1211 13.901 12.1211 13.901 12.1211 13.8952C12.1794 13.8252 12.2377 13.7494 12.2902 13.6735C12.2961 13.6677 12.2961 13.6619 12.3077 13.656C12.32 13.631 12.4874 13.3918 12.5002 13.3527C12.5002 13.3527 12.5037 13.3486 12.5061 13.3469C12.9462 12.6971 13.5018 12.1336 14.1452 11.6844C14.2991 11.5746 14.4587 11.4734 14.6236 11.381C14.9772 11.1698 15.3527 10.9977 15.7436 10.8677C16.7438 10.5246 17.8129 10.4319 18.8573 10.5977C19.9017 10.7634 20.8895 11.1826 21.7344 11.8185L22.9186 10.6285H21.7461C21.6687 10.6285 21.5945 10.5978 21.5398 10.5431C21.4851 10.4884 21.4544 10.4142 21.4544 10.3369V9.14103C21.4544 9.06368 21.4851 8.98949 21.5398 8.93479C21.5945 8.8801 21.6687 8.84937 21.7461 8.84937H25.6661C25.7434 8.84937 25.8176 8.8801 25.8723 8.93479C25.927 8.98949 25.9577 9.06368 25.9577 9.14103Z" fill="#70A9ED"/>
</svg>
