<svg width="28" height="28" viewBox="0 0 28 28" fill="none" xmlns="http://www.w3.org/2000/svg">
<g clip-path="url(#clip0_251_1509)">
<path d="M23.071 12.4884L19.683 15.8764C19.459 16.1004 19.123 16.1004 18.899 15.8764C18.675 15.6524 18.675 15.3164 18.899 15.0924L22.287 11.7044C23.939 10.0524 23.939 7.36435 22.287 5.71235C21.475 4.90035 20.439 4.48035 19.291 4.48035C18.171 4.48035 17.107 4.92835 16.295 5.71235L12.907 9.10035C11.255 10.7524 11.255 13.4404 12.907 15.0924C13.299 15.4844 13.775 15.8204 14.307 16.0164C14.587 16.1284 14.727 16.4644 14.615 16.7444C14.363 17.3324 13.719 16.9964 13.887 17.0524C13.215 16.7724 12.627 16.3804 12.123 15.8764C10.023 13.8044 10.023 10.3884 12.123 8.31635L15.511 4.92835C16.519 3.92035 17.863 3.36035 19.291 3.36035C20.719 3.36035 22.063 3.92035 23.071 4.92835C25.171 7.00035 25.171 10.4164 23.071 12.4884ZM14.111 10.9484C13.831 10.8364 13.495 10.9764 13.383 11.2564C13.271 11.5364 13.411 11.8724 13.691 11.9844C14.223 12.2084 14.699 12.5164 15.091 12.9084C16.743 14.5604 16.743 17.2484 15.091 18.9004L11.703 22.2884C10.891 23.1004 9.85505 23.5204 8.70705 23.5204C7.58705 23.5204 6.52305 23.0724 5.71105 22.2884C4.05905 20.6364 4.05905 17.9484 5.71105 16.2964L9.09905 12.9084C9.32305 12.6844 9.32305 12.3484 9.09905 12.1244C8.87505 11.9004 8.53905 11.9004 8.31505 12.1244L4.92705 15.5124C2.85505 17.5844 2.85505 21.0004 4.92705 23.0724C5.93505 24.0804 7.27905 24.6404 8.70705 24.6404C10.135 24.6404 11.479 24.0804 12.487 23.0724L15.875 19.6844C17.975 17.6124 17.975 14.1964 15.875 12.1244C15.371 11.6204 14.783 11.2284 14.111 10.9484Z" fill="#5FA1F0"/>
<path d="M421.119 -142.8V328.72H-78.4006V-142.8H421.119ZM423.359 -145.04H-80.6406V330.96H423.359V-145.04Z" fill="#0000FF"/>
</g>
<defs>
<clipPath id="clip0_251_1509">
<rect width="28" height="28" fill="white"/>
</clipPath>
</defs>
</svg>
