<svg width="28" height="28" viewBox="0 0 28 28" fill="none" xmlns="http://www.w3.org/2000/svg">
<path d="M4.36012 7.76521H4.3225C2.32488 7.76521 0.875 6.44046 0.875 4.61521C0.875 2.78734 2.3555 1.45996 4.39512 1.45996C6.40062 1.45996 7.83213 2.75146 7.875 4.60034C7.875 6.43871 6.39712 7.76521 4.36012 7.76521ZM4.39512 2.33496C2.83762 2.33496 1.75 3.27296 1.75 4.61521C1.75 5.95484 2.80788 6.89109 4.3225 6.89109H4.36012C5.915 6.89021 7 5.95309 7 4.61084C6.96763 3.23184 5.94562 2.33496 4.39512 2.33496ZM6.5625 25.3746H2.1875C1.946 25.3746 1.75 25.1786 1.75 24.9371V9.18709C1.75 8.94559 1.946 8.74959 2.1875 8.74959H6.5625C6.804 8.74959 7 8.94559 7 9.18709V24.9371C7 25.1786 6.804 25.3746 6.5625 25.3746ZM2.625 24.4996H6.125V9.62459H2.625V24.4996ZM26.6875 25.3746H21.4375C21.196 25.3746 21 25.1786 21 24.9371V16.6246C21 15.1773 19.8223 13.9996 18.375 13.9996C16.9277 13.9996 15.75 15.1773 15.75 16.6246V24.9371C15.75 25.1786 15.554 25.3746 15.3125 25.3746H10.0625C9.821 25.3746 9.625 25.1786 9.625 24.9371V9.18709C9.625 8.94559 9.821 8.74959 10.0625 8.74959H15.3125C15.554 8.74959 15.75 8.94559 15.75 9.18709V11.8243C15.75 12.0658 15.554 12.2618 15.3125 12.2618C15.071 12.2618 14.875 12.0658 14.875 11.8243V9.62459H10.5V24.4996H14.875V16.6246C14.875 14.6943 16.4447 13.1246 18.375 13.1246C20.3053 13.1246 21.875 14.6943 21.875 16.6246V24.4996H26.25V15.3121C26.25 12.1761 23.6985 9.62459 20.5625 9.62459C19.3515 9.62459 18.1807 9.97984 17.1754 10.651C16.975 10.784 16.7029 10.7315 16.569 10.5302C16.4351 10.329 16.4885 10.0577 16.6906 9.92384C17.8395 9.15559 19.1782 8.74959 20.5625 8.74959C24.1815 8.74959 27.125 11.6931 27.125 15.3121V24.9371C27.125 25.1786 26.929 25.3746 26.6875 25.3746Z" fill="#70A9ED"/>
</svg>
