<svg width="24" height="24" viewBox="0 0 24 24" fill="none" xmlns="http://www.w3.org/2000/svg">
<g clip-path="url(#clip0_251_1444)">
<path d="M11.9901 -0.00292969C8.27012 -0.00292969 5.24012 3.02707 5.24012 6.74707C5.23934 6.82749 5.25149 6.90751 5.27612 6.98407C5.33912 9.35257 6.36512 11.4241 7.57112 13.3441C8.81912 15.3286 10.2636 17.1886 11.1906 19.0876C11.2516 19.2127 11.3461 19.3184 11.4637 19.3928C11.5813 19.4673 11.7173 19.5075 11.8565 19.5091C11.9957 19.5106 12.1325 19.4734 12.2517 19.4016C12.371 19.3299 12.4679 19.2263 12.5316 19.1026C13.5066 17.2051 15.0246 15.3421 16.3356 13.3591C17.6451 11.3761 18.7641 9.23407 18.7641 6.75907C18.7655 6.66377 18.7487 6.56908 18.7146 6.48007C18.5691 2.88757 15.6186 -0.00292969 11.9901 -0.00292969ZM11.9901 1.49707C14.9001 1.49707 17.2401 3.83857 17.2401 6.74707C17.2393 6.80095 17.2444 6.85476 17.2551 6.90757C17.2101 8.86957 16.3041 10.6876 15.0846 12.5326C14.0526 14.0941 12.8856 15.7066 11.8791 17.3821C10.9236 15.7141 9.82262 14.1046 8.84312 12.5476C7.65362 10.6531 6.76412 8.79007 6.76412 6.75757C6.76394 6.7138 6.75992 6.67014 6.75212 6.62707C6.77885 5.25617 7.34268 3.95055 8.32228 2.99115C9.30188 2.03174 10.619 1.49524 11.9901 1.49707ZM11.9901 4.50007C10.7571 4.50007 9.74012 5.51707 9.74012 6.75007C9.74012 7.98307 10.7571 9.00007 11.9901 9.00007C13.2246 9.00007 14.2401 7.98307 14.2401 6.75007C14.2401 5.51707 13.2246 4.50007 11.9901 4.50007ZM11.9901 6.00007C12.4131 6.00007 12.7401 6.32707 12.7401 6.75007C12.7401 7.17307 12.4131 7.50007 11.9901 7.50007C11.8912 7.50148 11.7931 7.48305 11.7014 7.44586C11.6098 7.40867 11.5266 7.35348 11.4566 7.28355C11.3867 7.21362 11.3315 7.13038 11.2943 7.03875C11.2571 6.94711 11.2387 6.84895 11.2401 6.75007C11.2401 6.32707 11.5671 6.00007 11.9901 6.00007ZM18.1251 13.8406C17.9504 13.841 17.7812 13.9024 17.6469 14.0143C17.5127 14.1261 17.4217 14.2814 17.3896 14.4532C17.3576 14.625 17.3866 14.8026 17.4716 14.9553C17.5566 15.108 17.6922 15.2262 17.8551 15.2896C19.3506 15.8956 20.3121 16.6891 20.7261 17.4196C21.1416 18.1501 21.1311 18.7816 20.5896 19.5586C19.5021 21.1126 16.0356 22.4896 12.0786 22.5061C8.12012 22.5211 4.60562 21.1816 3.45662 19.6231C2.88212 18.8431 2.85362 18.2086 3.23912 17.4811C3.62612 16.7551 4.55162 15.9541 6.02312 15.3361C6.11818 15.301 6.20515 15.2471 6.27879 15.1775C6.35243 15.1079 6.41121 15.0242 6.45158 14.9313C6.49195 14.8383 6.51309 14.7382 6.5137 14.6369C6.51431 14.5356 6.4944 14.4352 6.45515 14.3418C6.41591 14.2484 6.35815 14.1639 6.28536 14.0935C6.21257 14.023 6.12626 13.968 6.03163 13.9318C5.93701 13.8957 5.83603 13.879 5.7348 13.8829C5.63357 13.8868 5.53417 13.9112 5.44262 13.9546C3.76262 14.6596 2.53712 15.6076 1.91462 16.7791C1.29212 17.9491 1.40012 19.3621 2.24912 20.5141C3.94712 22.8151 7.81562 24.0241 12.0876 24.0061C16.3581 23.9881 20.1906 22.7506 21.8196 20.4211C22.6341 19.2556 22.6896 17.8366 22.0296 16.6786C21.3726 15.5206 20.1201 14.5876 18.4176 13.8991C18.3251 13.8597 18.2257 13.8393 18.1251 13.8391V13.8406Z" fill="#70A9ED"/>
</g>
<defs>
<clipPath id="clip0_251_1444">
<rect width="24" height="24" fill="white"/>
</clipPath>
</defs>
</svg>
