<svg width="24" height="24" viewBox="0 0 24 24" fill="none" xmlns="http://www.w3.org/2000/svg">
<path d="M12.4867 2C8.3607 2 5.00004 5.26106 5.00004 9.26474C4.99917 9.35129 5.01265 9.43742 5.03997 9.51981C5.10984 12.0689 6.24781 14.2984 7.58542 16.3648C8.96962 18.5006 10.5718 20.5025 11.5999 22.5463C11.6675 22.681 11.7724 22.7947 11.9028 22.8748C12.0333 22.955 12.1841 22.9983 12.3385 22.9999C12.4928 23.0016 12.6446 22.9616 12.7768 22.8843C12.9091 22.8071 13.0166 22.6956 13.0873 22.5624C14.1687 20.5202 15.8523 18.5152 17.3064 16.381C18.7588 14.2467 19.9999 11.9414 19.9999 9.27765C20.0014 9.17509 19.9828 9.07318 19.945 8.97738C19.7836 5.11092 16.5111 2 12.4867 2ZM12.4867 3.61439C15.7142 3.61439 18.3096 6.13444 18.3096 9.26474C18.3087 9.32273 18.3143 9.38065 18.3262 9.43748C18.2763 11.5491 17.2715 13.5057 15.9189 15.4914C14.7742 17.172 13.4799 18.9075 12.3636 20.7107C11.3038 18.9155 10.0826 17.1833 8.99624 15.5076C7.67693 13.4686 6.69035 11.4635 6.69035 9.27604C6.69015 9.22894 6.6857 9.18194 6.67704 9.13559C6.70669 7.66015 7.33205 6.25497 8.41856 5.2224C9.50506 4.18983 10.9659 3.61241 12.4867 3.61439ZM12.4867 6.84639C11.1191 6.84639 9.99112 7.94094 9.99112 9.26797C9.99112 10.595 11.1191 11.6895 12.4867 11.6895C13.8559 11.6895 14.9822 10.595 14.9822 9.26797C14.9822 7.94094 13.8559 6.84639 12.4867 6.84639ZM12.4867 8.46077C12.9558 8.46077 13.3185 8.81271 13.3185 9.26797C13.3185 9.72322 12.9558 10.0752 12.4867 10.0752C12.377 10.0767 12.2681 10.0568 12.1665 10.0168C12.0649 9.97679 11.9725 9.91739 11.895 9.84213C11.8174 9.76687 11.7562 9.67728 11.7149 9.57866C11.6737 9.48004 11.6533 9.37439 11.6548 9.26797C11.6548 8.81271 12.0175 8.46077 12.4867 8.46077Z" fill="#70A9ED"/>
</svg>
