<svg width="28" height="28" viewBox="0 0 28 28" fill="none" xmlns="http://www.w3.org/2000/svg">
<path d="M10.1146 13.6515C11.0222 15.5071 12.5264 17.0044 14.3861 17.9035C14.5221 17.968 14.6726 17.9959 14.8228 17.9846C14.9729 17.9732 15.1175 17.923 15.2423 17.8387L17.9806 16.0128C18.1017 15.932 18.241 15.8828 18.386 15.8695C18.5309 15.8561 18.6769 15.8792 18.8107 15.9365L23.9335 18.132C24.1075 18.2059 24.2528 18.3344 24.3475 18.4981C24.4421 18.6618 24.481 18.8518 24.4583 19.0395C24.2964 20.3065 23.6782 21.471 22.7195 22.3151C21.7608 23.1591 20.5273 23.6247 19.25 23.6248C15.3049 23.6248 11.5214 22.0576 8.73179 19.268C5.94218 16.4784 4.375 12.6949 4.375 8.7498C4.37507 7.47249 4.84071 6.239 5.68475 5.28029C6.52878 4.32158 7.69332 3.70339 8.96033 3.54147C9.14803 3.51876 9.33803 3.55766 9.5017 3.65232C9.66538 3.74697 9.79385 3.89226 9.86778 4.06628L12.0652 9.19355C12.122 9.32617 12.1452 9.47079 12.1326 9.61452C12.12 9.75826 12.0721 9.89666 11.9931 10.0174L10.1735 12.7977C10.0906 12.9227 10.0417 13.0672 10.0314 13.2168C10.021 13.3665 10.0497 13.5162 10.1146 13.6515Z" stroke="#70A9ED" stroke-linecap="round" stroke-linejoin="round"/>
</svg>
