<svg width="24" height="24" viewBox="0 0 24 24" fill="none" xmlns="http://www.w3.org/2000/svg">
<path d="M14.0228 7H15.0228C15.2879 7.00034 15.5421 7.10581 15.7296 7.29327C15.917 7.48073 16.0225 7.73489 16.0228 8V9C16.0228 9.26521 16.1282 9.51957 16.3157 9.7071C16.5033 9.89464 16.7576 10 17.0228 10C17.2881 10 17.5424 9.89464 17.7299 9.7071C17.9175 9.51957 18.0228 9.26521 18.0228 9V8C18.022 7.20461 17.7056 6.44206 17.1432 5.87964C16.5808 5.31722 15.8182 5.00087 15.0228 5H14.0228C13.7576 5 13.5033 5.10535 13.3157 5.29289C13.1282 5.48043 13.0228 5.73478 13.0228 6C13.0228 6.26521 13.1282 6.51957 13.3157 6.7071C13.5033 6.89464 13.7576 7 14.0228 7ZM10.0228 16H9.02284C8.75773 15.9997 8.50357 15.8942 8.31611 15.7067C8.12865 15.5193 8.02318 15.2651 8.02284 15V14C8.02284 13.7348 7.91748 13.4804 7.72994 13.2929C7.54241 13.1054 7.28805 13 7.02284 13C6.75762 13 6.50327 13.1054 6.31573 13.2929C6.12819 13.4804 6.02284 13.7348 6.02284 14V15C6.0237 15.7954 6.34005 16.5579 6.90247 17.1204C7.4649 17.6828 8.22745 17.9991 9.02284 18H10.0228C10.2881 18 10.5424 17.8946 10.7299 17.7071C10.9175 17.5196 11.0228 17.2652 11.0228 17C11.0228 16.7348 10.9175 16.4804 10.7299 16.2929C10.5424 16.1054 10.2881 16 10.0228 16ZM21.0228 15C21.2881 15 21.5424 14.8946 21.7299 14.7071C21.9175 14.5196 22.0228 14.2652 22.0228 14C22.0228 13.7348 21.9175 13.4804 21.7299 13.2929C21.5424 13.1054 21.2881 13 21.0228 13H18.0228V12.5C18.0228 12.2348 17.9175 11.9804 17.7299 11.7929C17.5424 11.6054 17.2881 11.5 17.0228 11.5C16.7576 11.5 16.5033 11.6054 16.3157 11.7929C16.1282 11.9804 16.0228 12.2348 16.0228 12.5V13H13.0228C12.7576 13 12.5033 13.1054 12.3157 13.2929C12.1282 13.4804 12.0228 13.7348 12.0228 14C12.0228 14.2652 12.1282 14.5196 12.3157 14.7071C12.5033 14.8946 12.7576 15 13.0228 15H18.2071C17.9809 15.9191 17.5633 16.78 16.9816 17.5267C16.7435 17.2181 16.533 16.8893 16.3524 16.5439C16.2925 16.4271 16.2102 16.3232 16.1102 16.2382C16.0101 16.1532 15.8943 16.0887 15.7694 16.0484C15.6444 16.0082 15.5128 15.9929 15.3819 16.0035C15.251 16.0142 15.1236 16.0505 15.0067 16.1104C14.8899 16.1702 14.786 16.2526 14.701 16.3526C14.616 16.4526 14.5515 16.5684 14.5112 16.6934C14.4299 16.9458 14.4522 17.2201 14.5731 17.456C14.8425 17.9765 15.1638 18.4684 15.5322 18.924C14.8067 19.4508 13.9817 19.8247 13.1073 20.023C12.8486 20.0801 12.6232 20.2374 12.4804 20.4605C12.3376 20.6836 12.2891 20.9542 12.3457 21.213C12.4022 21.4717 12.559 21.6975 12.7818 21.8408C13.0046 21.984 13.2751 22.0331 13.534 21.9771C14.7887 21.6996 15.9657 21.1456 16.979 20.3555C18.0009 21.146 19.1856 21.6997 20.4476 21.9766C20.5758 22.0049 20.7084 22.0076 20.8377 21.9847C20.967 21.9617 21.0905 21.9135 21.2012 21.8428C21.3119 21.7722 21.4076 21.6804 21.4828 21.5727C21.558 21.465 21.6112 21.3436 21.6395 21.2154C21.6678 21.0871 21.6705 20.9546 21.6476 20.8253C21.6246 20.696 21.5764 20.5725 21.5057 20.4618C21.435 20.3511 21.3432 20.2554 21.2356 20.1802C21.1279 20.105 21.0065 20.0518 20.8783 20.0235C19.9981 19.8278 19.1662 19.4571 18.4322 18.9334C19.3569 17.7952 19.9801 16.4425 20.2445 15H21.0228ZM9.0526 11.2427C9.11761 11.4993 9.28171 11.7197 9.50893 11.8555C9.73615 11.9913 10.0079 12.0315 10.2648 11.9673C10.5216 11.903 10.7424 11.7396 10.8789 11.5128C11.0155 11.286 11.0565 11.0143 10.993 10.7573L9.2357 3.72754C9.11226 3.23408 8.82744 2.79604 8.42649 2.48303C8.02554 2.17002 7.53147 2 7.02281 2C6.51414 2 6.02008 2.17002 5.61913 2.48303C5.21818 2.79604 4.93335 3.23408 4.80992 3.72754L3.0526 10.7573C2.98914 11.0143 3.03017 11.286 3.16668 11.5128C3.3032 11.7396 3.52406 11.903 3.78087 11.9673C4.03768 12.0315 4.30947 11.9913 4.53669 11.8555C4.76391 11.7197 4.92801 11.4993 4.99303 11.2427L5.55364 9H8.49199L9.0526 11.2427ZM6.05364 7L6.75035 4.21289C6.77128 4.15756 6.80855 4.10991 6.85722 4.07628C6.90589 4.04266 6.96365 4.02465 7.02281 4.02465C7.08196 4.02465 7.13972 4.04266 7.18839 4.07628C7.23706 4.10991 7.27434 4.15756 7.29527 4.21289L7.99199 7H6.05364Z" fill="#70A9ED"/>
</svg>
