<svg width="24" height="24" viewBox="0 0 24 24" fill="none" xmlns="http://www.w3.org/2000/svg">
<path d="M21.3624 3.95103C21.5142 4.3171 21.4517 4.6296 21.1749 4.88853L14.5723 11.4912V21.4287C14.5723 21.8037 14.3982 22.0671 14.0499 22.2189C13.9339 22.2635 13.8223 22.2859 13.7151 22.2859C13.4741 22.2859 13.2732 22.201 13.1124 22.0314L9.68387 18.6028C9.51423 18.4332 9.42941 18.2323 9.42941 18.0001V11.4912L2.82673 4.88853C2.54994 4.6296 2.48744 4.3171 2.63923 3.95103C2.79102 3.60282 3.05441 3.42871 3.42941 3.42871H20.5723C20.9473 3.42871 21.2107 3.60282 21.3624 3.95103Z" fill="#2B2D60"/>
</svg>
