<svg width="20" height="20" viewBox="0 0 20 20" fill="none" xmlns="http://www.w3.org/2000/svg">
<path d="M1.25 4.3749H1.33875C1.47517 4.91089 1.78629 5.38615 2.22295 5.7256C2.65961 6.06504 3.19692 6.24932 3.75 6.24932C4.30308 6.24932 4.84039 6.06504 5.27705 5.7256C5.71371 5.38615 6.02483 4.91089 6.16125 4.3749H18.75C18.9158 4.3749 19.0747 4.30906 19.1919 4.19185C19.3092 4.07464 19.375 3.91566 19.375 3.7499C19.375 3.58414 19.3092 3.42517 19.1919 3.30796C19.0747 3.19075 18.9158 3.1249 18.75 3.1249H6.16125C6.02483 2.58891 5.71371 2.11366 5.27705 1.77421C4.84039 1.43477 4.30308 1.25049 3.75 1.25049C3.19692 1.25049 2.65961 1.43477 2.22295 1.77421C1.78629 2.11366 1.47517 2.58891 1.33875 3.1249H1.25C1.08424 3.1249 0.925268 3.19075 0.808058 3.30796C0.690848 3.42517 0.625 3.58414 0.625 3.7499C0.625 3.91566 0.690848 4.07464 0.808058 4.19185C0.925268 4.30906 1.08424 4.3749 1.25 4.3749ZM3.75 2.4999C3.99723 2.4999 4.2389 2.57322 4.44446 2.71057C4.65002 2.84792 4.81024 3.04314 4.90485 3.27155C4.99946 3.49996 5.02421 3.75129 4.97598 3.99377C4.92775 4.23624 4.8087 4.45897 4.63388 4.63379C4.45907 4.8086 4.23634 4.92765 3.99386 4.97589C3.75139 5.02412 3.50005 4.99936 3.27165 4.90475C3.04324 4.81014 2.84801 4.64993 2.71066 4.44437C2.57331 4.23881 2.5 3.99713 2.5 3.7499C2.5 3.41838 2.6317 3.10044 2.86612 2.86602C3.10054 2.6316 3.41848 2.4999 3.75 2.4999ZM18.75 9.3749H18.6612C18.5248 8.83891 18.2137 8.36366 17.7771 8.02421C17.3404 7.68477 16.8031 7.50049 16.25 7.50049C15.6969 7.50049 15.1596 7.68477 14.7229 8.02421C14.2863 8.36366 13.9752 8.83891 13.8387 9.3749H1.25C1.08424 9.3749 0.925268 9.44075 0.808058 9.55796C0.690848 9.67517 0.625 9.83414 0.625 9.9999C0.625 10.1657 0.690848 10.3246 0.808058 10.4418C0.925268 10.5591 1.08424 10.6249 1.25 10.6249H13.8387C13.9752 11.1609 14.2863 11.6362 14.7229 11.9756C15.1596 12.315 15.6969 12.4993 16.25 12.4993C16.8031 12.4993 17.3404 12.315 17.7771 11.9756C18.2137 11.6362 18.5248 11.1609 18.6612 10.6249H18.75C18.9158 10.6249 19.0747 10.5591 19.1919 10.4418C19.3092 10.3246 19.375 10.1657 19.375 9.9999C19.375 9.83414 19.3092 9.67517 19.1919 9.55796C19.0747 9.44075 18.9158 9.3749 18.75 9.3749ZM16.25 11.2499C16.0028 11.2499 15.7611 11.1766 15.5555 11.0392C15.35 10.9019 15.1898 10.7067 15.0951 10.4783C15.0005 10.2499 14.9758 9.99852 15.024 9.75604C15.0722 9.51357 15.1913 9.29084 15.3661 9.11602C15.5409 8.94121 15.7637 8.82215 16.0061 8.77392C16.2486 8.72569 16.4999 8.75045 16.7284 8.84505C16.9568 8.93966 17.152 9.09988 17.2893 9.30544C17.4267 9.511 17.5 9.75268 17.5 9.9999C17.5 10.3314 17.3683 10.6494 17.1339 10.8838C16.8995 11.1182 16.5815 11.2499 16.25 11.2499ZM18.75 15.6249H12.4113C12.2748 15.0889 11.9637 14.6137 11.5271 14.2742C11.0904 13.9348 10.5531 13.7505 10 13.7505C9.44692 13.7505 8.90961 13.9348 8.47295 14.2742C8.03629 14.6137 7.72517 15.0889 7.58875 15.6249H1.25C1.08424 15.6249 0.925268 15.6908 0.808058 15.808C0.690848 15.9252 0.625 16.0841 0.625 16.2499C0.625 16.4157 0.690848 16.5746 0.808058 16.6918C0.925268 16.8091 1.08424 16.8749 1.25 16.8749H7.58875C7.72517 17.4109 8.03629 17.8862 8.47295 18.2256C8.90961 18.565 9.44692 18.7493 10 18.7493C10.5531 18.7493 11.0904 18.565 11.5271 18.2256C11.9637 17.8862 12.2748 17.4109 12.4113 16.8749H18.75C18.9158 16.8749 19.0747 16.8091 19.1919 16.6918C19.3092 16.5746 19.375 16.4157 19.375 16.2499C19.375 16.0841 19.3092 15.9252 19.1919 15.808C19.0747 15.6908 18.9158 15.6249 18.75 15.6249ZM10 17.4999C9.75277 17.4999 9.5111 17.4266 9.30554 17.2892C9.09998 17.1519 8.93976 16.9567 8.84515 16.7283C8.75054 16.4999 8.72579 16.2485 8.77402 16.006C8.82225 15.7636 8.9413 15.5408 9.11612 15.366C9.29093 15.1912 9.51366 15.0722 9.75614 15.0239C9.99861 14.9757 10.2499 15.0004 10.4784 15.0951C10.7068 15.1897 10.902 15.3499 11.0393 15.5554C11.1767 15.761 11.25 16.0027 11.25 16.2499C11.25 16.5814 11.1183 16.8994 10.8839 17.1338C10.6495 17.3682 10.3315 17.4999 10 17.4999Z" fill="#015696"/>
</svg>
