<svg width="60" height="60" viewBox="0 0 60 60" fill="none" xmlns="http://www.w3.org/2000/svg">
<rect x="0.5" y="0.5" width="59" height="59" rx="19.5" stroke="#C8DDEC"/>
<g clip-path="url(#clip0_251_1798)">
<path d="M30 47C39.3888 47 47 39.3888 47 30C47 20.6112 39.3888 13 30 13C20.6112 13 13 20.6112 13 30C13 39.3888 20.6112 47 30 47Z" fill="#1E6DFF"/>
<path d="M28.1406 29.7344C28.1406 29.7344 29.7344 29.142 29.7344 27.0781C29.7344 25.0142 28.3691 24.1562 26.5469 24.1562H20.4375V35.8438H26.5469C26.5469 35.8438 30 35.8438 30 32.3906C30 32.3906 30 29.7344 28.1406 29.7344ZM23.0938 26.2812H26.5469C26.5469 26.2812 27.3438 26.2812 27.3438 27.3438C27.3438 28.5444 26.8125 28.6719 26.2812 28.6719H23.0938V26.2812ZM26.2812 33.7188H23.0938V30.7969L26.438 30.7783C26.438 30.7783 27.6094 30.7969 27.6094 32.3906C27.6094 33.7188 26.762 33.7055 26.2812 33.7188ZM35.517 27.0463C31.0837 27.0463 31.0864 31.4769 31.0864 31.4769C31.0864 31.4769 30.842 35.8438 35.5781 35.8438C35.5781 35.8438 39.5625 36.213 39.5625 32.9219H37.4375C37.4375 32.9219 37.5012 34.0588 35.5781 34.0588C35.5781 34.0588 33.4531 34.2686 33.4531 32.125H39.5625C39.5625 32.125 40.1841 27.0463 35.517 27.0463ZM37.4375 30.5312H33.4531C33.4531 30.5312 33.7825 28.7356 35.5622 28.7356C37.3419 28.7356 37.4375 30.5312 37.4375 30.5312ZM32.9219 24.6875H37.9688V26.2812H32.9219V24.6875Z" fill="white"/>
</g>
<defs>
<clipPath id="clip0_251_1798">
<rect width="34" height="34" fill="white" transform="translate(13 13)"/>
</clipPath>
</defs>
</svg>
