<svg width="16" height="19" viewBox="0 0 16 19" fill="none" xmlns="http://www.w3.org/2000/svg">
<path d="M7.9926 0C5.15351 0 2.84103 2.39783 2.84103 5.3417C2.84043 5.40534 2.84971 5.46867 2.8685 5.52926C2.91659 7.4036 3.69963 9.04291 4.62004 10.5623C5.57251 12.1328 6.67495 13.6047 7.38243 15.1075C7.42895 15.2065 7.50112 15.2902 7.59087 15.3491C7.68062 15.408 7.7844 15.4399 7.89062 15.4411C7.99683 15.4423 8.10128 15.4129 8.19228 15.3561C8.28328 15.2993 8.35723 15.2173 8.40587 15.1194C9.14999 13.6178 10.3085 12.1435 11.3091 10.5742C12.3085 9.00492 13.1625 7.30982 13.1625 5.3512C13.1635 5.27578 13.1507 5.20085 13.1247 5.13041C13.0137 2.28744 10.7619 0 7.9926 0ZM7.9926 1.18705C10.2135 1.18705 11.9994 3.04002 11.9994 5.3417C11.9988 5.38434 12.0026 5.42693 12.0108 5.46872C11.9765 7.02137 11.285 8.46007 10.3543 9.92014C9.5667 11.1558 8.67605 12.4319 7.90789 13.7579C7.17866 12.4379 6.33838 11.1642 5.59083 9.93201C4.683 8.43277 4.00414 6.95846 4.00414 5.35001C4.004 5.31538 4.00094 5.28082 3.99498 5.24674C4.01538 4.16186 4.44569 3.12864 5.19332 2.3694C5.94095 1.61017 6.94614 1.18559 7.9926 1.18705ZM7.9926 3.56351C7.05158 3.56351 6.27541 4.36833 6.27541 5.34408C6.27541 6.31983 7.05158 7.12464 7.9926 7.12464C8.93477 7.12464 9.7098 6.31983 9.7098 5.34408C9.7098 4.36833 8.93477 3.56351 7.9926 3.56351ZM7.9926 4.75055C8.31544 4.75055 8.565 5.00933 8.565 5.34408C8.565 5.67882 8.31544 5.9376 7.9926 5.9376C7.91714 5.93872 7.84222 5.92413 7.77229 5.8947C7.70235 5.86527 7.63882 5.82159 7.58545 5.76625C7.53208 5.71092 7.48996 5.64504 7.46158 5.57253C7.4332 5.50001 7.41913 5.42233 7.42021 5.34408C7.42021 5.00933 7.66977 4.75055 7.9926 4.75055ZM12.6748 10.9552C12.5414 10.9556 12.4124 11.0042 12.3099 11.0927C12.2074 11.1812 12.1379 11.3041 12.1135 11.44C12.0891 11.576 12.1112 11.7165 12.1761 11.8374C12.2409 11.9582 12.3444 12.0518 12.4688 12.1019C13.6101 12.5815 14.3439 13.2094 14.6599 13.7875C14.977 14.3656 14.969 14.8654 14.5557 15.4803C13.7257 16.71 11.0801 17.7997 8.06015 17.8128C5.03904 17.8247 2.35678 16.7646 1.47987 15.5313C1.04141 14.914 1.01966 14.4119 1.31387 13.8362C1.60923 13.2617 2.31557 12.6278 3.43861 12.1387C3.51116 12.111 3.57753 12.0683 3.63374 12.0133C3.68994 11.9582 3.7348 11.8919 3.76561 11.8184C3.79642 11.7448 3.81255 11.6656 3.81302 11.5854C3.81349 11.5053 3.79829 11.4258 3.76834 11.3519C3.73839 11.278 3.6943 11.2111 3.63875 11.1554C3.5832 11.0996 3.51732 11.0561 3.44511 11.0275C3.37289 10.9988 3.29583 10.9857 3.21857 10.9888C3.14131 10.9918 3.06545 11.0111 2.99558 11.0455C1.71341 11.6034 0.77811 12.3536 0.303021 13.2807C-0.172069 14.2066 -0.0896435 15.3248 0.55831 16.2364C1.85422 18.0573 4.80664 19.0141 8.06702 18.9998C11.3262 18.9856 14.2512 18.0063 15.4944 16.1628C16.1161 15.2405 16.1584 14.1175 15.6547 13.2011C15.1533 12.2847 14.1974 11.5464 12.898 11.0015C12.8275 10.9704 12.7515 10.9542 12.6748 10.9541V10.9552Z" fill="black"/>
</svg>
