<svg width="24" height="24" viewBox="0 0 24 24" fill="none" xmlns="http://www.w3.org/2000/svg">
<path d="M17 2.25H5C4.53668 2.25263 4.09309 2.43784 3.76546 2.76546C3.43784 3.09309 3.25263 3.53668 3.25 4V20C3.25263 20.4633 3.43784 20.9069 3.76546 21.2345C4.09309 21.5622 4.53668 21.7474 5 21.75H17C17.4633 21.7474 17.9069 21.5622 18.2345 21.2345C18.5622 20.9069 18.7474 20.4633 18.75 20V4C18.7474 3.53668 18.5622 3.09309 18.2345 2.76546C17.9069 2.43784 17.4633 2.25263 17 2.25ZM17.25 20C17.25 20.0663 17.2237 20.1299 17.1768 20.1768C17.1299 20.2237 17.0663 20.25 17 20.25H5C4.9337 20.25 4.87011 20.2237 4.82322 20.1768C4.77634 20.1299 4.75 20.0663 4.75 20V4C4.75 3.9337 4.77634 3.87011 4.82322 3.82322C4.87011 3.77634 4.9337 3.75 5 3.75H17C17.0663 3.75 17.1299 3.77634 17.1768 3.82322C17.2237 3.87011 17.25 3.9337 17.25 4V20ZM7.87 12C7.87 12.1989 7.94902 12.3897 8.08967 12.5303C8.23032 12.671 8.42109 12.75 8.62 12.75C8.81891 12.75 9.00968 12.671 9.15033 12.5303C9.29098 12.3897 9.37 12.1989 9.37 12C9.37 11.5677 9.54173 11.1531 9.84742 10.8474C10.1531 10.5417 10.5677 10.37 11 10.37C11.4323 10.37 11.8469 10.5417 12.1526 10.8474C12.4583 11.1531 12.63 11.5677 12.63 12C12.63 12.1989 12.709 12.3897 12.8497 12.5303C12.9903 12.671 13.1811 12.75 13.38 12.75C13.5789 12.75 13.7697 12.671 13.9103 12.5303C14.051 12.3897 14.13 12.1989 14.13 12C14.1297 11.5078 14.0126 11.0228 13.7884 10.5847C13.5641 10.1466 13.2391 9.76801 12.84 9.48C13.2879 9.01531 13.5387 8.3954 13.54 7.75C13.54 7.07635 13.2724 6.43029 12.7961 5.95395C12.3197 5.47761 11.6736 5.21 11 5.21C10.3264 5.21 9.68029 5.47761 9.20395 5.95395C8.72761 6.43029 8.46 7.07635 8.46 7.75C8.46128 8.3954 8.7121 9.01531 9.16 9.48C8.76092 9.76801 8.4359 10.1466 8.21164 10.5847C7.98738 11.0228 7.87029 11.5078 7.87 12ZM11 6.71C11.1978 6.71 11.3911 6.76865 11.5556 6.87853C11.72 6.98841 11.8482 7.14459 11.9239 7.32732C11.9996 7.51004 12.0194 7.71111 11.9808 7.90509C11.9422 8.09907 11.847 8.27725 11.7071 8.41711C11.5673 8.55696 11.3891 8.6522 11.1951 8.69079C11.0011 8.72937 10.8 8.70957 10.6173 8.63388C10.4346 8.55819 10.2784 8.43002 10.1685 8.26557C10.0586 8.10112 10 7.90778 10 7.71C10 7.44478 10.1054 7.19043 10.2929 7.00289C10.4804 6.81536 10.7348 6.71 11 6.71ZM14.75 18C14.7474 18.1981 14.6676 18.3874 14.5275 18.5275C14.3874 18.6676 14.1981 18.7474 14 18.75H8C7.80109 18.75 7.61032 18.671 7.46967 18.5303C7.32902 18.3897 7.25 18.1989 7.25 18C7.25 17.8011 7.32902 17.6103 7.46967 17.4697C7.61032 17.329 7.80109 17.25 8 17.25H14C14.1981 17.2526 14.3874 17.3324 14.5275 17.4725C14.6676 17.6126 14.7474 17.8019 14.75 18ZM14.75 15C14.7474 15.1981 14.6676 15.3874 14.5275 15.5275C14.3874 15.6676 14.1981 15.7474 14 15.75H8C7.80109 15.75 7.61032 15.671 7.46967 15.5303C7.32902 15.3897 7.25 15.1989 7.25 15C7.25 14.8011 7.32902 14.6103 7.46967 14.4697C7.61032 14.329 7.80109 14.25 8 14.25H14C14.1981 14.2526 14.3874 14.3324 14.5275 14.4725C14.6676 14.6126 14.7474 14.8019 14.75 15Z" fill="#C8DDEC"/>
</svg>
