<svg width="24" height="24" viewBox="0 0 24 24" fill="none" xmlns="http://www.w3.org/2000/svg">
<path d="M11.9997 5C10.2444 5.00004 8.51999 5.46214 6.99984 6.33984C5.47968 7.21754 4.21734 8.47993 3.33968 10.0001C2.46203 11.5203 1.99999 13.2447 2 15.0001C2.00001 16.7554 2.46207 18.4798 3.33975 20C3.47235 20.2307 3.69119 20.3993 3.94812 20.4687C4.20504 20.5381 4.47901 20.5026 4.70975 20.37C4.94048 20.2374 5.10909 20.0186 5.17848 19.7616C5.24787 19.5047 5.21235 19.2307 5.07975 19C4.37119 17.7861 3.99843 16.4055 3.99975 15C4.00022 13.7732 4.28285 12.5629 4.82577 11.4628C5.36869 10.3626 6.15736 9.40208 7.13079 8.65541C8.10423 7.90875 9.23635 7.39597 10.4396 7.15672C11.6429 6.91747 12.885 6.95816 14.0701 7.27565C15.2551 7.59313 16.3512 8.17891 17.2737 8.98768C18.1962 9.79646 18.9203 10.8066 19.39 11.9399C19.8598 13.0732 20.0626 14.2994 19.9828 15.5236C19.903 16.7478 19.5427 17.9373 18.9297 19C18.8636 19.1141 18.8207 19.2402 18.8036 19.371C18.7864 19.5018 18.7952 19.6347 18.8296 19.762C18.864 19.8893 18.9233 20.0086 19.0039 20.113C19.0846 20.2173 19.1852 20.3047 19.2997 20.37C19.5294 20.5004 19.8012 20.5346 20.056 20.4653C20.3108 20.396 20.5278 20.2287 20.6597 20C21.5374 18.4798 21.9995 16.7554 21.9995 15.0001C21.9995 13.2447 21.5375 11.5203 20.6598 10.0001C19.7822 8.47993 18.5198 7.21754 16.9997 6.33984C15.4795 5.46214 13.7551 5.00004 11.9997 5ZM14.8397 10.76L13.2897 12.3C12.8885 12.1022 12.4471 11.9995 11.9997 12C11.4064 12 10.8264 12.1759 10.333 12.5056C9.83969 12.8352 9.45517 13.3038 9.22811 13.8519C9.00104 14.4001 8.94163 15.0033 9.05739 15.5853C9.17315 16.1672 9.45887 16.7018 9.87843 17.1213C10.298 17.5409 10.8325 17.8266 11.4145 17.9424C11.9964 18.0581 12.5996 17.9987 13.1478 17.7716C13.696 17.5446 14.1645 17.1601 14.4942 16.6667C14.8238 16.1734 14.9997 15.5933 14.9997 15C14.9991 14.556 14.8964 14.1181 14.6997 13.72L16.2497 12.18C16.3435 12.087 16.4179 11.9764 16.4686 11.8546C16.5194 11.7327 16.5455 11.602 16.5455 11.47C16.5455 11.338 16.5194 11.2073 16.4686 11.0854C16.4179 10.9636 16.3435 10.853 16.2497 10.76C16.0624 10.5737 15.8089 10.4692 15.5447 10.4692C15.2806 10.4692 15.0271 10.5737 14.8397 10.76ZM11.9997 16C11.7345 16 11.4802 15.8946 11.2926 15.7071C11.1051 15.5196 10.9997 15.2652 10.9997 15C10.9997 14.7348 11.1051 14.4804 11.2926 14.2929C11.4802 14.1054 11.7345 14 11.9997 14C12.2607 13.9984 12.5119 14.0989 12.6997 14.28C12.7954 14.3738 12.8713 14.4859 12.9228 14.6095C12.9744 14.7332 13.0005 14.866 12.9997 15C12.9997 15.2652 12.8944 15.5196 12.7069 15.7071C12.5193 15.8946 12.265 16 11.9997 16Z" fill="#C8E1F4"/>
</svg>
