<svg width="16" height="16" viewBox="0 0 16 16" fill="none" xmlns="http://www.w3.org/2000/svg">
<g clip-path="url(#clip0_249_1091)">
<path d="M13.3558 0.469796C13.0608 0.174781 12.5908 0.174781 12.2958 0.469796L6.60082 6.16478C6.51082 6.2498 6.45082 6.35978 6.41082 6.47978L5.48082 9.58479C5.40081 9.8498 5.47582 10.1348 5.67082 10.3298C5.81081 10.4748 6.00581 10.5498 6.20082 10.5498C6.2708 10.5498 6.34581 10.5398 6.41582 10.5198L9.5208 9.58979C9.64082 9.54978 9.75081 9.48978 9.8358 9.39979L15.5308 3.70478C15.6708 3.5648 15.7508 3.3748 15.7508 3.17479C15.7508 2.97481 15.6708 2.7848 15.5308 2.64479L13.3558 0.469796Z" fill="white"/>
<path d="M15 7.25C14.5857 7.25 14.25 7.58594 14.25 8V13C14.25 13.6895 13.6892 14.25 13 14.25H3C2.31079 14.25 1.75 13.6895 1.75 13V3C1.75 2.31054 2.31079 1.75 3 1.75H8C8.4143 1.75 8.75 1.41406 8.75 1C8.75 0.58594 8.4143 0.25 8 0.25H3C1.48364 0.25 0.25 1.48389 0.25 3V13C0.25 14.5161 1.48364 15.75 3 15.75H13C14.5164 15.75 15.75 14.5161 15.75 13V8C15.75 7.58594 15.4143 7.25 15 7.25Z" fill="white"/>
</g>
<defs>
<clipPath id="clip0_249_1091">
<rect width="16" height="16" fill="white"/>
</clipPath>
</defs>
</svg>
