<svg width="55" height="55" viewBox="0 0 55 55" fill="none" xmlns="http://www.w3.org/2000/svg">
<rect x="0.5" y="0.5" width="54" height="54" stroke="#015696" stroke-linecap="round" stroke-linejoin="round" stroke-dasharray="5 6"/>
<g clip-path="url(#clip0_249_1115)">
<path d="M38.6694 47H15.3306C14.7127 46.9992 14.1204 46.7575 13.6835 46.328C13.2466 45.8985 13.0008 45.3162 13 44.7088V39.4727C13 39.2707 13.0816 39.0769 13.2269 38.9341C13.3722 38.7912 13.5693 38.711 13.7748 38.711C13.9803 38.711 14.1773 38.7912 14.3226 38.9341C14.4679 39.0769 14.5496 39.2707 14.5496 39.4727V44.7088C14.5498 44.9123 14.6321 45.1075 14.7785 45.2515C14.925 45.3954 15.1235 45.4764 15.3306 45.4766H38.6694C38.8765 45.4764 39.075 45.3954 39.2215 45.2515C39.3679 45.1075 39.4502 44.9123 39.4504 44.7088V39.4727C39.4504 39.2707 39.5321 39.0769 39.6774 38.9341C39.8227 38.7912 40.0197 38.711 40.2252 38.711C40.4307 38.711 40.6278 38.7912 40.7731 38.9341C40.9184 39.0769 41 39.2707 41 39.4727V44.7088C40.9992 45.3162 40.7534 45.8985 40.3165 46.328C39.8796 46.7575 39.2873 46.9992 38.6694 47ZM40.2252 34.1353C40.0197 34.1353 39.8227 34.0551 39.6774 33.9122C39.5321 33.7694 39.4504 33.5756 39.4504 33.3736V14.7488C39.4488 14.5447 39.3653 14.3495 39.218 14.2057L34.687 9.75195C34.541 9.60726 34.3427 9.52513 34.1354 9.52344H15.3306C15.1235 9.52364 14.925 9.6046 14.7785 9.74855C14.6321 9.8925 14.5498 10.0877 14.5496 10.2912V33.3538C14.5496 33.5558 14.4679 33.7496 14.3226 33.8924C14.1773 34.0353 13.9803 34.1155 13.7748 34.1155C13.5693 34.1155 13.3722 34.0353 13.2269 33.8924C13.0816 33.7496 13 33.5558 13 33.3538V10.2912C13.0006 9.68376 13.2464 9.10132 13.6833 8.67176C14.1202 8.2422 14.7126 8.0006 15.3306 8H34.1354C34.7531 8.00182 35.3452 8.24293 35.7834 8.67107L40.3166 13.1287C40.7528 13.559 40.9984 14.1413 41 14.7488V33.3736C41 33.5756 40.9184 33.7694 40.7731 33.9122C40.6278 34.0551 40.4307 34.1353 40.2252 34.1353Z" fill="#015696"/>
<path d="M40.085 14.8774H34.7792C34.5738 14.8774 34.3767 14.7971 34.2314 14.6543C34.0861 14.5114 34.0045 14.3177 34.0045 14.1157V8.89941C34.0045 8.69739 34.0861 8.50365 34.2314 8.3608C34.3767 8.21795 34.5738 8.1377 34.7792 8.1377C34.9847 8.1377 35.1818 8.21795 35.3271 8.3608C35.4724 8.50365 35.554 8.69739 35.554 8.89941V13.3539H40.085C40.2905 13.3539 40.4875 13.4342 40.6328 13.577C40.7781 13.7199 40.8598 13.9136 40.8598 14.1157C40.8598 14.3177 40.7781 14.5114 40.6328 14.6543C40.4875 14.7971 40.2905 14.8774 40.085 14.8774ZM40.2252 43.176H13.7748C13.5693 43.176 13.3722 43.0957 13.2269 42.9529C13.0816 42.81 13 42.6163 13 42.4143V30.4119C13 30.2099 13.0816 30.0161 13.2269 29.8733C13.3722 29.7304 13.5693 29.6502 13.7748 29.6502H40.2252C40.4307 29.6502 40.6278 29.7304 40.7731 29.8733C40.9184 30.0161 41 30.2099 41 30.4119V42.4143C41 42.6163 40.9184 42.81 40.7731 42.9529C40.6278 43.0957 40.4307 43.176 40.2252 43.176ZM14.5496 41.6526H39.4504V31.1736H14.5496V41.6526Z" fill="#015696"/>
<path d="M17.6766 39.8397C17.4711 39.8397 17.2741 39.7595 17.1288 39.6166C16.9835 39.4738 16.9018 39.28 16.9018 39.078C16.9018 39.078 16.8956 37.144 16.8956 36.4029C16.8956 35.7935 16.8956 33.7429 16.8956 33.7429C16.8956 33.5409 16.9773 33.3472 17.1226 33.2043C17.2679 33.0615 17.4649 32.9812 17.6704 32.9812H19.065C20.7208 32.9843 21.8318 34.3622 21.8318 36.412C21.8318 38.3628 20.6913 39.7994 19.1201 39.8291C18.7203 39.8367 17.7216 39.8413 17.6797 39.8413L17.6766 39.8397ZM18.4429 34.5077C18.4429 35.1575 18.4429 36.0418 18.4429 36.4074C18.4429 36.8424 18.4429 37.6902 18.4429 38.3117C18.6877 38.3117 18.9341 38.3072 19.0844 38.3049C19.9103 38.2912 20.2822 37.3146 20.2822 36.412C20.2822 36.0944 20.2234 34.5077 19.0643 34.5077H18.4429ZM26.4805 39.8397C25.791 39.8397 25.1169 39.6387 24.5435 39.2621C23.9702 38.8854 23.5233 38.3501 23.2594 37.7237C22.9955 37.0974 22.9265 36.4082 23.061 35.7433C23.1955 35.0784 23.5276 34.4676 24.0152 33.9882C24.5028 33.5089 25.124 33.1824 25.8003 33.0501C26.4767 32.9179 27.1777 32.9858 27.8148 33.2452C28.4518 33.5046 28.9964 33.944 29.3795 34.5077C29.7626 35.0714 29.9671 35.7341 29.9671 36.412C29.9656 37.3207 29.5978 38.1917 28.9443 38.8342C28.2908 39.4767 27.4048 39.8383 26.4805 39.8397ZM26.4805 34.5077C26.0974 34.5077 25.7229 34.6194 25.4044 34.8286C25.0859 35.0379 24.8376 35.3353 24.691 35.6833C24.5444 36.0312 24.506 36.4141 24.5808 36.7835C24.6555 37.1529 24.84 37.4922 25.1109 37.7586C25.3818 38.0249 25.7269 38.2062 26.1026 38.2797C26.4784 38.3532 26.8678 38.3155 27.2218 38.1714C27.5757 38.0272 27.8782 37.7831 28.0911 37.47C28.3039 37.1568 28.4175 36.7886 28.4175 36.412C28.4175 35.907 28.2134 35.4226 27.8502 35.0655C27.4869 34.7083 26.9942 34.5077 26.4805 34.5077ZM34.622 39.8397C34.0773 39.839 33.5404 39.7127 33.0543 39.4712C32.5682 39.2296 32.1465 38.8795 31.8228 38.4488C31.4992 38.0181 31.2827 37.5189 31.1907 36.9911C31.0986 36.4633 31.1337 35.9217 31.293 35.4096C31.4522 34.8976 31.7313 34.4293 32.1079 34.0424C32.4844 33.6555 32.9479 33.3607 33.4612 33.1816C33.9745 33.0025 34.5233 32.9442 35.0637 33.0113C35.6041 33.0783 36.1209 33.2689 36.5729 33.5678C36.7432 33.6809 36.8609 33.8559 36.9 34.0543C36.9391 34.2527 36.8964 34.4583 36.7813 34.6258C36.6662 34.7933 36.4882 34.9089 36.2864 34.9474C36.0846 34.9858 35.8755 34.9438 35.7051 34.8307C35.454 34.665 35.167 34.5595 34.8669 34.5225C34.5669 34.4855 34.2622 34.5181 33.9773 34.6177C33.6924 34.7172 33.4351 34.881 33.2261 35.0958C33.0171 35.3107 32.8622 35.5706 32.7737 35.8549C32.6852 36.1392 32.6657 36.4399 32.7167 36.7329C32.7676 37.0259 32.8876 37.3032 33.0671 37.5424C33.2466 37.7817 33.4806 37.9763 33.7503 38.1106C34.0201 38.245 34.318 38.3155 34.6204 38.3163C34.8316 38.3268 35.0423 38.2888 35.2359 38.2054C35.4296 38.1219 35.6008 37.9954 35.7361 37.8357C35.8007 37.7566 35.8807 37.6911 35.9714 37.6429C36.0621 37.5946 36.1617 37.5647 36.2643 37.5548C36.3669 37.5449 36.4705 37.5552 36.569 37.5852C36.6675 37.6151 36.7589 37.6641 36.8379 37.7293C36.9169 37.7944 36.9819 37.8744 37.0291 37.9645C37.0762 38.0547 37.1046 38.1532 37.1125 38.2543C37.1204 38.3553 37.1078 38.4569 37.0753 38.5531C37.0427 38.6493 36.991 38.7382 36.9231 38.8145C36.6429 39.1448 36.2904 39.4086 35.892 39.5862C35.4935 39.7637 35.0593 39.8504 34.622 39.8397ZM23.8873 13.3472H17.6635C17.458 13.3472 17.2609 13.2669 17.1156 13.1241C16.9703 12.9812 16.8887 12.7875 16.8887 12.5854C16.8887 12.3834 16.9703 12.1897 17.1156 12.0468C17.2609 11.904 17.458 11.8237 17.6635 11.8237H23.8873C24.0928 11.8237 24.2899 11.904 24.4352 12.0468C24.5805 12.1897 24.6621 12.3834 24.6621 12.5854C24.6621 12.7875 24.5805 12.9812 24.4352 13.1241C24.2899 13.2669 24.0928 13.3472 23.8873 13.3472ZM36.3343 17.9365H17.6635C17.458 17.9365 17.2609 17.8563 17.1156 17.7134C16.9703 17.5706 16.8887 17.3768 16.8887 17.1748C16.8887 16.9728 16.9703 16.779 17.1156 16.6362C17.2609 16.4933 17.458 16.4131 17.6635 16.4131H36.3358C36.5413 16.4131 36.7384 16.4933 36.8837 16.6362C37.029 16.779 37.1106 16.9728 37.1106 17.1748C37.1106 17.3768 37.029 17.5706 36.8837 17.7134C36.7384 17.8563 36.5413 17.9365 36.3358 17.9365H36.3343ZM36.3343 22.5251H17.6635C17.458 22.5251 17.2609 22.4449 17.1156 22.302C16.9703 22.1592 16.8887 21.9654 16.8887 21.7634C16.8887 21.5614 16.9703 21.3676 17.1156 21.2248C17.2609 21.0819 17.458 21.0017 17.6635 21.0017H36.3358C36.5413 21.0017 36.7384 21.0819 36.8837 21.2248C37.029 21.3676 37.1106 21.5614 37.1106 21.7634C37.1106 21.9654 37.029 22.1592 36.8837 22.302C36.7384 22.4449 36.5413 22.5251 36.3358 22.5251H36.3343ZM36.3343 27.1145H17.6635C17.458 27.1145 17.2609 27.0342 17.1156 26.8914C16.9703 26.7485 16.8887 26.5548 16.8887 26.3528C16.8887 26.1507 16.9703 25.957 17.1156 25.8141C17.2609 25.6713 17.458 25.591 17.6635 25.591H36.3358C36.5413 25.591 36.7384 25.6713 36.8837 25.8141C37.029 25.957 37.1106 26.1507 37.1106 26.3528C37.1106 26.5548 37.029 26.7485 36.8837 26.8914C36.7384 27.0342 36.5413 27.1145 36.3358 27.1145H36.3343Z" fill="#015696"/>
</g>
<defs>
<clipPath id="clip0_249_1115">
<rect width="28" height="39" fill="white" transform="translate(13 8)"/>
</clipPath>
</defs>
</svg>
