<svg width="81" height="81" viewBox="0 0 81 81" fill="none" xmlns="http://www.w3.org/2000/svg">
<rect x="1" y="1" width="79" height="79" rx="26.2094" fill="#E0E9F5"/>
<rect x="1" y="1" width="79" height="79" rx="26.2094" stroke="#015696" stroke-width="2"/>
<path d="M40.0028 46.4753C32.5399 46.4753 26.49 40.4254 26.49 32.9625C26.49 25.4996 32.5399 19.4497 40.0028 19.4497C47.4657 19.4497 53.5156 25.4996 53.5156 32.9625C53.5156 40.4254 47.4657 46.4753 40.0028 46.4753Z" stroke="#015696" stroke-width="2" stroke-miterlimit="10"/>
<path d="M60.4863 58.2973C58.4097 54.7028 55.4236 51.7181 51.8282 49.643C48.2328 47.5679 44.1547 46.4755 40.0034 46.4756C35.8522 46.4756 31.774 47.5681 28.1787 49.6433C24.5833 51.7184 21.5974 54.7032 19.5208 58.2977" stroke="#015696" stroke-width="2" stroke-linecap="round" stroke-linejoin="round"/>
</svg>
