<svg width="24" height="24" viewBox="0 0 24 24" fill="none" xmlns="http://www.w3.org/2000/svg">
<path d="M16 12V19.132L11.555 16.168C11.3908 16.0586 11.1978 16.0002 11.0005 16.0002C10.8032 16.0002 10.6102 16.0586 10.446 16.168L6 19.132V4H18C18 2.898 17.103 2 16 2H6C4.897 2 4 2.898 4 4V21C4.00009 21.1809 4.04925 21.3584 4.14223 21.5135C4.23521 21.6687 4.36853 21.7957 4.528 21.8811C4.68747 21.9665 4.86711 22.007 5.04778 21.9983C5.22846 21.9897 5.40341 21.9322 5.554 21.832L11 18.202L16.445 21.831C16.5955 21.9314 16.7705 21.9891 16.9512 21.998C17.132 22.0068 17.3117 21.9664 17.4713 21.8811C17.6309 21.7958 17.7644 21.6688 17.8575 21.5137C17.9506 21.3585 17.9998 21.181 18 21V12H16Z" fill="#C8E1F4"/>
<path d="M10.9992 13.7682L7.11523 9.88421L8.88323 8.11621L10.9992 10.2322L15.1152 6.11621L16.8832 7.88421L10.9992 13.7682Z" fill="#C8E1F4"/>
</svg>
