<svg width="24" height="24" viewBox="0 0 24 24" fill="none" xmlns="http://www.w3.org/2000/svg">
<path d="M20.7604 9.05785C20.7168 9.09612 20.6722 9.13733 20.6286 9.18096C19.8702 9.93929 19.4477 10.9356 19.4477 12.0001C19.4477 13.0317 19.8462 14.0449 20.5987 14.7901C20.6537 14.8537 20.7092 14.907 20.758 14.9498C20.6295 15.3446 20.4664 15.7346 20.2787 16.1135C20.2186 16.112 20.1668 16.112 20.127 16.1121C20.1217 16.1121 20.1165 16.1121 20.1117 16.1121C17.9139 16.1121 16.1117 17.8693 16.1117 20.0881V20.0945C16.1117 20.1404 16.1117 20.1932 16.1133 20.2531C15.7419 20.4331 15.3483 20.5905 14.9362 20.7303C14.8995 20.6888 14.8602 20.6464 14.8188 20.605L14.5767 20.847L14.8188 20.605C14.0741 19.8603 13.0496 19.4481 11.9997 19.4481C10.9377 19.4481 9.94896 19.8683 9.19575 20.5901L9.18055 20.605C9.14071 20.6448 9.09914 20.6904 9.05843 20.7371C8.66067 20.6083 8.26783 20.4442 7.8862 20.2551C7.88774 20.195 7.8877 20.1432 7.88767 20.1034C7.88766 20.0981 7.88766 20.093 7.88766 20.0881C7.88766 17.8986 6.09071 16.1121 3.88766 16.1121H3.88128C3.83529 16.1121 3.78257 16.1121 3.72265 16.1137C3.54267 15.7423 3.38522 15.3487 3.24543 14.9366C3.28692 14.8999 3.3293 14.8606 3.37076 14.8192C4.9319 13.258 4.94379 10.7261 3.36743 9.17763L3.36553 9.17573C3.33473 9.14491 3.29289 9.10306 3.24 9.05455C3.36862 8.65825 3.53221 8.26687 3.72065 7.88662C3.78076 7.88815 3.83254 7.88811 3.87233 7.88808C3.87766 7.88808 3.88277 7.88807 3.88766 7.88807C6.08544 7.88807 7.88766 6.1308 7.88766 3.91207V3.9057C7.88766 3.85971 7.88766 3.80698 7.88604 3.74706C8.2574 3.56708 8.65102 3.40964 9.06316 3.26984C9.09981 3.31134 9.13909 3.35371 9.18055 3.39518C9.92519 4.13982 10.9497 4.55207 11.9997 4.55207C13.0617 4.55207 14.0504 4.13188 14.8036 3.41006L14.8188 3.39518C14.8586 3.35534 14.9002 3.30978 14.9409 3.26302C15.3386 3.39185 15.7315 3.55594 16.1131 3.74506C16.1116 3.80517 16.1116 3.85694 16.1117 3.89673C16.1117 3.90206 16.1117 3.90718 16.1117 3.91207C16.1117 6.10157 17.9086 7.88807 20.1117 7.88807H20.118C20.1645 7.88808 20.2179 7.88808 20.2786 7.8864C20.4676 8.26778 20.6316 8.66035 20.7604 9.05785Z" stroke="#C8E1F4" stroke-width="2" stroke-linejoin="round"/>
<circle cx="12" cy="12" r="4" stroke="#C8E1F4" stroke-width="2"/>
</svg>
