<svg width="20" height="16" viewBox="0 0 20 16" fill="none" xmlns="http://www.w3.org/2000/svg">
<g clip-path="url(#clip0_249_1094)">
<path d="M10.0004 4.30615C9.26984 4.30615 8.55569 4.52279 7.94825 4.92866C7.34082 5.33454 6.86738 5.91142 6.58781 6.58637C6.30824 7.26131 6.23509 8.004 6.37762 8.72052C6.52014 9.43703 6.87194 10.0952 7.38852 10.6118C7.9051 11.1284 8.56326 11.4802 9.27978 11.6227C9.99629 11.7652 10.739 11.6921 11.4139 11.4125C12.0889 11.1329 12.6658 10.6595 13.0716 10.052C13.4775 9.44461 13.6941 8.73046 13.6941 7.9999C13.693 7.02062 13.3034 6.0818 12.611 5.38934C11.9185 4.69689 10.9797 4.30734 10.0004 4.30615ZM10.0004 10.1937C9.56651 10.1937 9.14237 10.065 8.78161 9.82394C8.42085 9.58289 8.13967 9.24027 7.97363 8.83941C7.80759 8.43856 7.76415 7.99747 7.84879 7.57192C7.93344 7.14638 8.14238 6.75549 8.44918 6.44869C8.75598 6.14189 9.14687 5.93295 9.57241 5.8483C9.99796 5.76366 10.439 5.8071 10.8399 5.97314C11.2408 6.13918 11.5834 6.42036 11.8244 6.78112C12.0655 7.14188 12.1941 7.56602 12.1941 7.9999C12.1935 8.58154 11.9622 9.13918 11.5509 9.55046C11.1397 9.96174 10.582 10.1931 10.0004 10.1937Z" fill="#015696"/>
<path d="M19.936 7.62492C19.7777 7.35117 15.9932 0.919922 9.9992 0.919922C4.0052 0.919922 0.220703 7.35117 0.0624531 7.62492L-0.154297 7.99992L0.0624531 8.37492C0.220703 8.64867 4.00595 15.0799 9.9992 15.0799C15.9925 15.0799 19.7777 8.64867 19.936 8.37492L20.1527 7.99992L19.936 7.62492ZM9.9992 13.5799C5.63945 13.5799 2.4677 9.30492 1.5992 7.99917C2.46545 6.69042 5.6267 2.41992 9.9992 2.41992C14.359 2.41992 17.53 6.69492 18.3992 7.99992C17.53 9.30792 14.359 13.5799 9.9992 13.5799Z" fill="#015696"/>
</g>
<defs>
<clipPath id="clip0_249_1094">
<rect width="20" height="16" fill="white"/>
</clipPath>
</defs>
</svg>
