<svg width="24" height="16" viewBox="0 0 24 16" fill="none" xmlns="http://www.w3.org/2000/svg">
<path d="M13.3 12.3L13 12.6V9C13 8.4 12.6 8 12 8C11.4 8 11 8.4 11 9V12.6L10.7 12.3C10.3 11.9 9.7 11.9 9.3 12.3C8.9 12.7 8.9 13.3 9.3 13.7L11.3 15.7C11.4 15.8 11.5 15.9 11.6 15.9C11.7 16 11.9 16 12 16C12.1 16 12.3 16 12.4 15.9C12.5 15.8 12.6 15.8 12.7 15.7L14.7 13.7C15.1 13.3 15.1 12.7 14.7 12.3C14.3 11.9 13.7 11.9 13.3 12.3Z" fill="white"/>
<path d="M19.6 5.6C19.3 4.9 18.9 4.2 18.3 3.7C17.1 2.5 15.4 1.9 13.7 2.1C13.6 1.9 13.4 1.8 13.3 1.7C12.4 0.6 11 0 9.5 0C8 0 6.6 0.6 5.6 1.6C4.6 2.6 4 4 4 5.5V5.8C3.8 6 3.5 6.1 3.3 6.4C2.4 7.2 2 8.4 2 9.6C2 12 4 14 6.5 14C7.1 14 7.5 13.6 7.5 13C7.5 12.4 7.1 12 6.5 12C5.1 12 4 10.9 4 9.5C4 8.8 4.3 8.2 4.7 7.7C4.9 7.5 5.2 7.3 5.4 7.2C5.8 7 6.1 6.6 6 6.1V5.5C6 4.6 6.4 3.7 7 3C8.3 1.7 10.6 1.7 11.9 3C12.1 3.2 12.3 3.4 12.4 3.7C12.6 4.1 13.1 4.2 13.5 4.1C13.9 4 14.2 4 14.5 4C15.4 4 16.3 4.4 17 5C17.4 5.4 17.7 5.9 17.9 6.5C18 6.8 18.2 7 18.5 7.2C19.4 7.6 20 8.5 20 9.5C20 10.2 19.7 10.8 19.3 11.3C18.8 11.8 18.2 12 17.5 12C16.9 12 16.5 12.4 16.5 13C16.5 13.6 16.9 14 17.5 14C18.7 14 19.8 13.5 20.7 12.7C21.6 11.9 22 10.7 22 9.5C22 7.8 21.1 6.3 19.6 5.6Z" fill="white"/>
</svg>
