<?xml version="1.0" standalone="no"?>
<!DOCTYPE svg PUBLIC "-//W3C//DTD SVG 20010904//EN"
 "http://www.w3.org/TR/2001/REC-SVG-20010904/DTD/svg10.dtd">
<svg version="1.0" xmlns="http://www.w3.org/2000/svg"
 width="419.000000pt" height="419.000000pt" viewBox="0 0 419.000000 419.000000"
 preserveAspectRatio="xMidYMid meet">
<metadata>
Created by potrace 1.14, written by Peter Selinger 2001-2017
</metadata>
<g transform="translate(0.000000,419.000000) scale(0.100000,-0.100000)"
fill="#000000" stroke="none">
<path d="M1945 3520 l-580 -580 782 0 782 0 -82 -77 c-45 -43 -87 -82 -93 -88
-6 -5 -71 -67 -145 -136 -74 -69 -147 -137 -162 -152 -41 -37 -297 -278 -331
-310 -16 -15 -34 -26 -40 -23 -6 3 -55 35 -108 73 -54 37 -173 121 -265 185
-92 64 -195 136 -227 159 -33 23 -56 36 -51 28 8 -14 189 -278 380 -554 55
-79 138 -200 185 -269 47 -69 90 -125 95 -125 6 0 123 143 262 317 315 396
650 812 668 831 13 13 15 -90 14 -740 0 -415 1 -767 1 -782 0 -25 72 43 580
552 l580 580 0 845 0 846 -833 0 -832 0 -580 -580z m1731 105 c-20 -25 -53
-66 -73 -92 -21 -27 -40 -50 -43 -53 -3 -3 -21 -25 -40 -50 -19 -25 -42 -54
-52 -65 -10 -11 -52 -63 -94 -115 -42 -52 -83 -104 -92 -115 -10 -11 -70 -87
-135 -168 l-117 -148 0 60 0 60 -47 3 c-42 3 -45 5 -31 18 12 13 157 148 289
271 185 174 306 287 378 356 47 46 88 83 90 83 2 0 -13 -20 -33 -45z"/>
<path d="M583 2358 l-583 -582 0 -843 0 -843 834 0 835 0 579 579 c319 319
575 581 568 583 -6 2 -378 4 -826 4 l-815 -1 -5 843 -5 843 -582 -583z"/>
<path d="M1755 1865 c-16 -18 -111 -118 -210 -221 -195 -203 -229 -238 -284
-299 l-36 -39 50 39 c28 21 64 50 81 64 17 15 48 40 69 56 21 17 128 101 237
188 l199 158 -37 44 c-20 25 -37 45 -38 44 0 -1 -14 -16 -31 -34z"/>
<path d="M2361 1853 c-17 -21 -31 -40 -31 -43 0 -3 32 -31 72 -61 39 -29 76
-59 82 -64 6 -6 76 -62 156 -125 80 -62 147 -117 150 -120 3 -3 34 -28 70 -55
36 -27 71 -55 78 -62 7 -7 16 -13 19 -13 4 0 3 3 -1 8 -4 4 -78 81 -164 171
-232 244 -231 242 -311 325 -40 42 -77 76 -81 76 -5 0 -22 -17 -39 -37z"/>
</g>
</svg>
