<svg width="38" height="38" viewBox="0 0 38 38" fill="none" xmlns="http://www.w3.org/2000/svg">
<g clip-path="url(#clip0_285_2054)">
<path d="M29.4708 0H8.52927C3.81868 0 0.000111818 3.81868 0.000111818 8.52927V29.4707C0.000111818 34.1813 3.81877 38 8.52938 38H29.4708C34.1814 38 38.0001 34.1813 38.0001 29.4707V8.52927C38.0001 3.81864 34.1815 0 29.4708 0Z" fill="#0084FF"/>
<g clip-path="url(#clip1_285_2054)">
<path fill-rule="evenodd" clip-rule="evenodd" d="M10.9004 24.8969C9.46806 23.2773 8.61719 21.2243 8.61719 18.9949C8.61719 13.8145 13.2443 9.56055 18.9989 9.56055C24.7545 9.56055 29.3816 13.8145 29.3816 18.9949C29.3816 24.1743 24.7545 28.4292 18.9989 28.4292C17.4471 28.4292 15.9743 28.1182 14.6524 27.5635L12.4573 29.1006C12.1878 29.2893 11.8363 29.3149 11.5416 29.1689C11.2468 29.0229 11.0554 28.7279 11.0422 28.3989L10.9004 24.8969ZM12.7743 26.6816L14.0385 25.7968C14.3049 25.61 14.6503 25.5825 14.9431 25.7219C16.1535 26.3013 17.5342 26.6294 18.9989 26.6294C23.7111 26.6294 27.5816 23.2356 27.5816 18.9949C27.5816 14.7533 23.7111 11.3604 18.9989 11.3604C14.2867 11.3604 10.4162 14.7533 10.4162 18.9949C10.4162 20.8715 11.182 22.5879 12.439 23.9136C12.589 24.071 12.6771 24.2787 12.6862 24.4968L12.7743 26.6816Z" fill="white"/>
<path fill-rule="evenodd" clip-rule="evenodd" d="M17.7783 18.718L14.9003 21.133C14.5193 21.452 13.9513 21.403 13.6323 21.022C13.3133 20.641 13.3623 20.073 13.7433 19.754L17.3993 16.687C17.5963 16.522 17.8553 16.449 18.1103 16.486C18.3643 16.524 18.5913 16.669 18.7313 16.885L20.2943 19.28L23.0983 16.927C23.4793 16.607 24.0473 16.657 24.3663 17.037C24.6853 17.418 24.6363 17.986 24.2553 18.305L20.6743 21.312C20.4773 21.477 20.2183 21.551 19.9633 21.513C19.7093 21.475 19.4823 21.33 19.3423 21.114L17.7783 18.718Z" fill="white"/>
</g>
</g>
<defs>
<clipPath id="clip0_285_2054">
<rect width="38" height="38" fill="white"/>
</clipPath>
<clipPath id="clip1_285_2054">
<rect width="24" height="24" fill="white" transform="translate(7 7)"/>
</clipPath>
</defs>
</svg>
