<svg width="25" height="27" viewBox="0 0 25 27" fill="none" xmlns="http://www.w3.org/2000/svg">
<path d="M19.7504 17.5599C18.3584 17.5599 17.1114 18.2269 16.3284 19.2419L9.28139 15.1529C9.71639 14.0799 9.71639 12.8909 9.28139 11.8179L16.3284 7.72894C17.1114 8.74394 18.3584 9.41094 19.7504 9.41094C22.1574 9.41094 24.1004 7.46794 24.1004 5.06094C24.1004 2.65394 22.1574 0.710938 19.7504 0.710938C17.3434 0.710938 15.4004 2.65394 15.4004 5.06094C15.4004 5.64094 15.5164 6.22094 15.7194 6.71394L8.67239 10.8319C7.86039 9.81694 6.64239 9.14994 5.25039 9.14994C2.84339 9.14994 0.900391 11.0929 0.900391 13.4999C0.900391 15.9069 2.84339 17.8499 5.25039 17.8499C6.64239 17.8499 7.88939 17.1829 8.67239 16.1679L15.7194 20.2569C15.5164 20.7499 15.4004 21.3299 15.4004 21.9099C15.4004 24.3169 17.3434 26.2599 19.7504 26.2599C22.1574 26.2599 24.1004 24.3169 24.1004 21.9099C24.1004 19.5029 22.1574 17.5599 19.7504 17.5599ZM19.7504 1.89994C21.5194 1.89994 22.9404 3.32094 22.9404 5.08994C22.9404 6.85894 21.5194 8.27994 19.7504 8.27994C17.9814 8.27994 16.5604 6.85894 16.5604 5.08994C16.5604 3.32094 17.9814 1.89994 19.7504 1.89994ZM5.25039 16.6899C3.48139 16.6899 2.06039 15.2689 2.06039 13.4999C2.06039 11.7309 3.48139 10.3099 5.25039 10.3099C7.01939 10.3099 8.44039 11.7309 8.44039 13.4999C8.44039 15.2689 7.01939 16.6899 5.25039 16.6899ZM19.7504 25.0999C17.9814 25.0999 16.5604 23.6789 16.5604 21.9099C16.5604 20.1409 17.9814 18.7199 19.7504 18.7199C21.5194 18.7199 22.9404 20.1409 22.9404 21.9099C22.9404 23.6789 21.5194 25.0999 19.7504 25.0999Z" fill="#015696"/>
</svg>
