<svg width="38" height="38" viewBox="0 0 38 38" fill="none" xmlns="http://www.w3.org/2000/svg">
<g clip-path="url(#clip0_285_2065)">
<path d="M29.4708 0H8.52927C3.81868 0 0.000111818 3.81868 0.000111818 8.52927V29.4707C0.000111818 34.1813 3.81877 38 8.52938 38H29.4708C34.1814 38 38.0001 34.1813 38.0001 29.4707V8.52927C38.0001 3.81864 34.1815 0 29.4708 0Z" fill="#F2F2F2"/>
<path d="M29.4708 0H8.52927C3.81868 0 0.000111818 3.81868 0.000111818 8.52927V29.4707C0.000111818 34.1813 3.81877 38 8.52938 38H29.4708C34.1814 38 38.0001 34.1813 38.0001 29.4707V8.52927C38.0001 3.81864 34.1815 0 29.4708 0Z" fill="url(#paint0_radial_285_2065)"/>
<path d="M29.4708 0H8.52927C3.81868 0 0.000111818 3.81868 0.000111818 8.52927V29.4707C0.000111818 34.1813 3.81877 38 8.52938 38H29.4708C34.1814 38 38.0001 34.1813 38.0001 29.4707V8.52927C38.0001 3.81864 34.1815 0 29.4708 0Z" fill="url(#paint1_radial_285_2065)"/>
<path d="M14.334 19.0806C14.334 18.1499 14.6101 17.2401 15.1272 16.4663C15.6444 15.6925 16.3794 15.0894 17.2393 14.7333C18.0992 14.3773 19.0453 14.2842 19.9582 14.4658C20.871 14.6475 21.7094 15.0958 22.3674 15.754C23.0255 16.4122 23.4735 17.2507 23.655 18.1635C23.8364 19.0764 23.7431 20.0226 23.3868 20.8824C23.0306 21.7422 22.4273 22.477 21.6534 22.994C20.8794 23.5109 19.9696 23.7868 19.0389 23.7866C17.7909 23.7865 16.5941 23.2905 15.7118 22.408C14.8295 21.5255 14.3339 20.3286 14.334 19.0806ZM11.7898 19.0806C11.7898 20.5143 12.215 21.9159 13.0115 23.108C13.808 24.3001 14.9402 25.2292 16.2648 25.7779C17.5894 26.3265 19.0469 26.4701 20.4531 26.1904C21.8593 25.9107 23.1509 25.2203 24.1647 24.2065C25.1785 23.1927 25.8689 21.901 26.1486 20.4948C26.4284 19.0887 26.2848 17.6311 25.7361 16.3065C25.1875 14.9819 24.2583 13.8498 23.0662 13.0532C21.8741 12.2567 20.4726 11.8316 19.0389 11.8316C18.0869 11.8315 17.1442 12.019 16.2647 12.3833C15.3852 12.7475 14.5861 13.2815 13.9129 13.9546C13.2398 14.6278 12.7058 15.4269 12.3415 16.3065C11.9772 17.186 11.7898 18.1286 11.7898 19.0806ZM24.8808 11.5443C24.8807 11.8794 24.9799 12.2069 25.1659 12.4856C25.3519 12.7642 25.6164 12.9815 25.9258 13.1098C26.2353 13.2382 26.5759 13.2719 26.9045 13.2066C27.2332 13.1414 27.5351 12.9802 27.7721 12.7434C28.0091 12.5066 28.1706 12.2048 28.2361 11.8763C28.3016 11.5477 28.2682 11.2071 28.1401 10.8975C28.012 10.5879 27.795 10.3232 27.5165 10.137C27.238 9.95072 26.9106 9.85123 26.5755 9.85108C26.1265 9.85128 25.6958 10.0297 25.3782 10.3472C25.0606 10.6647 24.882 11.0952 24.8816 11.5443M13.3363 30.5719C12.4411 30.562 11.5543 30.3982 10.7146 30.0876C10.1057 29.8529 9.55273 29.4933 9.0912 29.0319C8.62967 28.5706 8.26985 28.0177 8.03489 27.4089C7.7241 26.5694 7.56027 25.6825 7.55058 24.7873C7.48203 23.2994 7.46862 22.8523 7.46862 19.0825C7.46862 15.3126 7.48352 14.8667 7.55058 13.3773C7.56144 12.4822 7.72524 11.5955 8.03489 10.7556C8.26957 10.1465 8.62928 9.59338 9.09084 9.13183C9.55239 8.67027 10.1055 8.31056 10.7146 8.07588C11.5542 7.7651 12.4411 7.60127 13.3363 7.59157C14.8242 7.52302 15.2713 7.50961 19.0396 7.50961C22.808 7.50961 23.2554 7.52414 24.7448 7.59194C25.6399 7.6028 26.5266 7.7666 27.3665 8.07626C27.9755 8.31096 28.5287 8.67067 28.9902 9.13223C29.4518 9.59378 29.8115 10.1469 30.0462 10.756C30.357 11.5956 30.5208 12.4824 30.5305 13.3776C30.5991 14.8678 30.6125 15.3126 30.6125 19.0828C30.6125 22.853 30.5987 23.2986 30.5305 24.7881C30.5201 25.6832 30.3563 26.5699 30.0462 27.4097C29.8113 28.0185 29.4514 28.5714 28.9899 29.0327C28.5284 29.494 27.9754 29.8536 27.3665 30.0883C26.5269 30.3991 25.64 30.5629 24.7448 30.5726C23.2569 30.6412 22.8098 30.6546 19.0396 30.6546C15.2694 30.6546 14.8239 30.6408 13.3363 30.5726M13.2193 5.04967C12.0479 5.0727 10.889 5.29441 9.79184 5.70536C8.85395 6.06798 8.00218 6.62259 7.29115 7.33363C6.58011 8.04466 6.0255 8.89643 5.66287 9.83432C5.25199 10.9315 5.03028 12.0904 5.00719 13.2618C4.93752 14.7669 4.92188 15.2482 4.92188 19.0821C4.92188 22.916 4.93789 23.397 5.00719 24.9024C5.03027 26.0738 5.25198 27.2327 5.66287 28.3299C6.02552 29.2678 6.58014 30.1195 7.29117 30.8305C8.0022 31.5416 8.85396 32.0962 9.79184 32.4588C10.889 32.8696 12.048 33.0913 13.2193 33.1145C14.7251 33.1831 15.2057 33.1998 19.0396 33.1998C22.8735 33.1998 23.3545 33.1838 24.86 33.1145C26.0313 33.0914 27.1902 32.8697 28.2874 32.4588C29.2253 32.0962 30.077 31.5416 30.7881 30.8305C31.4991 30.1195 32.0537 29.2678 32.4164 28.3299C32.8278 27.2329 33.0495 26.0738 33.0721 24.9024C33.1406 23.3962 33.1562 22.916 33.1562 19.0821C33.1562 15.2482 33.1402 14.7672 33.0721 13.2618C33.049 12.0904 32.8273 10.9315 32.4164 9.83432C32.0537 8.8966 31.4993 8.04497 30.7884 7.33396C30.0776 6.62295 29.2261 6.06823 28.2885 5.70536C27.1914 5.29415 26.0325 5.07243 24.8611 5.04967C23.3556 4.98075 22.8746 4.96436 19.0415 4.96436C15.2083 4.96436 14.7262 4.98038 13.22 5.04967" fill="white"/>
</g>
<defs>
<radialGradient id="paint0_radial_285_2065" cx="0" cy="0" r="1" gradientUnits="userSpaceOnUse" gradientTransform="translate(2.45918 37.1674) scale(48.2456 48.2454)">
<stop offset="0.09" stop-color="#FA8F21"/>
<stop offset="0.78" stop-color="#D82D7E"/>
</radialGradient>
<radialGradient id="paint1_radial_285_2065" cx="0" cy="0" r="1" gradientUnits="userSpaceOnUse" gradientTransform="translate(26.3212 35.9469) scale(42.4566 42.4564)">
<stop offset="0.64" stop-color="#8C3AAA" stop-opacity="0"/>
<stop offset="1" stop-color="#8C3AAA"/>
</radialGradient>
<clipPath id="clip0_285_2065">
<rect width="38" height="38" fill="white"/>
</clipPath>
</defs>
</svg>
