<svg width="38" height="38" viewBox="0 0 38 38" fill="none" xmlns="http://www.w3.org/2000/svg">
<g clip-path="url(#clip0_285_2058)">
<path d="M29.4708 0H8.52927C3.81868 0 0.000111818 3.81868 0.000111818 8.52927V29.4707C0.000111818 34.1813 3.81877 38 8.52938 38H29.4708C34.1814 38 38.0001 34.1813 38.0001 29.4707V8.52927C38.0001 3.81864 34.1815 0 29.4708 0Z" fill="#F2F2F2"/>
<path d="M24.7512 10H27.818L21.1179 17.6246L29 28H22.8284L17.9946 21.7074L12.4636 28H9.39494L16.5613 19.8446L9 10H15.3283L19.6976 15.7517L24.7512 10ZM23.6748 26.1723H25.3742L14.4049 11.7317H12.5813L23.6748 26.1723Z" fill="black"/>
</g>
<defs>
<clipPath id="clip0_285_2058">
<rect width="38" height="38" fill="white"/>
</clipPath>
</defs>
</svg>
