<svg width="38" height="38" viewBox="0 0 38 38" fill="none" xmlns="http://www.w3.org/2000/svg">
<g clip-path="url(#clip0_285_2041)">
<path d="M29.4708 0H8.52927C3.81868 0 0.000111818 3.81868 0.000111818 8.52927V29.4707C0.000111818 34.1813 3.81877 38 8.52938 38H29.4708C34.1814 38 38.0001 34.1813 38.0001 29.4707V8.52927C38.0001 3.81864 34.1815 0 29.4708 0Z" fill="#189D0E"/>
<path fill-rule="evenodd" clip-rule="evenodd" d="M9.33203 28.7203L9.63477 27.5752C9.95067 26.4037 10.2797 25.2455 10.5825 24.074C10.6467 23.8908 10.6467 23.6912 10.5825 23.508C9.49554 21.4802 9.17012 19.1304 9.66504 16.8836C10.16 14.6367 11.4426 12.6411 13.2809 11.2577C15.1192 9.87428 17.3919 9.19434 19.688 9.34086C21.984 9.48737 24.1518 10.4507 25.7994 12.0565C27.447 13.6624 28.4655 15.8048 28.6709 18.0963C28.8762 20.3879 28.2547 22.6773 26.9189 24.5504C25.583 26.4236 23.621 27.757 21.3876 28.3093C19.1541 28.8617 16.7968 28.5966 14.7418 27.562C14.5493 27.4997 14.342 27.4997 14.1495 27.562C11.5433 28.1412 9.85853 28.615 9.33203 28.7203ZM11.5828 26.509C12.5437 26.259 13.4256 26.0352 14.3074 25.7983C14.4172 25.7649 14.533 25.7558 14.6467 25.7717C14.7603 25.7877 14.8691 25.8282 14.9656 25.8904C16.567 26.8473 18.4555 27.2063 20.2964 26.9039C21.9883 26.6378 23.5514 25.8392 24.7587 24.6243C25.9659 23.4093 26.7545 21.8412 27.0099 20.1475C27.2653 18.4539 26.9742 16.7229 26.1789 15.206C25.3837 13.689 24.1256 12.4651 22.5873 11.7118C21.0491 10.9585 19.3108 10.7152 17.6248 11.017C15.9388 11.3189 14.393 12.1503 13.2117 13.3905C12.0304 14.6308 11.2751 16.2152 11.0556 17.9139C10.836 19.6125 11.1637 21.3369 11.9908 22.8367C12.1405 23.0583 12.2353 23.3124 12.2674 23.5779C12.2994 23.8434 12.2678 24.1127 12.1751 24.3636C11.9382 25.0085 11.8461 25.7325 11.5828 26.509Z" fill="white"/>
<path fill-rule="evenodd" clip-rule="evenodd" d="M21.5463 23.5475C19.6641 23.4817 16.663 21.9944 14.6097 18.4273C14.2371 17.8567 14.0778 17.173 14.1596 16.4965C14.2415 15.82 14.5593 15.194 15.0572 14.7287C15.232 14.5978 15.4366 14.5123 15.6525 14.4802C15.8685 14.448 16.0891 14.4701 16.2945 14.5444C16.3998 14.5444 16.5051 14.7155 16.5577 14.834C16.8341 15.4526 17.0974 16.0844 17.3343 16.7162C17.4659 17.0584 17.229 17.3743 16.742 17.9272C16.6753 18.0038 16.6386 18.102 16.6386 18.2036C16.6386 18.3052 16.6753 18.4033 16.742 18.48C17.4937 19.7922 18.6743 20.8054 20.0853 21.3494C20.1719 21.395 20.2724 21.4068 20.3673 21.3825C20.4621 21.3582 20.5446 21.2995 20.5986 21.2178C21.362 20.2832 21.441 20.0068 21.9148 20.1911C23.8629 21.1256 24.0077 21.1651 24.0208 21.3757C24.0332 21.691 23.975 22.005 23.8505 22.2949C23.726 22.5848 23.5383 22.8433 23.3012 23.0514C23.064 23.2595 22.7834 23.4121 22.4798 23.4979C22.1762 23.5837 21.8573 23.6007 21.5463 23.5475Z" fill="white"/>
</g>
<defs>
<clipPath id="clip0_285_2041">
<rect width="38" height="38" fill="white"/>
</clipPath>
</defs>
</svg>
